<svg xmlns="http://www.w3.org/2000/svg" xmlns:xlink="http://www.w3.org/1999/xlink" viewBox="0 0 59.253 59.253"><defs><style>.a{fill:#282727;}.b{clip-path:url(#a);}</style><clipPath id="a"><rect class="a" width="59.253" height="59.253"/></clipPath></defs><g transform="translate(0 0)"><g class="b"><g class="b"><path class="a" d="M471.915,102.04a14.282,14.282,0,0,1-4.267,1.164,7.538,7.538,0,0,0,3.3-4.122,14.819,14.819,0,0,1-4.752,1.794,7.445,7.445,0,0,0-12.9,5.091,6.509,6.509,0,0,0,.194,1.7,21.121,21.121,0,0,1-15.371-7.807,7.444,7.444,0,0,0,2.279,9.94,8.044,8.044,0,0,1-3.394-.921v.1a7.449,7.449,0,0,0,5.964,7.322,6.776,6.776,0,0,1-1.988.242,6.583,6.583,0,0,1-1.406-.145,7.472,7.472,0,0,0,6.982,5.188,15.086,15.086,0,0,1-9.261,3.2c-.582,0-1.212-.048-1.794-.1a20.97,20.97,0,0,0,11.443,3.346c13.722,0,21.238-11.346,21.238-21.238v-.97a13.865,13.865,0,0,0,3.734-3.782" transform="translate(-424.105 -83.711)"/></g></g></g></svg>