<svg id="Groupe_4184" data-name="Groupe 4184" xmlns="http://www.w3.org/2000/svg" viewBox="0 0 22.199 48.911">
  <defs>
    <style>
      .cls-1 {
        fill: #3b3b3b;
      }
    </style>
  </defs>
  <path id="Tracé_6282" data-name="Tracé 6282" class="cls-1" d="M10.737,39.2a5.022,5.022,0,0,1-5.02-4.977l-.74-13.871a11.095,11.095,0,1,1,11.593.406l-.813,12.376a1.527,1.527,0,0,1-3.047-.2L13.581,19.7a1.534,1.534,0,0,1,.885-1.277,8.065,8.065,0,1,0-7.255-.276A1.521,1.521,0,0,1,7.995,19.4l.784,14.712V34.2a1.975,1.975,0,0,0,1.973,1.973,1.516,1.516,0,1,1-.015,3.032Z"/>
  <path id="Tracé_6283" data-name="Tracé 6283" class="cls-1" d="M73.031,261.954a9.263,9.263,0,0,1-5.847-1.9c-2.38-1.9-3.584-5.049-3.584-9.329a1.523,1.523,0,0,1,3.047,0c0,3.308.813,5.644,2.423,6.935a7.027,7.027,0,0,0,5.368,1.117,1.524,1.524,0,0,1,.667,2.974A10.405,10.405,0,0,1,73.031,261.954Z" transform="translate(-54.372 -213.043)"/>
</svg>
