<svg xmlns="http://www.w3.org/2000/svg" viewBox="0 0 43.573 31.201"><defs><style>.a{fill:#fff;}.b{fill:none;stroke:#fff;stroke-linecap:round;stroke-width:3px;}</style></defs><g transform="translate(-621 -3050)"><g transform="translate(621 3050)"><path class="a" d="M27.848,31.2H15.719A15.6,15.6,0,0,1,7.593,2.213,1.305,1.305,0,1,1,8.927,4.457a13,13,0,0,0,6.792,24.151H27.848a13.091,13.091,0,0,0,9.309-3.881A12.829,12.829,0,0,0,40.962,15.6,13,13,0,0,0,27.969,2.638H18.933A6.937,6.937,0,0,0,12,9.309v5.685a7.968,7.968,0,0,0,7.959,7.959H25.27c4.321-.061,7.838-2.729,7.838-7.05S29.591,8.763,25.27,8.7H17.114a1.3,1.3,0,1,1,0-2.608L26.6,6.2c5.14.713,9.127,4.4,9.127,9.7s-3.987,8.854-9.127,9.551l-6.625.106A10.585,10.585,0,0,1,9.412,14.994V9.218A9.528,9.528,0,0,1,18.933,0h9.036a15.6,15.6,0,0,1-.121,31.2Z" transform="translate(0.003)"/></g><line class="b" x2="8.102" transform="translate(639.454 3065.754)"/></g></svg>