<?xml version="1.0" encoding="utf-8"?>
<!-- Generator: Adobe Illustrator 22.1.0, SVG Export Plug-In . SVG Version: 6.00 Build 0)  -->
<svg version="1.1" id="Calque_1" xmlns="http://www.w3.org/2000/svg" xmlns:xlink="http://www.w3.org/1999/xlink" x="0px" y="0px"
	 viewBox="0 0 150 140" style="enable-background:new 0 0 150 140;" xml:space="preserve">
<style type="text/css">
	.st0{fill:#FD5300;}
	.st1{fill:#FFFFFF;}
</style>
<g transform="translate(22.929 22.929)">
	<g transform="matrix(1, 0, 0, 1, -22.93, -22.93)">
		<path class="st0" d="M0,0h80.1C118.7,0,150,31.3,150,69.9l0,0c0,38.6-31.3,69.9-69.9,69.9H69.9C31.3,139.7,0,108.5,0,69.9V0L0,0z"
			/>
	</g>
	<g transform="translate(45.49 33.297)">
		<g transform="translate(0 0)">
			<path class="st1" d="M10.8-15.6c0,1.1,0.9,2,2,2c1.1,0,2-0.9,2-2c0-1.1-0.9-2-2-2c0,0,0,0,0,0C11.7-17.6,10.8-16.7,10.8-15.6z"/>
			<path class="st1" d="M35,6c0-1.4-0.6-2.7-1.6-3.7l-2.5-2.3v-14c0-1.7-1.3-3-3-3h-8.3c-1.7,0-3,1.3-3,3v4.3c0,1.1,0.9,2,2,2
				c1.1,0,2-0.9,2-2v-3.3h6.3V1c0,0.6,0.2,1.1,0.7,1.5l3.2,2.9C30.9,5.6,31,5.8,31,6.1l0.1,25.8c0,4.9-3.9,8.8-8.8,8.8c0,0,0,0,0,0
				h0l-32.4-0.1c-4.8,0-8.8-3.9-8.8-8.8V6c0-0.2,0.1-0.5,0.3-0.6l24-24c0.3-0.3,0.9-0.4,1.3,0L8-17.3c0.8,0.8,2.1,0.8,2.8,0
				s0.8-2.1,0-2.8l-1.4-1.4c-1.9-1.9-5-1.9-6.9,0l-24,24c-0.9,0.9-1.4,2.2-1.4,3.5v25.9c0,7,5.8,12.7,12.8,12.8l32.4,0.1h0
				c7.1,0,12.8-5.7,12.8-12.8c0,0,0,0,0,0L35,6z"/>
		</g>
	</g>
</g>
</svg>
