<svg xmlns="http://www.w3.org/2000/svg" viewBox="0 0 40.057 27.975"><defs><style>.a,.b{fill:none;}.a{stroke:#fff;stroke-miterlimit:10;stroke-width:0.057px;}.c{fill:#fff;}</style></defs><g transform="translate(20.028 13.987)"><g transform="translate(-20 -13.96)"><path class="a" d="M59.949,11.7H47.869a13.959,13.959,0,1,0,0,27.919h12.08a13.959,13.959,0,1,0,0-27.919Zm-12.091,0" transform="translate(-33.909 -11.7)"/><path class="b" d="M210.365,17.625v0h-9.471V11.708a9.044,9.044,0,0,0-4.772,7.973v6.986a9.046,9.046,0,0,0,9.046,9.046h5.2v0a9.043,9.043,0,1,0,0-18.086Zm-.132,13.3h-5.048a4.253,4.253,0,0,1-4.253-4.252V22.415h9.3a4.253,4.253,0,0,1,0,8.505Z" transform="translate(-186.945 -11.707)"/><path class="c" d="M59.949,11.692H47.869a13.959,13.959,0,1,0,0,27.919h12.08a13.959,13.959,0,1,0,0-27.919Zm-2.62,24v0h-5.2a9.046,9.046,0,0,1-9.046-9.046V19.666a9.045,9.045,0,0,1,4.773-7.974l0,5.915h9.471v0a9.043,9.043,0,1,1,0,18.086Z" transform="translate(-33.909 -11.691)"/><path class="c" d="M290.427,200.95h-9.3V205.2a4.253,4.253,0,0,0,4.252,4.252h5.048a4.253,4.253,0,0,0,0-8.505Z" transform="translate(-267.139 -190.242)"/></g></g></svg>