<svg xmlns="http://www.w3.org/2000/svg" viewBox="0 0 291.2 49.82"><g transform="translate(-814 -303.29)"><path d="M0,97.787V52.9H6.27V92H31.211v5.8H0Z" transform="translate(814 254.506)"/><path d="M496.952,204.723a12.067,12.067,0,0,1-4.045.677c-3.306,0-6.27-1.618-6.807-5.593-3.1,4.45-7.818,5.866-12.066,5.866-7.211,0-11.934-3.975-11.934-10.65,0-8.153,7.142-9.841,12.136-10.518,5.391-.739,11.125-.739,11.125-5.189,0-3.913-4.248-5.127-7.951-5.127a18.409,18.409,0,0,0-10.922,3.711l-2.7-4.45A23.612,23.612,0,0,1,477.807,169c7.951,0,13.552,3.368,13.552,11.459v16.586c0,2.559.809,3.773,2.762,3.773a3.872,3.872,0,0,0,2.093-.537Zm-11.459-19.417c-2.357,2.964-5.8,2.9-10.113,3.641-3.975.677-7.282,1.618-7.282,5.928,0,4.178,3.236,5.928,7.282,5.928,5.127,0,10.113-2.762,10.113-9.436Z" transform="translate(387.849 147.438)"/><path d="M1260.076,97.787l-9.569-18.064h-12.875V97.787H1231.3V52.9h19.682c9.234,0,15.03,5.189,15.03,13.147,0,6.27-3.913,10.65-9.234,12.54l10.44,19.2Zm-9.3-39.092h-13.147V74.2h13.35c5.189,0,8.5-3.1,8.5-7.686C1259.469,61.73,1255.961,58.7,1250.772,58.7Z" transform="translate(-321.512 254.506)"/><path d="M1754.971,32.891h-27.5c.334,7.282,4.924,11.529,11.794,11.529a13.68,13.68,0,0,0,10.378-4.582l3.913,3.843a18.757,18.757,0,0,1-14.423,6.13c-11.389,0-17.932-7.818-17.932-18.2,0-10.316,6.473-18.468,17.193-18.468,10.316,0,16.718,7.686,16.718,17.457A18.42,18.42,0,0,1,1754.971,32.891Zm-5.936-4.512c-.607-6.737-5.189-10.176-10.72-10.176-6.13,0-10.246,4.248-10.72,10.176ZM1734.744,8.091a45.576,45.576,0,0,0,6-8.091l5.594.879c-1.346,3.1-5.461,7.009-9.234,9.164Z" transform="translate(-773.3 303.29)"/><path d="M2258.381,59.424V53.69a14.529,14.529,0,0,1-12.47,6.535c-9.973,0-16.111-7.951-16.111-18.266,0-10.448,6.13-18.4,16.111-18.4a14.547,14.547,0,0,1,12.47,6.6V11.3h5.866V59.431h-5.866Zm-11.4-30.4c-7.344,0-10.985,5.733-10.985,12.875s3.571,12.945,10.985,12.945c7.484,0,11.389-5.8,11.389-12.945C2258.381,34.685,2254.4,29.022,2246.985,29.022Z" transform="translate(-1242.334 292.869)"/><path d="M2777.852,204.723a12.067,12.067,0,0,1-4.045.677c-3.306,0-6.27-1.618-6.807-5.593-3.1,4.45-7.818,5.866-12.066,5.866-7.211,0-11.934-3.975-11.934-10.65,0-8.153,7.142-9.841,12.136-10.518,5.392-.739,11.125-.739,11.125-5.189,0-3.913-4.247-5.127-7.95-5.127a18.409,18.409,0,0,0-10.922,3.711l-2.7-4.45a23.648,23.648,0,0,1,14.019-4.45c7.951,0,13.552,3.368,13.552,11.459v16.586c0,2.559.809,3.773,2.762,3.773a3.872,3.872,0,0,0,2.093-.537Zm-11.459-19.417c-2.357,2.964-5.8,2.9-10.113,3.641-3.975.677-7.281,1.618-7.281,5.928,0,4.178,3.236,5.928,7.281,5.928,5.127,0,10.113-2.762,10.113-9.436Z" transform="translate(-1715.61 147.437)"/><path d="M3240.549,198.229a16.714,16.714,0,0,1-14.159,7.344c-10.378,0-16.99-7.888-16.99-18.336s6.6-18.336,16.99-18.336a16.43,16.43,0,0,1,13.956,7.282l-4.38,3.509a10.636,10.636,0,0,0-9.366-5.461c-6.807,0-10.985,5.593-10.985,13.007,0,7.484,4.248,13.007,10.922,13.007a10.973,10.973,0,0,0,9.507-5.259Z" transform="translate(-2145.727 147.53)"/><circle cx="3.166" cy="3.166" r="3.166" transform="translate(1098.868 346.77)"/></g></svg>