<svg xmlns="http://www.w3.org/2000/svg" viewBox="0 0 109.852 109.852"><defs><style>.a{fill:#282727;}.b{fill:#fff;}</style></defs><g transform="translate(-884.926 -291.926)"><rect class="a" width="109.852" height="109.852" transform="translate(884.926 291.926)"/><g transform="translate(494.226 184.726)"><g transform="translate(410.7 194.023)"><g transform="translate(0 0)"><g transform="translate(55.443)"><path class="b" d="M545.788,295.848l-1.742-3.824-1.784,3.824H541.2l2.846-5.948,2.762,5.948Z" transform="translate(-541.2 -289.9)"/></g><path class="b" d="M437.7,296.223V290.7h1.232a4.192,4.192,0,0,1,1.4.17,2.967,2.967,0,0,1,1.02.552,2.551,2.551,0,0,1,.892,2.039,2.461,2.461,0,0,1-.935,2.039,3.209,3.209,0,0,1-.977.552,5.705,5.705,0,0,1-1.4.17Zm.892-.765h.382a3.208,3.208,0,0,0,.977-.127,2.363,2.363,0,0,0,.722-.382,1.84,1.84,0,0,0,.637-1.445,1.928,1.928,0,0,0-.637-1.487,2.537,2.537,0,0,0-1.7-.51h-.382Z" transform="translate(-426.229 -290.36)"/><path class="b" d="M463.092,291.507h2.337V290.7H462.2v5.523h3.229v-.765h-2.337v-1.572h2.294v-.807h-2.294v-1.572Z" transform="translate(-440.32 -290.36)"/><path class="b" d="M489.688,296.293h-1.1l-.467-.425a3.109,3.109,0,0,1-1.657.425,3.348,3.348,0,0,1-2.082-.722,2.638,2.638,0,0,1-.977-2.082,2.6,2.6,0,0,1,.935-2.082,3.02,3.02,0,0,1,2.124-.807,3.116,3.116,0,0,1,2,.722,2.708,2.708,0,0,1,.212,4.121Zm-2.167-2,.552.51a1.8,1.8,0,0,0,.552-1.36,1.928,1.928,0,0,0-.637-1.487,2.375,2.375,0,0,0-3.144,0,1.927,1.927,0,0,0-.595,1.529,1.84,1.84,0,0,0,.637,1.444,2.2,2.2,0,0,0,1.487.595,2.019,2.019,0,0,0,1.02-.255l-1.1-.977Z" transform="translate(-452.513 -290.303)"/><path class="b" d="M511.777,290.355l1.529,3.7,1.614-3.951,1.529,3.951,1.614-3.7h.977l-2.634,5.863-1.529-3.909-1.572,3.909-2.507-5.863Z" transform="translate(-468.272 -290.015)"/><path class="b" d="M569.952,291.565v4.716h-.892v-4.716H567.7V290.8h3.569v.765Z" transform="translate(-500.998 -290.418)"/><path class="b" d="M415.288,295.848l-1.742-3.824-1.784,3.824H410.7l2.847-5.948,2.762,5.948Z" transform="translate(-410.7 -289.9)"/></g></g><g transform="translate(418.007 123.2)"><path class="b" d="M466.827,156.508l5.736-12.321,5.608,12.321h10.111L472.732,123.2,456.8,156.508Z" transform="translate(-444.522 -123.2)"/><path class="b" d="M435.59,224.2l-7.69,16.187h10.366l3.059-6.585H470.3l3.016,6.585h10.409L476.163,224.2Z" transform="translate(-427.9 -181.29)"/></g></g></g></svg>