<svg xmlns="http://www.w3.org/2000/svg" viewBox="0 0 35.495 24.097"><defs><style>.a{fill:#fff;}</style></defs><path class="a" d="M131.7,23.217a11.608,11.608,0,1,1,8.2-19.819,1.317,1.317,0,1,1-1.862,1.862,8.97,8.97,0,1,0,.164,12.5,1.317,1.317,0,0,1,1.913,1.812A11.424,11.424,0,0,1,131.7,23.217Z" transform="translate(-104.987)"/><path class="a" d="M43.921,13.376a1.321,1.321,0,0,1,0-2.643,4.046,4.046,0,0,0,0-8.091,1.321,1.321,0,0,1,0-2.643,6.688,6.688,0,0,1,0,13.376Z" transform="translate(-37.239)"/><path class="a" d="M46.121,98.576a1.321,1.321,0,1,1,0-2.643,4.046,4.046,0,0,0,0-8.091,1.321,1.321,0,1,1,0-2.643,6.688,6.688,0,0,1,0,13.376Z" transform="translate(-39.163 -74.479)"/><path class="a" d="M1.321,24.1A1.321,1.321,0,0,1,0,22.776V1.321A1.321,1.321,0,0,1,1.321,0H6.682a1.321,1.321,0,1,1,0,2.643H2.643V22.776A1.321,1.321,0,0,1,1.321,24.1Z"/></svg>