<svg xmlns="http://www.w3.org/2000/svg" viewBox="0 0 149.822 100.982">
  <defs>
    <style>
      .cls-1, .cls-2 {
        fill: #fff;
      }

      .cls-2 {
        stroke: #fff;
        stroke-miterlimit: 10;
      }
    </style>
  </defs>
  <g id="Groupe_4176" data-name="Groupe 4176" transform="translate(-880.686 -265.986)">
    <g id="Groupe_4026" data-name="Groupe 4026" transform="translate(880.682 265.875)">
      <path id="Tracé_6222" data-name="Tracé 6222" class="cls-1" d="M30.641,36.184a14.875,14.875,0,0,0-3.326-2.3c-2.137-1.119-5.5-2.384-8.3-.876A32.547,32.547,0,0,0,3.736,48.925C-1.105,59.453.15,66.415.15,66.415s.829,5.717,6.156,7.711a3.14,3.14,0,0,0,2.68-.776A1.806,1.806,0,0,0,8.88,71.1a3.044,3.044,0,0,1-1.272-1.468,34.269,34.269,0,0,1-.416-11.763c.829-4.421,9.276-15.1,9.276-15.1s4.6-3.9,5.63-3.676,2.074.266,2.4,1.6,1.162,4.4.19,10.238S19.667,71.5,17.8,80.994s-3.659,24.591-3.439,28.863,1.428,4.884,2.84,5.127,4.411,1.205,5.52-3.206,1.155-15.875,3.719-31.41,5.946-27.538,5.946-27.538S36.128,44.061,30.641,36.184Z" transform="translate(0 -30.632)"/>
      <path id="Tracé_6223" data-name="Tracé 6223" class="cls-2" d="M1034.858,60.7s-6.346-7.721-7.515-9.372-1.448-4.411-1.155-7.148a17.99,17.99,0,0,1,.919-4.325,7.018,7.018,0,0,0-.523-3.809c-.876-1.928-2.074-2.823-3.106-3.053a2.157,2.157,0,0,0-1.718.316s-4.255,4.864-4.332,9.5,2.967,9.3,2.967,9.3c-.569,5.094-3.809,13.311-3.809,13.311a3.429,3.429,0,0,0-2.211.866c-.693.826-.157,4.258-.157,4.258a17.938,17.938,0,0,1-2.98,3.679c-1.165.809-.822-5.9-.822-5.9s1.974-25.127,2.044-27.018-.489-2.1-.489-2.1a5.153,5.153,0,0,0-2.78-1.715c-1.968-.546-2.4.762-2.4.762a16.024,16.024,0,0,0-.849,2.414c-.333,1.3-.876.649-.876.649-2.923-2.95-9.029-1.755-9.029-1.755s-4.3.979-8.647,5.836-5.334,16.1-5.334,16.1a24.783,24.783,0,0,1-1.052,5.36,21.441,21.441,0,0,1-7.345,9.013c-3,1.785-7.275,2-9.808-1.215s-1.938-14.187-1.938-14.187,4.655,2.257,10.734-.739a12.712,12.712,0,0,0,6.789-9.316s.273-4.821-1.518-7.634a9.708,9.708,0,0,0-12.858-3.223c-6.273,3.083-8.89,12.366-9.166,17.283a98.363,98.363,0,0,1-1.615,12.918c-.576,2.727-3.276,6.606-5.537,6.236s-1.548-6.785-1.548-6.785,1.738-23.905,2.6-31.736,1.914-26.076,1.748-29.306a20.387,20.387,0,0,0-.762-5s-2.987-3.759-4.848-2.124-1.582,9.416-1.582,9.416c-.153,16.953-1.585,29.975-1.585,29.975s.156-1.7-5.876-2.49-9.948,5.127-9.948,5.127c-8.034,12.3-7.435,26.819-7.435,26.819s1.735,12,10.574,11.194,10.032-7.4,10.032-7.4,1.079,9.229,8.5,8.463,8.673-6.5,8.673-6.5a7.067,7.067,0,0,0,1.049,2.407s2.347,5.677,10.974,5.524,14.207-7.528,14.207-7.528a9.645,9.645,0,0,0,3.879,5.261s2.124,1.5,7.068,1.019,9.432-6.566,9.432-6.566,2.37,5.014,5.673,5.42,7.451-4.175,7.451-4.175c1.355,1.755,5,3.216,5,3.216,3.552,1.269,9.083.336,9.083.336a14.139,14.139,0,0,0,6.776-9.033A11.82,11.82,0,0,0,1034.858,60.7ZM969.145,44.323c4.518-1.8,4.748,2.277,4.748,2.277s-1.125,9.905-10.941,8.88C962.952,55.48,964.627,46.124,969.145,44.323Zm-27.831,4.518c-.423,3.736-.706,13.957-5.434,21.362s-7.295,5.131-7.295,5.131-2.807-.956-2.207-6.9a107.087,107.087,0,0,1,3-14.48s2.1-8.114,5.387-9.865,5.134-.449,5.134-.449S941.737,45.105,941.314,48.841Zm61.718,9.073c-.8,3.569-4.615,19.724-12.049,18.405s.909-24.5.909-24.5,2.257-7.188,8.78-6.862c0,0,2.364.087,2.231,3.676s-.2,5.294-.2,5.294a5.286,5.286,0,0,1,.446.776C1003.5,55.373,1003.828,54.341,1003.032,57.914Zm27.381,12.762c-.277,2.357-1.748,3.726-2.983,3.772s-4.744.2-6.412-3.363c0,0,3.776-7.248,4.242-12.159a30.833,30.833,0,0,1,3.592,5.344C1030.264,67.07,1030.69,68.315,1030.413,70.675Z" transform="translate(-888.879 0)"/>
      <path id="Tracé_6224" data-name="Tracé 6224" class="cls-1" d="M412.754,2740.955s-4.288-3.286-1.948-6.9,5.407-2.074,5.407-2.074,3.932,1.3,3.243,4.534S416.7,2741.954,412.754,2740.955Z" transform="translate(-396.45 -2640.105)"/>
    </g>
  </g>
</svg>
