<svg xmlns="http://www.w3.org/2000/svg" viewBox="0 0 150 150"><defs><style>.a{fill:#282727;}.b{fill:#fff;}</style></defs><g transform="translate(-885 -513)"><g transform="translate(0 221)"><rect class="a" width="150" height="150" transform="translate(885 292)"/><g transform="translate(931 319.314)"><path class="b" d="M47.342,61.6l-18.1-39.726-18.4,39.665H0L29.429,0,58.188,61.6Z"/></g><g transform="translate(905 409.314)"><g transform="translate(87.414)"><path class="b" d="M952.2,9.352,949.44,3.33l-2.794,6.022H945L949.477,0l4.366,9.352Z" transform="translate(-945)"/></g><path class="b" d="M195.2,14.5V5.8h1.952a7.4,7.4,0,0,1,2.211.259,4.138,4.138,0,0,1,1.582.86,4.021,4.021,0,0,1,1.434,3.228,4.027,4.027,0,0,1-1.5,3.247,4.335,4.335,0,0,1-1.573.86,7.766,7.766,0,0,1-2.183.241Zm1.4-1.23h.629a5.7,5.7,0,0,0,1.563-.185,3.286,3.286,0,0,0,1.129-.62,2.911,2.911,0,0,0,1.036-2.3,2.949,2.949,0,0,0-1.018-2.322,4.051,4.051,0,0,0-2.71-.8H196.6Z" transform="translate(-177.144 -5.263)"/><path class="b" d="M373.7,7.03h3.719V5.8H372.3v8.7h5.115v-1.23H373.7v-2.5H377.3V9.537H373.7V7.03Z" transform="translate(-337.862 -5.263)"/><path class="b" d="M535.9,13.019H534.14l-.731-.7a4.873,4.873,0,0,1-2.581.7,5.036,5.036,0,0,1-3.275-1.166A4.114,4.114,0,0,1,526,8.551a4.206,4.206,0,0,1,1.471-3.275,5.068,5.068,0,0,1,6.54-.157,4.277,4.277,0,0,1,1.684,3.5,4.081,4.081,0,0,1-1.332,3Zm-3.386-3.136.888.8a2.889,2.889,0,0,0,.888-2.146,3.129,3.129,0,0,0-.99-2.35,3.422,3.422,0,0,0-2.461-.944,3.355,3.355,0,0,0-2.451.944,3.186,3.186,0,0,0-.971,2.387,2.965,2.965,0,0,0,1,2.3,3.5,3.5,0,0,0,2.377.925,3.45,3.45,0,0,0,1.637-.389l-1.721-1.526Z" transform="translate(-477.344 -3.63)"/><path class="b" d="M726.226,1.626l2.414,5.809L731.166,1.2l2.414,6.235,2.562-5.809h1.517l-4.144,9.25-2.386-6.161-2.488,6.17L724.7,1.635h1.526Z" transform="translate(-657.664 -1.089)"/><path class="b" d="M1139.943,7.03V14.5h-1.406V7.03H1136.4V5.8h5.661V7.03Z" transform="translate(-1031.281 -5.263)"/><path class="b" d="M7.187,9.352,4.44,3.321,1.647,9.343H0L4.468,0,8.834,9.352Z"/></g></g></g></svg>