<svg xmlns="http://www.w3.org/2000/svg" viewBox="0 0 33.413 40.796"><defs><style>.a{fill:#fff;}</style></defs><path class="a" d="M20,40.8H13.4a5.72,5.72,0,0,1-5.7-5.582L5.758,22.582A9,9,0,0,1,8.559,5.19a8.99,8.99,0,0,1,16.3,0A9,9,0,0,1,27.89,22.484l-.921,5.621A1.284,1.284,0,0,1,25.7,29.182h-9.3a1.293,1.293,0,0,1,0-2.585H24.6l.862-5.268a1.277,1.277,0,0,1,.881-1.018A6.408,6.408,0,0,0,24.4,7.795a2.129,2.129,0,0,0-.353.02,1.312,1.312,0,0,1-1.293-.862,6.4,6.4,0,0,0-12.1,0,1.287,1.287,0,0,1-1.293.862c-.118,0-.235-.02-.353-.02a6.4,6.4,0,0,0-1.7,12.574,1.307,1.307,0,0,1,.94,1.058L10.3,34.94a.666.666,0,0,1,.02.2,3.122,3.122,0,0,0,3.114,3.114h6.6a3.122,3.122,0,0,0,3.114-3.114,1.293,1.293,0,1,1,2.585,0A5.743,5.743,0,0,1,20,40.8Z"/></svg>