<?xml version="1.0" encoding="utf-8"?>
<!-- Generator: Adobe Illustrator 22.1.0, SVG Export Plug-In . SVG Version: 6.00 Build 0)  -->
<svg version="1.1" id="Layer_1" xmlns="http://www.w3.org/2000/svg" xmlns:xlink="http://www.w3.org/1999/xlink" x="0px" y="0px"
	 viewBox="0 0 30 30" style="enable-background:new 0 0 30 30;" xml:space="preserve">
<style type="text/css">
	.st0{fill:#1DA1F2;}
	.st1{fill:#FFFFFF;}
</style>
<circle class="st0" cx="15" cy="15" r="15"/>
<path class="st1" d="M8.4,9.4c1.7,2,3.8,3.1,6.4,3.3c0-0.2-0.1-0.4-0.1-0.5c-0.1-0.7,0.1-1.3,0.5-1.9c0.7-1,1.7-1.5,2.9-1.4
	c0.7,0.1,1.2,0.4,1.8,0.9c0.1,0.1,0.2,0.1,0.3,0c0.6-0.1,1.1-0.3,1.6-0.6C22,9.1,22,9,22.1,9c-0.3,0.7-0.7,1.2-1.3,1.7
	c0.6-0.1,1.1-0.2,1.7-0.4c-0.1,0.1-0.2,0.3-0.3,0.5c-0.3,0.4-0.7,0.7-1.1,1C21,11.9,21,12,21,12.1c0.1,2-0.5,3.9-1.8,5.6
	c-1,1.4-2.4,2.5-4.1,3.1c-1.3,0.5-2.7,0.6-4.1,0.4c-1.3-0.2-2.5-0.6-3.5-1.3c1.6,0.1,3.1-0.3,4.5-1.3c-0.7-0.1-1.2-0.3-1.8-0.7
	c-0.6-0.4-0.9-0.9-1.2-1.6c0.5,0.1,0.9,0.1,1.4-0.1c-0.7-0.2-1.3-0.5-1.8-1.1c-0.5-0.6-0.7-1.2-0.7-2c0.4,0.3,0.9,0.4,1.4,0.4
	c-0.7-0.5-1.1-1.1-1.3-1.9C7.9,10.8,8,10.1,8.4,9.4z"/>
</svg>
