<svg xmlns="http://www.w3.org/2000/svg" width="96" viewBox="0 0 96.175 86.754"><defs><style>.a{fill:#ff5c00;}</style></defs><g transform="translate(35.899 32.382)"><g transform="translate(-35.899 -32.382)"><g transform="translate(25.767 53.362)"><path class="a" d="M30.3,47.809l.016-1.555v-1.7a6.467,6.467,0,0,0-.474-2.679A3.07,3.07,0,0,0,28.146,40.3a8.324,8.324,0,0,0-3.081-.469,7.862,7.862,0,0,0-2.932.482,4.145,4.145,0,0,0-1.8,1.278,2.749,2.749,0,0,0-.6,1.66,1.329,1.329,0,0,0,.463,1.038,1.544,1.544,0,0,0,1.05.391,1.179,1.179,0,0,0,.951-.313c.121-.145.313-.423.577-.829a2.323,2.323,0,0,1,.831-.8,3.18,3.18,0,0,1,1.473-.26c.717,0,1.206.134,1.4.394a2.362,2.362,0,0,1,.367,1.206q-.742.208-1.388.363c-.509.121-1.117.255-1.828.4s-1.173.241-1.352.283a4.063,4.063,0,0,0-2.212,1.206,3.215,3.215,0,0,0-.825,2.216,3.373,3.373,0,0,0,.5,1.778,3.49,3.49,0,0,0,1.409,1.3,4.45,4.45,0,0,0,2.079.472,5.934,5.934,0,0,0,2.293-.427A8.771,8.771,0,0,0,27.3,50.638a5.684,5.684,0,0,0,.762.95,1.585,1.585,0,0,0,1.1.506,1.716,1.716,0,0,0,1.155-.443,1.377,1.377,0,0,0,.525-1.049,4.727,4.727,0,0,0-.279-1.22A5.329,5.329,0,0,1,30.3,47.809Zm-3.443-1.314A4.009,4.009,0,0,1,26.51,48.4a2.143,2.143,0,0,1-.912.822,2.312,2.312,0,0,1-2.459-.032,1.113,1.113,0,0,1-.382-.853.875.875,0,0,1,.3-.719,1.916,1.916,0,0,1,.743-.4c.3-.079.849-.2,1.641-.372.568-.122,1.035-.237,1.413-.355Z" transform="translate(-19.239 -39.825)"/><path class="a" d="M39.437,41.907a3.452,3.452,0,0,0-1.463-1.534,4.923,4.923,0,0,0-4.379-.029,4.83,4.83,0,0,0-1.2.9,1.875,1.875,0,0,0-.174-.513,1.59,1.59,0,0,0-.614-.67,1.661,1.661,0,0,0-.848-.222,1.555,1.555,0,0,0-1.22.516A2.115,2.115,0,0,0,29.1,41.8V50.02a2.2,2.2,0,0,0,.48,1.5,1.622,1.622,0,0,0,1.263.561,1.686,1.686,0,0,0,1.283-.536,2.173,2.173,0,0,0,.49-1.526v-3.57a8.786,8.786,0,0,1,.188-2.261,2.264,2.264,0,0,1,.8-1.09,1.97,1.97,0,0,1,1.191-.391,1.281,1.281,0,0,1,1.262.567,4.443,4.443,0,0,1,.354,2V50.02a2.2,2.2,0,0,0,.48,1.5,1.644,1.644,0,0,0,1.283.561,1.626,1.626,0,0,0,1.266-.549,2.213,2.213,0,0,0,.476-1.516v-5.3a12.281,12.281,0,0,0-.084-1.589,3.635,3.635,0,0,0-.4-1.227Z" transform="translate(-15.891 -39.819)"/><path class="a" d="M48.285,46.442A3.964,3.964,0,0,0,46.9,45.284a9.759,9.759,0,0,0-2.242-.8c-.737-.179-1.314-.33-1.741-.455a2.771,2.771,0,0,1-.9-.418.555.555,0,0,1-.245-.47c0-.134.036-.33.359-.536a2.009,2.009,0,0,1,1.112-.269,2.094,2.094,0,0,1,1.022.2,2.289,2.289,0,0,1,.67.585,5.173,5.173,0,0,0,.754.8,1.474,1.474,0,0,0,.958.326,1.629,1.629,0,0,0,1.164-.4,1.39,1.39,0,0,0,.433-1.046,2.009,2.009,0,0,0-.363-1.1,3.392,3.392,0,0,0-.991-.95,5.326,5.326,0,0,0-1.57-.66,8.305,8.305,0,0,0-2.076-.249,6.138,6.138,0,0,0-2.545.484,3.851,3.851,0,0,0-1.646,1.331,3.2,3.2,0,0,0-.568,1.8,2.759,2.759,0,0,0,.632,1.831,4.287,4.287,0,0,0,1.6,1.149,15.9,15.9,0,0,0,2.449.785,6.723,6.723,0,0,1,1.775.618.856.856,0,0,1,.4.8c0,.078,0,.313-.4.595a2.088,2.088,0,0,1-1.206.32,2.872,2.872,0,0,1-1.488-.326,2.813,2.813,0,0,1-.93-1.013,2.7,2.7,0,0,0-.525-.7,1.306,1.306,0,0,0-.915-.307,1.473,1.473,0,0,0-1.081.431,1.417,1.417,0,0,0-.433,1.039,2.709,2.709,0,0,0,.587,1.607A4.167,4.167,0,0,0,40.7,51.578a7.011,7.011,0,0,0,2.761.5,7.982,7.982,0,0,0,2.848-.455,3.635,3.635,0,0,0,2.482-3.6,2.692,2.692,0,0,0-.5-1.575Z" transform="translate(-12.748 -39.819)"/></g><path class="a" d="M63.331,33.8a3.366,3.366,0,1,0,3.376,3.364A3.366,3.366,0,0,0,63.331,33.8Z" transform="translate(20.359 11.491)"/><path class="a" d="M95.412,20.925a2.679,2.679,0,0,0-3.788-.044l-7.58,7.409a43.373,43.373,0,1,0,.127,29.8,2.679,2.679,0,1,0-5.04-1.818,38.013,38.013,0,1,1,1.063-22.353,2.679,2.679,0,0,0,4.474,1.25l10.706-10.46A2.679,2.679,0,0,0,95.412,20.925Z" transform="translate(-0.003 0.011)"/><path class="a" d="M36.4,27.512H30.036V21.145a2.679,2.679,0,1,0-5.358,0v6.367H18.31a2.679,2.679,0,1,0,0,5.358h6.368v6.367a2.679,2.679,0,0,0,5.358,0V32.87H36.4a2.679,2.679,0,1,0,0-5.358Z" transform="translate(5.303 6.285)"/><path class="a" d="M51.516,30.708a8.148,8.148,0,0,0-4.355-4.434A7.957,7.957,0,0,0,41.2,26.14l.417-2.364h6.564a3.606,3.606,0,0,0,2.391-.735,2.63,2.63,0,0,0,.951-2.079c0-.86-.335-2.86-3.436-2.86H39.85a3.564,3.564,0,0,0-2.652.912,4.47,4.47,0,0,0-1.081,2.475l-1.311,7.464a8.51,8.51,0,0,0-.186,1.232,2.679,2.679,0,0,0,.912,1.989c1.108,1.034,2.532,1.238,4.431-.2a16.529,16.529,0,0,1,1.554-1.072,3.169,3.169,0,0,1,1.42-.2,2.829,2.829,0,0,1,1.473.383,2.687,2.687,0,0,1,1.029,1.165,4.707,4.707,0,0,1,.425,2.107,5.018,5.018,0,0,1-.4,2.067,3.047,3.047,0,0,1-1.049,1.3A2.935,2.935,0,0,1,41.1,37.6a4.286,4.286,0,0,1-1.35-1.741,3.025,3.025,0,0,0-2.873-2.126,2.8,2.8,0,0,0-2.782,2.7,5.95,5.95,0,0,0,.848,2.813A7.41,7.41,0,0,0,37.773,42a9.828,9.828,0,0,0,5.042,1.169,9.764,9.764,0,0,0,4.9-1.223,8.5,8.5,0,0,0,3.3-3.345A9.464,9.464,0,0,0,52.157,34,8.581,8.581,0,0,0,51.516,30.708Z" transform="translate(11.572 6.158)"/></g></g></svg>