<svg xmlns="http://www.w3.org/2000/svg" width="76" viewBox="0 0 76.469 76.478"><defs><style>.a{fill:#fd5300;}</style></defs><g transform="translate(38.234 38.239)"><g transform="translate(-38.234 -38.239)"><path class="a" d="M73.742,18.458a2.553,2.553,0,0,0-2.553,2.553V65.275C64.542,62.44,50.617,58.8,38.146,70.321,25.678,58.795,11.754,62.44,5.105,65.275V8.581C9.163,6.376,23.779-.071,36.36,13.3c.023.026.046.049.07.073a2.532,2.532,0,0,0,.734.511h0a2.553,2.553,0,0,0,1.071.235h.011a2.553,2.553,0,0,0,1.787-.74l.079-.082c5.81-6.175,12.706-8.879,20.513-8.047A2.552,2.552,0,1,0,61.174.177a28.45,28.45,0,0,0-22.937,7.8C22.393-6.685,4.212,3.166,1.578,4.723A2.553,2.553,0,0,0,0,7.085V69.413a2.542,2.542,0,0,0,.738,1.794,2.481,2.481,0,0,0,.583.442,2.553,2.553,0,0,0,2.622-.091c.725-.467,17.876-11.262,32.33,4.092.022.024.043.046.066.07a2.539,2.539,0,0,0,3.611.011l.075-.077C54.481,60.3,71.63,71.1,72.353,71.562A2.553,2.553,0,0,0,76.3,69.386V21.014a2.553,2.553,0,0,0-2.555-2.555Z" transform="translate(0 0.001)"/><path class="a" d="M24.5,30.677a2.553,2.553,0,1,0-4.167,2.947L31.045,48.771a2.553,2.553,0,0,0,1.981,1.076h.1a2.552,2.552,0,0,0,1.956-.913L70.394,6.758a2.552,2.552,0,1,0-3.913-3.278L33.3,43.118Z" transform="translate(5.479 0.711)"/><path class="a" d="M19.364,18.524a2.462,2.462,0,1,0,2.461,2.462,2.462,2.462,0,0,0-2.461-2.462Z" transform="translate(4.67 5.12)"/></g></g></svg>