<svg xmlns="http://www.w3.org/2000/svg" viewBox="0 0 86.108 101.79"><defs><style>.a{fill:#fd5300;}</style></defs><g transform="translate(0.002)"><path class="a" d="M79.4,32.915a2.786,2.786,0,0,0-3.8-.814,2.67,2.67,0,0,0-.814,3.8,38.444,38.444,0,0,1,5.565,15.744c0,.271-.136.543,0,.814a37.157,37.157,0,0,1-6.65,24.43A37.51,37.51,0,0,1,5.972,62.1a36.779,36.779,0,0,1,6.243-27.958,37.615,37.615,0,0,1,52.252-9.365,1.037,1.037,0,0,0,.679.271,3.758,3.758,0,0,0,1.221.136,1.541,1.541,0,0,0,1.086-.407c.136-.136.407-.271.543-.407l10.722-10.45a2.687,2.687,0,0,0-3.8-3.8l-9.229,8.958A43.18,43.18,0,0,0,7.737,31.015,42.8,42.8,0,0,0,18.459,90.732,42.876,42.876,0,0,0,78.175,80.146,44.575,44.575,0,0,0,85.369,62.5a9.353,9.353,0,0,0,.407-1.086A42.819,42.819,0,0,0,79.4,32.915Z" transform="translate(0 3.322)"/><path class="a" d="M20.912,51.222a2.036,2.036,0,1,0,0,4.072H31.227a2.036,2.036,0,1,0,0-4.072H28.648V37.514A2.722,2.722,0,0,0,25.933,34.8a2.608,2.608,0,0,0-1.629.543A10.933,10.933,0,0,1,20.1,37.107,2.049,2.049,0,0,0,18.6,39.279a2.009,2.009,0,0,0,2.307,1.629,25.947,25.947,0,0,0,2.85-.814V51.358h-2.85Z" transform="translate(6.64 12.431)"/><path class="a" d="M47.444,55.429h0a2.433,2.433,0,0,0,2.443-2.443V37.243A2.433,2.433,0,0,0,47.444,34.8h0A2.433,2.433,0,0,0,45,37.243V42.4H36.586V37.243a2.443,2.443,0,1,0-4.886,0V52.851a2.443,2.443,0,0,0,4.886,0V46.743H45v6.107A2.552,2.552,0,0,0,47.444,55.429Z" transform="translate(11.324 12.431)"/><path class="a" d="M32.286,9.908a4.866,4.866,0,0,0,4.886-4.886A4.983,4.983,0,0,0,32.286,0,4.866,4.866,0,0,0,27.4,4.886,4.983,4.983,0,0,0,32.286,9.908Z" transform="translate(9.788)"/></g></svg>