<svg xmlns="http://www.w3.org/2000/svg" width="103" viewBox="0 0 103.025 75.978"><defs><style>.a{fill:#fd5300;}</style></defs><path class="a" d="M74.256,56.128a3.928,3.928,0,1,0-3.928,3.928A3.9,3.9,0,0,0,74.256,56.128Z" transform="translate(8.119 6.383)"/><path class="a" d="M38.056,56.128a3.928,3.928,0,1,0-3.928,3.928A3.836,3.836,0,0,0,38.056,56.128Z" transform="translate(3.693 6.383)"/><path class="a" d="M102.913,44.891c-4.04-19.977-19.752-26.935-21.1-27.5a.675.675,0,0,0-.449-.112H70.928V15.936A15.925,15.925,0,0,0,54.992,0H10.549A2.251,2.251,0,0,0,8.3,2.245V46.238h-5.5a2.245,2.245,0,0,0,0,4.489h7.744a2.251,2.251,0,0,0,2.245-2.245V4.489h42.2A11.4,11.4,0,0,1,66.439,15.824V39.841a2.245,2.245,0,1,0,4.489,0V21.772h9.539A33.891,33.891,0,0,1,98.536,45.565V57.236a4.457,4.457,0,0,1-4.377,4.377h-5.5a2.641,2.641,0,0,0-.9.224,2.2,2.2,0,0,0-1.908,2.245,7.52,7.52,0,0,1-15.039,0,2.242,2.242,0,0,0-2.469-2.245,2.188,2.188,0,0,0-.9-.112H47.921a2.262,2.262,0,0,0-1.235.337,2.217,2.217,0,0,0-1.347,2.02,7.52,7.52,0,0,1-15.039,0v-.449a2.251,2.251,0,0,0-2.245-2.245H2.245a2.245,2.245,0,0,0,0,4.489H26.037a12.012,12.012,0,0,0,23.68.224H66.663a11.968,11.968,0,0,0,23.568,0h3.928a8.813,8.813,0,0,0,8.866-8.866V45.34C103.025,45.228,102.913,45,102.913,44.891Z"/></svg>