<svg id="sprite-monochrome" width="0" height="0" style="position:absolute"><defs><svg viewBox="0 0 26.9 50" id="arrow" xmlns="http://www.w3.org/2000/svg"><path d="M2.1 50L.4 48.2l23-23L0 1.8 1.8 0l25.1 25.2z"/></svg><svg viewBox="0 0 50 50" id="arrow-on-disk" xmlns="http://www.w3.org/2000/svg"><path d="M25 50c13.8 0 25-11.2 25-25S38.8 0 25 0 0 11.2 0 25s11.2 25 25 25zm-4.1-38.1l13.2 13.2-13.1 13-3.2-3.3 9.8-9.8-10-9.9 3.3-3.2z"/></svg><svg viewBox="0 0 50 50" id="calendar-on-disk" xmlns="http://www.w3.org/2000/svg"><path d="M25 0C11.2 0 0 11.2 0 25s11.2 25 25 25 25-11.2 25-25S38.8 0 25 0zm5 12c0-.6.5-1 1-1 .6 0 1 .5 1 1v3.3c0 .6-.5 1-1 1-.6 0-1-.5-1-1V12zm-12.2 0c0-.6.5-1 1-1 .6 0 1 .5 1 1v3.3c0 .6-.5 1-1 1-.6 0-1-.5-1-1V12zm20.3 23.3c0 2.1-1.7 3.8-3.8 3.8H15.8c-2.1 0-3.8-1.7-3.8-3.8V16.8c0-2.1 1.7-3.8 3.8-3.8h.7v2.2c0 1.3 1.1 2.4 2.4 2.4s2.4-1.1 2.4-2.4V13h7.2v2.2c0 1.3 1.1 2.4 2.4 2.4s2.4-1.1 2.4-2.4V13h.9c2.1 0 3.8 1.7 3.9 3.8v18.5z"/><path d="M13.6 34.3c0 1.8 1.5 3.3 3.3 3.3h16.2c1.8 0 3.2-1.5 3.2-3.3V21.1H13.6v13.2zm16.2-9.8h1.3v9.9h-1.6v-6.5c0-.8 0-1.4.1-1.8l-.4.4c-.2.2-.7.6-1.5 1.3l-.8-1 2.9-2.3zm-11.5 8.2c.4.2.9.4 1.3.5.4.1.9.2 1.4.2.8 0 1.4-.1 1.7-.4s.6-.7.6-1.3c0-.5-.2-.9-.6-1.2s-1.1-.4-2-.4h-.9v-1.3h1c1.6 0 2.4-.6 2.4-1.7 0-.4-.1-.8-.4-1-.3-.2-.7-.3-1.2-.3-.4 0-.7.1-1.1.2-.4.1-.8.3-1.2.6l-.8-1.1c.9-.7 2-1 3.2-1 1 0 1.8.2 2.4.6.4.2.7.8.7 1.6 0 .6-.2 1.2-.6 1.6-.4.4-.9.7-1.6.9v.1c.8.1 1.4.3 1.8.7.4.4.6.9.6 1.6 0 1-.3 1.7-1 2.2s-1.6.8-2.9.8c-1.1 0-2-.2-2.8-.5v-1.4z"/></svg><svg viewBox="0 0 50 50" id="check-on-disk" xmlns="http://www.w3.org/2000/svg"><path d="M25 0C11.2 0 0 11.2 0 25s11.2 25 25 25 25-11.2 25-25S38.8 0 25 0zm-3.5 33l-7.8-7.8 2.3-2.1 5.6 5.6 13-12.8 2.1 2.1-15.2 15z"/></svg><svg viewBox="0 0 34.36 34.36" id="close" xmlns="http://www.w3.org/2000/svg"><path fill="none" stroke="#999" stroke-width="2" stroke-miterlimit="10" d="M.707 33.653L33.653.708m0 32.945L.708.707"/></svg><svg viewBox="0 0 50 41.7" id="compare" xmlns="http://www.w3.org/2000/svg"><path d="M14.2 39.8V5.6c0-1-.8-1.9-2.1-1.9h-10C1 3.8 0 4.6 0 5.6v34.2c0 1 .8 1.9 2.1 1.9h10c1.2 0 2.1-.9 2.1-1.9zm5.8 1.9h10c1 0 2.1-.8 2.1-1.9V1.9c0-1-.8-1.9-2.1-1.9H20c-1 0-2.1.8-2.1 1.9v37.9c.2 1 1.1 1.9 2.1 1.9zm17.9-26.5c-1 0-2.1.8-2.1 1.9v22.7c0 1 .8 1.9 2.1 1.9h10c1 0 2.1-.8 2.1-1.9V17.1c0-1-.8-1.9-2.1-1.9h-10z"/></svg><svg viewBox="0 0 50 50" id="euro-on-disk" xmlns="http://www.w3.org/2000/svg"><path d="M25 0C11.2 0 0 11.2 0 25s11.2 25 25 25 25-11.2 25-25S38.8 0 25 0zm5.1 21.1v3h-7.2v2H29v3.1h-5.9c.6 2.9 2.4 4.2 5.6 4.2 1.6 0 3.3-.3 4.8-1v4.4c-1.6.7-3.3 1.1-5.1 1-2.5.1-5-.7-7-2.3-1.9-1.6-3.1-3.9-3.4-6.4h-2.4V26h2c-.1-.4-.1-.7-.1-1.1V24h-2v-3h2.3c.3-2.6 1.5-4.9 3.4-6.6 2-1.7 4.5-2.5 7-2.4 2.1 0 4.2.5 6.1 1.4l-1.7 4c-.7-.3-1.5-.6-2.2-.8-.7-.2-1.4-.3-2.2-.3-1.3 0-2.5.4-3.5 1.2-1 .9-1.6 2.2-1.8 3.5l7.2.1z"/></svg><svg viewBox="0 0 50 50" id="google-on-disk" xmlns="http://www.w3.org/2000/svg"><path d="M21.6 29.1c-.1-.1-.4-.2-.5-.4-.5-.1-1.1-.2-1.6-.2h-.1c-2.5 0-4.8 1.5-4.8 3.3 0 1.9 1.9 3.4 4.4 3.4 3.2 0 4.9-1.1 4.9-3.3 0-.2 0-.4-.1-.6-.2-.8-.9-1.4-2.2-2.2zm-1.7-6.6c.6 0 1.1-.2 1.5-.7.6-.7.9-1.9.7-3.1-.3-2.2-1.9-4-3.5-4.1h-.1c-.6 0-1.1.2-1.5.7-.6.7-.9 1.8-.7 3 .3 2.3 1.9 4.1 3.6 4.2zM25 0C11.2 0 0 11.2 0 25s11.2 25 25 25 25-11.2 25-25S38.8 0 25 0zm-2.9 37.1c-.9.3-2 .4-3.1.4-1.2 0-2.4-.1-3.4-.4-2.1-.5-3.6-1.5-4.3-2.8-.3-.6-.4-1.1-.4-1.8 0-.6.1-1.3.4-1.9 1.1-2.4 4.1-4.1 7.4-4.1h.1c-.3-.5-.4-1-.4-1.5 0-.3 0-.5.1-.8-3.5-.1-6.1-2.6-6.1-6 0-2.4 1.9-4.7 4.6-5.6.8-.3 1.6-.4 2.4-.4h7.4c.3 0 .5.1.6.4.1.2 0 .5-.2.6l-1.6 1.2c-.1.1-.2.1-.4.1h-.6c.8.9 1.2 2.2 1.2 3.7 0 1.6-.9 3.1-2.4 4.4-1.1.9-1.2 1.1-1.2 1.6 0 .3.8 1.2 1.7 1.9 2.1 1.5 2.9 2.9 2.9 5.3.2 2.7-1.7 4.9-4.7 5.7zm16.8-12.7c0 .4-.3.6-.6.6h-4.2v4.2c0 .4-.3.6-.6.6h-1.2c-.4 0-.6-.3-.6-.6V25h-4.2c-.4 0-.6-.3-.6-.6v-1.2c0-.4.3-.6.6-.6h4.2v-4.2c0-.4.3-.6.6-.6h1.2c.3 0 .6.3.6.6v4.2h4.2c.3 0 .6.3.6.6v1.2z"/></svg><svg viewBox="0 0 50 35" id="logo-boulanger" xmlns="http://www.w3.org/2000/svg"><path d="M32.6 0h-15C7.9 0 0 7.9 0 17.5S7.8 35 17.4 35h15.1C42.2 35 50 27.2 50 17.5S42.3 0 32.6 0m-3.2 30.1h-6.5c-6.2 0-11.3-5.1-11.3-11.3V10c0-4.4 2.4-8.1 6-10v7.5h11.8c6.2.1 11.2 5.1 11.2 11.3-.1 6.2-5.1 11.2-11.2 11.3"/><path d="M29.1 13.4H17.5v5.3c0 2.9 2.4 5.3 5.3 5.3h6.3c2.9 0 5.3-2.4 5.3-5.3s-2.2-5.3-5.3-5.3"/></svg><svg viewBox="0 0 364.6 50" id="logo-boulanger-full" xmlns="http://www.w3.org/2000/svg"><path d="M178.9 34.7h-10.3c-3.4 0-6.2-2.7-6.2-6.2v-13h-7.2v13c0 7.9 5.2 13 13 13H186v-26h-7.2v19.2zm-78.2-19.2H89.5V6.9h-7.2v22.3c0 6.7 5.9 12.3 12.8 12.3h5.6c7.2 0 13-5.9 13-13s-5.8-13-13-13zm-.3 19h-4.6c-4 0-6.2-2.6-6.2-6v-6.2h10.7c3.4 0 6.2 2.9 6.2 6.2s-2.8 6-6.1 6zm37.4-19h-7.3c-7.2 0-13 5.9-13 13s5.9 13 13 13h7.3c7.2 0 13-5.9 13-13s-5.8-13-13-13zm-.6 19.2h-6.3c-3.4 0-6.2-2.9-6.2-6.2s2.7-6.2 6.2-6.2h6.3c3.4 0 6.2 2.7 6.2 6.2 0 3.3-2.7 6.2-6.2 6.2zm55.5-27.8h7.2v34.7h-7.2zm134.8 8.6h-4.3c-7.7 0-12.9 5.9-12.9 13 0 7.9 5.4 13 13.3 13h16v-6.7h-15.8c-3.3 0-5.3-1.3-6.2-3.6h21.9v-4.3c.2-7-5-11.4-12-11.4zm-9.7 9.9c.9-2.3 2.7-3.7 5.4-3.6h4.3c3.6 0 5.2 1.6 5.2 3.6h-14.9zm39.6-9.9c-7.9 0-13 5.2-13 13v13h7.2v-13c0-3.4 2.7-6.2 6.2-6.2h6.9v-6.9h-7.3zm-100 0h-17.8v25.9h7.2V22.2h10.3c3.4 0 6.2 2.7 6.2 6.2v13h7.2v-13c0-7.2-5.9-12.9-13.1-12.9zm17.4 11.6c0 7.3 5.9 11.7 13.2 11.6h11v2.4c0 1.4-1 2.3-2.4 2.3h-13.9V50h13.6c6.4 0 9.9-3.2 9.9-8.9V15.3h-18.3c-7.2 0-13.1 4.6-13.1 11.8zm24.1-4.9v9.7h-10.2c-3.4 0-6.2-1.4-6.2-4.9 0-3.4 2.7-4.9 6.2-4.9h10.2zM204 28.4c0 7.2 5.9 13 13 13h17.2V15.3H217c-7.1 0-13 5.9-13 13.1zm23.1-6.1v12.2h-9.5c-3.4 0-6.2-2.7-6.2-6 0-3.4 2.7-6.2 6.2-6.2h9.5zM45 0H24.2C10.9 0 0 10.9 0 24.2s10.7 24.1 24.1 24.1H45c13.3 0 24.1-10.7 24.1-24.1S58.5 0 45 0m-4.5 41.5h-9c-8.6 0-15.6-7-15.6-15.6V13.8c0-6 3.3-11.2 8.3-13.8v10.3h16.3c8.6.1 15.5 7 15.5 15.6-.1 8.6-7 15.5-15.5 15.6"/><path d="M40.3 18.5h-16v7.3c0 4 3.3 7.3 7.3 7.3h8.7c4 0 7.3-3.3 7.3-7.3s-3.2-7.3-7.3-7.3"/></svg><svg viewBox="0 0 50 50" id="pinterest-on-disk" xmlns="http://www.w3.org/2000/svg"><path d="M25 0C11.2 0 0 11.2 0 25s11.2 25 25 25 25-11.2 25-25S38.8 0 25 0zm2.3 32.6c-1.9 0-3.6-1-4.2-2.2l-1.2 4.8c-.4 1.3-1.1 2.6-1.6 3.6-.9 1.2-1.9.3-2.1-.8-.1-1.2 0-2.6.3-3.9.4-1.4 2.2-9.5 2.2-9.5s-.6-1.1-.6-2.8c0-2.6 1.5-4.5 3.3-4.5 1.6.1 2.4 1.3 2.4 2.7 0 1.6-1 4-1.5 6.2-.4 1.9.9 3.4 2.7 3.4 3.2 0 5.4-4.3 5.4-9.3 0-3.9-2.5-6.7-7.1-6.7-5.2 0-8.4 3.9-8.4 8.4 0 1.5.4 2.6 1.1 3.4.3.4.4.6.2 1-.1.4-.3 1.1-.4 1.4-.1.4-.5.6-.9.4-2.4-1-3.5-3.6-3.5-6.6 0-5 4.1-10.9 12.2-10.9 6.6 0 10.9 4.9 10.9 10 .1 6.7-3.7 11.9-9.2 11.9z"/></svg><svg viewBox="0 0 50 50" id="questionmark-on-disk" xmlns="http://www.w3.org/2000/svg"><path d="M25 0C11.2 0 0 11.2 0 25s11.2 25 25 25 25-11.2 25-25S38.8 0 25 0zm.5 36.8c-.2 1-.8 1.8-1.7 2.3-.9.4-2 .5-3 .2-1-.2-1.9-.8-2.6-1.6-.6-.9-.7-1.9-.3-2.9.2-1 .8-1.8 1.7-2.3 1-.4 2.1-.5 3.1-.1 1 .2 1.9.8 2.5 1.7.5.7.6 1.8.3 2.7zM36.1 21c-.3 1.4-1 2.6-2 3.6-1.2 1-2.6 1.7-4.1 2.2-1 .3-2 .7-2.9 1.2-.4.3-.7.7-.8 1.2l-.2.9-5.6-1.5.4-1.6c.2-1.1.8-2 1.5-2.8.9-.8 2-1.4 3.2-1.7.9-.2 1.8-.6 2.6-1.1.5-.4.9-.9 1.1-1.5.2-.5 0-1.1-.4-1.4-.5-.5-1-.8-1.7-.9-2.3-.5-4.7-.4-6.9.2L19 12.2c3.3-.9 6.8-.9 10.1-.1 2.3.5 4.4 1.7 5.9 3.5 1.3 1.5 1.6 3.6 1.1 5.4z"/></svg><svg viewBox="0 0 43.5 50" id="share" xmlns="http://www.w3.org/2000/svg"><path d="M36.1 35.2c-1.7 0-3 .7-4.3 1.5l-17-10.4c0-.4.2-.9.2-1.1 0-.4 0-.9-.2-1.1l17-10.4c1.3.9 2.8 1.5 4.3 1.5 4.1 0 7.4-3.3 7.4-7.6 0-4.1-3.3-7.6-7.4-7.6s-7.4 3.3-7.4 7.6c0 .4 0 .9.2 1.1L11.7 18.9c-1.3-.9-2.8-1.5-4.3-1.5C3.3 17.4 0 20.9 0 25s3.3 7.4 7.4 7.4c1.7 0 3-.7 4.3-1.5l17 10.4c0 .4-.2.9-.2 1.1 0 4.1 3.3 7.6 7.4 7.6s7.4-3.3 7.4-7.6c.4-3.9-3.1-7.2-7.2-7.2z"/></svg><svg viewBox="0 0 50 50" id="twitter-on-disk" xmlns="http://www.w3.org/2000/svg"><path d="M25 0C11.2 0 0 11.2 0 25s11.2 25 25 25 25-11.2 25-25S38.8 0 25 0zm11.9 18.9v.8c0 8.1-6.2 17.4-17.4 17.4-3.5 0-6.7-1-9.4-2.7.5.1 1 .1 1.5.1 2.8 0 5.5-1 7.6-2.6-2.6-.1-4.9-1.8-5.7-4.3.4.1.7.1 1.2.1s1.1-.1 1.6-.2c-2.8-.5-4.9-3-4.9-6v-.1c.8.5 1.7.7 2.7.7-1.6-1.1-2.7-3-2.7-5.1 0-1.1.3-2.2.8-3.1 3 3.7 7.6 6.1 12.6 6.4-.1-.5-.2-.9-.2-1.4 0-3.4 2.7-6.1 6.1-6.1 1.7 0 3.4.7 4.5 1.9 1.4-.3 2.7-.8 3.9-1.5-.5 1.5-1.5 2.6-2.7 3.4 1.3-.2 2.5-.5 3.6-1-.9 1.4-2 2.5-3.1 3.3z"/></svg></defs></svg>