<svg xmlns="http://www.w3.org/2000/svg" viewBox="0 0 36.19 24.245"><defs><style>.a{fill:#fff;}</style></defs><g transform="translate(-0.017 -0.007)"><path class="a" d="M112.81,19.547a2.492,2.492,0,0,1-.3-1.627,2.073,2.073,0,0,1,.63-1.155,1.8,1.8,0,0,1,1.225-.42,2.782,2.782,0,0,1,1.557.56,7.9,7.9,0,0,0,2.747,2.257,9.032,9.032,0,0,0,3.394.962l1.05-.3c.262-.21.455-.332.56-.4a1.488,1.488,0,0,0,.227-.175,1.419,1.419,0,0,0,.192-.227c.087-.1.227-.28.42-.56a1.914,1.914,0,0,0,.157-.4,3.559,3.559,0,0,1,.157-.455,3.659,3.659,0,0,1,.018-.455,3.662,3.662,0,0,0,.017-.455l-.3-.91c-.1-.14-.21-.262-.332-.4s-.227-.262-.332-.4a8.984,8.984,0,0,0-2.519-1.155c-.84-.227-1.644-.472-2.432-.735a13.253,13.253,0,0,1-2.309-.98,6.512,6.512,0,0,1-2.134-1.959,4.809,4.809,0,0,1-1.032-2.8,7.25,7.25,0,0,1,.507-3.044A7.524,7.524,0,0,1,115.7,1.72,5.1,5.1,0,0,1,118.286.286a10.47,10.47,0,0,1,4.3-.1,14.347,14.347,0,0,1,4.094,1.4,2.354,2.354,0,0,1,1.05,1.487,1.964,1.964,0,0,1-.227,1.435,2.034,2.034,0,0,1-1.155.857,2.311,2.311,0,0,1-1.784-.245,7.773,7.773,0,0,0-2.537-.857,8.7,8.7,0,0,0-2.694,0,1.16,1.16,0,0,1-.332.157,1.16,1.16,0,0,0-.332.157,4.606,4.606,0,0,0-.8,1.19,3.012,3.012,0,0,0-.192,1.435,3.918,3.918,0,0,0,.245.595,3.1,3.1,0,0,0,.3.35,3.1,3.1,0,0,1,.3.35,11.374,11.374,0,0,0,2.642,1.032c.962.245,1.889.542,2.8.857a10.608,10.608,0,0,1,2.519,1.26,5,5,0,0,1,1.8,2.292,7.3,7.3,0,0,1,.385,5.283,8.005,8.005,0,0,1-3.341,4.076,8.548,8.548,0,0,1-1.452.682,4.447,4.447,0,0,1-1.5.28,12.434,12.434,0,0,1-5.336-1.225A11.294,11.294,0,0,1,112.81,19.547Z" transform="translate(-92.784 0)"/><path class="a" d="M8.848,26.666H8.813a1.833,1.833,0,0,1-1.7-1.225l-7-19.978a1.854,1.854,0,0,1,1.12-2.344,1.847,1.847,0,0,1,2.344,1.12L8.918,19.493,14.831,4.2a1.839,1.839,0,1,1,3.429,1.33l-7.7,19.961A1.861,1.861,0,0,1,8.848,26.666Z" transform="translate(0 -2.483)"/></g></svg>