<svg xmlns="http://www.w3.org/2000/svg" viewBox="0 0 42.835 36.128"><defs><style>.a{fill:#fff;}</style></defs><g transform="translate(0.012)"><g transform="translate(-0.012)"><path class="a" d="M21.406,22.846h-.083a11.339,11.339,0,0,1-11.157-11.37V6.4A3.89,3.89,0,0,0,3.519,3.625,3.59,3.59,0,0,0,2.469,6.234,3.7,3.7,0,0,0,6.152,9.847a1.24,1.24,0,1,1,0,2.479A6.169,6.169,0,0,1-.011,6.281,6.049,6.049,0,0,1,1.749,1.889,6.337,6.337,0,0,1,6.247,0a6.4,6.4,0,0,1,6.4,6.4v5.089a8.848,8.848,0,0,0,8.69,8.89,8.748,8.748,0,0,0,8.819-8.76V3.495a.944.944,0,0,0-.3-.7.98.98,0,0,0-.708-.283l-12.479.13H16.66A1.24,1.24,0,0,1,16.648.165L29.128.035h.035a3.41,3.41,0,0,1,2.432,1,3.466,3.466,0,0,1,1.027,2.468v8.111A11.206,11.206,0,0,1,21.406,22.846Z" transform="translate(0.012)"/><path class="a" d="M301.34,15.126a1.24,1.24,0,1,1,0-2.479,3.684,3.684,0,1,0,0-7.367,1.24,1.24,0,1,1,0-2.479,6.163,6.163,0,0,1,0,12.326Z" transform="translate(-264.667 -2.469)"/></g><path class="a" d="M141.286,228.654h-5.974a2.779,2.779,0,0,1-2.361-4.25l2.987-4.793h0a2.783,2.783,0,0,1,4.723,0l2.987,4.793a2.779,2.779,0,0,1-2.361,4.25Zm-2.987-7.9a.284.284,0,0,0-.26.142h0l-2.987,4.805a.3.3,0,0,0,.26.46h5.974a.3.3,0,0,0,.272-.153.289.289,0,0,0-.012-.307l-2.987-4.793A.312.312,0,0,0,138.3,220.756Zm-1.311-.508Z" transform="translate(-116.892 -192.526)"/></g></svg>