<svg version="1.1" xmlns="http://www.w3.org/2000/svg" xmlns:xlink="http://www.w3.org/1999/xlink" xmlns:a="http://ns.adobe.com/AdobeSVGViewerExtensions/3.0/"
		x="0px" y="0px" width="35.8px" height="29.2px" viewBox="0 0 35.8 29.2" style="enable-background:new 0 0 35.8 29.2;"
		xml:space="preserve">
		<defs></defs>
		<path id="iconTwitter" class="st0" d="M35.8,3.4c-1.3,0.6-2.8,1-4.2,1.2c1.5-0.9,2.7-2.4,3.3-4.1c-1.4,0.9-3,1.5-4.7,1.8
						c-2.8-3-7.4-3.1-10.4-0.3c-1.5,1.4-2.3,3.3-2.3,5.4c0,0.6,0.1,1.1,0.2,1.7C11.8,8.8,6.3,6,2.5,1.4c-2,3.4-1,7.7,2.3,9.8
						c-1.2,0-2.3-0.4-3.3-0.9v0.1c0,3.5,2.5,6.5,5.9,7.2c-1.1,0.3-2.2,0.3-3.3,0.1c1,3,3.7,5.1,6.9,5.1C8.4,24.9,5.2,26,1.8,26
						c-0.6,0-1.2,0-1.8-0.1c3.4,2.2,7.3,3.3,11.3,3.3c13.6,0,21-11.2,21-21c0-0.3,0-0.6,0-0.9C33.6,6.1,34.8,4.9,35.8,3.4"
		/>
</svg>