<svg xmlns="http://www.w3.org/2000/svg" viewBox="0 0 172 164.2" enable-background="new 0 0 172 164.2"><style type="text/css">.st0{fill:#FD5300;} .st1{fill:#FFFFFF;}</style><path d="M0 0h97.5C138.6 0 172 33.4 172 74.5v15.2c0 41.1-33.4 74.5-74.5 74.5h-23C33.4 164.2 0 130.8 0 89.7V0z" class="st0"/><path d="M91.8 47.75c0 1.3 1.1 2.4 2.4 2.4 1.3 0 2.4-1.1 2.4-2.4 0-1.3-1.1-2.4-2.4-2.4-1.3.1-2.4 1.1-2.4 2.4zM120.3 73.15c0-1.6-.7-3.2-1.9-4.3l-3-2.7v-16.4c0-1.9-1.6-3.5-3.5-3.5h-9.8c-1.9 0-3.5 1.6-3.5 3.5v5c0 1.3 1 2.4 2.3 2.4 1.3 0 2.4-1 2.4-2.3 0 0 0-.1 0-.1v-3.8h7.4v16.3c0 .7.3 1.3.8 1.8l3.8 3.4c.2.2.3.5.3.8l.1 30.4c0 5.7-4.6 10.3-10.3 10.3l-38-.1c-5.7 0-10.3-4.6-10.3-10.3v-30.5c0-.3.1-.5.3-.7l28.2-28.2c.4-.4 1.1-.4 1.5 0l1.6 1.6c.9.9 2.4.9 3.3 0 .9-.9.9-2.4 0-3.3l-1.6-1.6c-2.3-2.2-5.9-2.2-8.2 0l-28.3 28.1c-1.1 1.1-1.7 2.5-1.7 4.1v30.5c0 8.3 6.8 15 15 15l38 .1c8.3 0 15-6.7 15-15l.1-30.5z" class="st1"/></svg>