<svg xmlns="http://www.w3.org/2000/svg" xmlns:xlink="http://www.w3.org/1999/xlink" viewBox="0 0 123.601 36.623"><defs><style>.a{fill:#030404;}.b,.g{fill:#fff;}.c{fill:#40bff2;}.d{fill:url(#a);}.e{fill:url(#b);}.f{fill:url(#c);}.g{stroke:#fff;stroke-miterlimit:10;stroke-width:0.733px;}</style><linearGradient id="a" x1="0.807" y1="0.5" x2="-1.572" y2="0.5" gradientUnits="objectBoundingBox"><stop offset="0" stop-color="gold"/><stop offset="0.075" stop-color="#fecf01"/><stop offset="0.48" stop-color="#fca705"/><stop offset="0.803" stop-color="#fb8f07"/><stop offset="1" stop-color="#fa8608"/></linearGradient><linearGradient id="b" x1="0.862" y1="0.178" x2="-0.501" y2="1.947" gradientUnits="objectBoundingBox"><stop offset="0" stop-color="#e82b36"/><stop offset="1" stop-color="#b4005a"/></linearGradient><linearGradient id="c" x1="-0.507" y1="-0.955" x2="0.606" y2="0.489" gradientUnits="objectBoundingBox"><stop offset="0" stop-color="#2f8e5b"/><stop offset="0.39" stop-color="#4fa257"/><stop offset="0.768" stop-color="#67b054"/><stop offset="1" stop-color="#70b653"/></linearGradient></defs><g transform="translate(0 0)"><g transform="translate(0 0)"><rect class="a" width="123.601" height="36.622" rx="6"/><path class="b" d="M65.856,21.355a3.894,3.894,0,1,0,3.909,3.889,3.838,3.838,0,0,0-3.909-3.889Zm0,6.254a2.366,2.366,0,1,1,2.2-2.365,2.253,2.253,0,0,1-2.2,2.364ZM57.33,21.355a3.894,3.894,0,1,0,3.909,3.889,3.838,3.838,0,0,0-3.909-3.889Zm0,6.254a2.366,2.366,0,1,1,2.2-2.365,2.253,2.253,0,0,1-2.2,2.364ZM47.186,22.55V24.2H51.14a3.448,3.448,0,0,1-.9,2.08,4.047,4.047,0,0,1-3.053,1.209,4.395,4.395,0,1,1,0-8.789,4.212,4.212,0,0,1,2.981,1.182l1.166-1.166a5.763,5.763,0,0,0-4.145-1.666,6.048,6.048,0,1,0,0,12.1,5.529,5.529,0,0,0,4.219-1.7,5.459,5.459,0,0,0,1.431-3.865,5.376,5.376,0,0,0-.092-1.033Zm41.482,1.282a3.619,3.619,0,0,0-3.334-2.478,3.7,3.7,0,0,0-3.672,3.89,3.811,3.811,0,0,0,3.865,3.894,3.874,3.874,0,0,0,3.245-1.726l-1.328-.885A2.224,2.224,0,0,1,85.527,27.6a1.981,1.981,0,0,1-1.888-1.18l5.207-2.153Zm-5.31,1.3a2.136,2.136,0,0,1,2.035-2.272,1.508,1.508,0,0,1,1.446.824Zm-4.234,3.777h1.714V17.462H79.125Zm-2.8-6.684h-.061a2.7,2.7,0,0,0-2.05-.87,3.9,3.9,0,0,0,0,7.788,2.655,2.655,0,0,0,2.05-.885h.059v.559c0,1.49-.8,2.289-2.08,2.289a2.154,2.154,0,0,1-1.962-1.386l-1.49.62a3.711,3.711,0,0,0,3.452,2.3c2.006,0,3.7-1.18,3.7-4.056V21.59h-1.62ZM74.36,27.606a2.369,2.369,0,0,1,0-4.72,2.2,2.2,0,0,1,2.084,2.377,2.176,2.176,0,0,1-2.083,2.345ZM96.683,17.462H92.59V28.906H94.3V24.57h2.385a3.56,3.56,0,1,0,0-7.109Zm.044,5.516H94.3V19.054h2.43a1.962,1.962,0,1,1,0,3.924Zm10.558-1.648a3.2,3.2,0,0,0-3.048,1.752l1.517.634a1.619,1.619,0,0,1,1.556-.84,1.648,1.648,0,0,1,1.8,1.472v.118a3.78,3.78,0,0,0-1.782-.441c-1.634,0-3.3.9-3.3,2.577a2.644,2.644,0,0,0,2.838,2.518A2.41,2.41,0,0,0,109.047,28h.059v.884h1.648V24.5c.006-2.033-1.51-3.166-3.468-3.166ZM107.08,27.6c-.559,0-1.34-.279-1.34-.971,0-.884.971-1.222,1.811-1.222a3.043,3.043,0,0,1,1.556.383,2.071,2.071,0,0,1-2.027,1.815Zm9.688-6.021-1.958,4.962h-.059l-2.033-4.962h-1.84l3.048,6.935-1.74,3.858h1.782l4.7-10.794ZM101.38,28.906h1.707V17.462h-1.708Z" transform="translate(-3.474 -1.439)"/><g transform="translate(9.128 6.539)"><path class="c" d="M10.4,7.541a1.831,1.831,0,0,0-.423,1.282V29.057a1.831,1.831,0,0,0,.423,1.282l.068.066L21.8,19.076v-.267L10.463,7.475Z" transform="translate(-9.97 -7.17)"/><path class="d" d="M26.665,23.552l-3.778-3.779v-.267l3.779-3.779.085.049,4.48,2.543c1.282.726,1.282,1.915,0,2.641L26.752,23.5Z" transform="translate(-11.06 -7.867)"/><path class="e" d="M25.7,23.864,21.836,20l-11.4,11.4a1.488,1.488,0,0,0,1.9.056L25.7,23.865" transform="translate(-10.009 -8.228)"/><path class="f" d="M25.7,15.051,12.333,7.458a1.488,1.488,0,0,0-1.9.056l11.4,11.4Z" transform="translate(-10.009 -7.142)"/></g><g transform="translate(37.793 6.28)"><path class="g" d="M41.278,12.493V7h1.68a2.731,2.731,0,0,1,2.026.764,2.69,2.69,0,0,1,.759,1.983,2.691,2.691,0,0,1-.759,1.983,2.731,2.731,0,0,1-2.026.764Zm.7-.675h.974a2.061,2.061,0,0,0,1.507-.549,2.039,2.039,0,0,0,.558-1.523,2.043,2.043,0,0,0-.556-1.523,2.055,2.055,0,0,0-1.507-.549h-.975Z" transform="translate(-41.278 -6.871)"/><path class="g" d="M47.237,12.493V7h.7v5.493Z" transform="translate(-41.781 -6.871)"/><path class="g" d="M50.9,12.6a2.048,2.048,0,0,1-1.169-.391,1.809,1.809,0,0,1-.748-1.1l.641-.261a1.471,1.471,0,0,0,.472.763,1.19,1.19,0,0,0,.8.31,1.282,1.282,0,0,0,.786-.242.774.774,0,0,0,.325-.656.84.84,0,0,0-.325-.71,3.375,3.375,0,0,0-1.032-.464,2.753,2.753,0,0,1-1.1-.592,1.242,1.242,0,0,1-.376-.932A1.363,1.363,0,0,1,49.639,7.3a1.716,1.716,0,0,1,1.22-.438,1.766,1.766,0,0,1,1.135.349,1.615,1.615,0,0,1,.568.764l-.641.268a.955.955,0,0,0-.342-.483,1.2,1.2,0,0,0-1.4,0,.69.69,0,0,0-.287.564.641.641,0,0,0,.265.518,2.543,2.543,0,0,0,.779.38,6.616,6.616,0,0,1,.679.254,3.093,3.093,0,0,1,.549.326,1.3,1.3,0,0,1,.422.506,1.636,1.636,0,0,1,.142.7,1.513,1.513,0,0,1-.165.713,1.34,1.34,0,0,1-.439.5,2.171,2.171,0,0,1-.587.28,2.2,2.2,0,0,1-.645.1Z" transform="translate(-41.928 -6.859)"/><path class="g" d="M54.889,12.493h-.7V7h1.872a1.74,1.74,0,0,1,1.208.464,1.6,1.6,0,0,1,0,2.34,1.734,1.734,0,0,1-1.208.464H54.889Zm0-2.9h1.182a.916.916,0,0,0,.713-.3.946.946,0,0,0,0-1.319.91.91,0,0,0-.713-.3H54.889Z" transform="translate(-42.368 -6.871)"/><path class="g" d="M63.537,11.772a2.853,2.853,0,0,1-4.028,0A2.808,2.808,0,0,1,58.7,9.735,2.808,2.808,0,0,1,59.509,7.7a2.838,2.838,0,0,1,4.028,0,2.809,2.809,0,0,1,.808,2.037,2.812,2.812,0,0,1-.809,2.037Zm-3.507-.458a2.112,2.112,0,0,0,2.985,0,2.15,2.15,0,0,0,.611-1.579,2.15,2.15,0,0,0-.611-1.577,2.112,2.112,0,0,0-2.985,0,2.153,2.153,0,0,0-.61,1.577,2.153,2.153,0,0,0,.61,1.577Z" transform="translate(-42.749 -6.859)"/><path class="g" d="M65.949,12.493V7h.859l2.667,4.274h.03l-.03-1.059V7h.707v5.493h-.732L66.655,8.013h-.03l.03,1.058v3.422Z" transform="translate(-43.361 -6.871)"/><path class="g" d="M71.949,12.493V7h.7v5.493Z" transform="translate(-43.868 -6.871)"/><path class="g" d="M74.094,12.493V7h1.987a1.614,1.614,0,0,1,1.117.426A1.382,1.382,0,0,1,77.67,8.5a1.2,1.2,0,0,1-.2.69,1.275,1.275,0,0,1-.541.453v.03a1.4,1.4,0,0,1,.668.476,1.248,1.248,0,0,1,.261.783,1.442,1.442,0,0,1-.5,1.12,1.692,1.692,0,0,1-1.171.445Zm.7-3.139h1.282a.846.846,0,0,0,.648-1.419.787.787,0,0,0-.617-.261H74.8Zm0,2.463h1.42a.842.842,0,0,0,.66-.285.915.915,0,0,0,.253-.622.925.925,0,0,0-.944-.9H74.8Z" transform="translate(-44.049 -6.871)"/><path class="g" d="M79.239,12.493V7h.7v4.819h2.38v.675Z" transform="translate(-44.483 -6.871)"/><path class="g" d="M86.787,7.675h-2.5v1.74h2.256v.66H84.285v1.74h2.5v.679h-3.2V7h3.2Z" transform="translate(-44.85 -6.871)"/><path class="g" d="M91.565,12.6a2.048,2.048,0,0,1-1.169-.391,1.809,1.809,0,0,1-.748-1.1l.641-.261a1.47,1.47,0,0,0,.471.763,1.19,1.19,0,0,0,.8.31,1.282,1.282,0,0,0,.786-.242.774.774,0,0,0,.325-.656.84.84,0,0,0-.325-.71,3.375,3.375,0,0,0-1.032-.464,2.753,2.753,0,0,1-1.105-.594,1.242,1.242,0,0,1-.376-.932A1.363,1.363,0,0,1,90.3,7.3a1.715,1.715,0,0,1,1.222-.436,1.765,1.765,0,0,1,1.135.349,1.615,1.615,0,0,1,.568.764l-.641.268a.955.955,0,0,0-.342-.483,1.2,1.2,0,0,0-1.4,0,.69.69,0,0,0-.288.564.641.641,0,0,0,.265.518,2.543,2.543,0,0,0,.779.38,6.625,6.625,0,0,1,.679.254,3.092,3.092,0,0,1,.549.326,1.3,1.3,0,0,1,.422.506,1.634,1.634,0,0,1,.142.7,1.513,1.513,0,0,1-.165.713,1.34,1.34,0,0,1-.438.5,2.171,2.171,0,0,1-.587.28,2.2,2.2,0,0,1-.645.1Z" transform="translate(-45.362 -6.859)"/><path class="g" d="M96.749,12.616a1.928,1.928,0,0,1-1.469-.6,2.191,2.191,0,0,1-.563-1.566V7h.7v3.479a1.575,1.575,0,0,0,.341,1.055,1.408,1.408,0,0,0,1.971,0,1.576,1.576,0,0,0,.342-1.055V7h.706v3.453a2.221,2.221,0,0,1-.549,1.568A1.923,1.923,0,0,1,96.749,12.616Z" transform="translate(-45.79 -6.871)"/><path class="g" d="M100.4,12.493V7h1.872a1.74,1.74,0,0,1,1.208.464,1.58,1.58,0,0,1,.134,2.187,1.629,1.629,0,0,1-.936.556l-.016.023,1.543,2.233v.03h-.836l-1.48-2.225h-.783v2.225Zm.7-2.885h1.135a1.039,1.039,0,0,0,.725-.275.9.9,0,0,0,.3-.7.967.967,0,0,0-.268-.66.91.91,0,0,0-.713-.3H101.1Z" transform="translate(-46.27 -6.871)"/></g></g></g></svg>