<svg xmlns="http://www.w3.org/2000/svg" viewBox="0 0 115.59 110.468"><defs><style>.cls-1 { fill: #59b224; }</style></defs><g id="enki"><g id="Groupe_890"><g id="Groupe_888"><path id="Tracé_213" d="M24.92 110.45h5.76v-1.94h-3.6v-6.56h-2.15z"/><path id="Tracé_214" d="M33.9 103.67v1.45h3v1.73h-3v1.85h3.7v1.73h-5.85v-8.5h5.87v1.73z"/><path id="Tracé_215" d="M46.3 110.4l-2.07-3.7a2.56 2.56 0 0 0 1.68-2.48 2.4 2.4 0 0 0-2.52-2.3h-4.3l-.02 8.5h2.16v-6.9h1.4a1.1 1.1 0 0 1 1.12 1.1 1.1 1.1 0 0 1-1.12 1.08h-1.27l2.63 4.7z"/><path id="Tracé_216" d="M51.02 101.7a4.38 4.38 0 1 1-4.3 4.4 4.1 4.1 0 0 1 4.3-4.4m0 1.7c-1.34 0-1.94 1.05-1.94 2.7s.6 2.68 1.94 2.68 1.94-1.05 1.94-2.7-.6-2.68-1.93-2.68"/><path id="Tracé_217" d="M58.88 105.08l1.6-3.2h2.53l-3.06 5.17v3.33h-2.16v-3.3l-2.7-5.2h2.4l1.38 3.17z"/><path id="Tracé_218" d="M104.95 110.4l-.02-8.5h-2.27l.02 8.5z"/><path id="Tracé_219" d="M72.5 110.34l1.72-4.88v4.9h1.97l-.02-8.5-2.7-.02-1.63 4.76-1.57-4.76H67.5v8.5h1.98v-4.9l1.73 4.9z"/><path id="Tracé_220" d="M80.46 103.6v1.44h3.26v1.74h-3.26v1.84h3.97v1.74H78.3l-.02-8.5h6.13v1.74z"/><path id="Tracé_221" d="M95.28 110.4h5.77v-1.93h-3.6l-.03-6.58h-2.15z"/><path id="Tracé_222" d="M109.84 101.9l3.15 5.88-.02-5.87H115l.02 8.5h-2.67l-3.5-5.8.02 5.8h-1.96v-8.5z"/><path id="Tracé_223" d="M93.84 110.4l-2.08-3.73a2.54 2.54 0 0 0 1.68-2.48 2.43 2.43 0 0 0-2.53-2.32h-4.57l.02 8.5h2.15v-6.9h1.65a1.08 1.08 0 1 1 0 2.17H88.6l2.92 4.72z"/></g><g id="Groupe_889"><path id="Tracé_224" d="M1.03 110.47h17.5L9.8 101.7z" class="cls-1"/><path id="Tracé_225" d="M92.16 39.8H24.3a2.82 2.82 0 0 1-2-4.8l2.47-2.48L55.2 2.08 56.64.66a2.25 2.25 0 0 1 3.2 0l1.4 1.42L91.7 32.52 94.15 35a2.82 2.82 0 0 1-2 4.8m-33.2-34v16.65l28.4 11.77zm-29.3 29.74H86.8L58.24 23.7zM58.23 5.1zM29.1 34.22l28.42-11.77V5.8z" class="cls-1"/><path id="Tracé_226" d="M109.43 53.57a3.08 3.08 0 1 1 3.08 3.1 3.08 3.08 0 0 1-3.07-3.1" class="cls-1"/><path id="Tracé_227" d="M30.3 77.78a17.74 17.74 0 0 0-4.1-11.47 14.03 14.03 0 0 0-10.73-4.76C6.8 61.54 0 68.58 0 77.57S6.8 93.6 15.47 93.6a19.7 19.7 0 0 0 5.43-.83 12.36 12.36 0 0 0 4-2.03 11.27 11.27 0 0 0 3.14-3.56 3.35 3.35 0 0 0 .4-1.3 1.32 1.32 0 0 0-.17-.74 1.78 1.78 0 0 0-.45-.48 2.55 2.55 0 0 0-.45-.28 4.88 4.88 0 0 0-.44-.2c-.25-.1-.37-.15-.67-.25a3.75 3.75 0 0 0-.83-.2 1.6 1.6 0 0 0-.62.05 1.3 1.3 0 0 0-.65.36 3.03 3.03 0 0 0-.44.57c-.13.23-.4.57-.55.78a6.47 6.47 0 0 1-.57.67c-.07.06-.13.13-.2.2a7.78 7.78 0 0 1-1.37 1 9.32 9.32 0 0 1-1.65.77 10.97 10.97 0 0 1-1.9.47 12.75 12.75 0 0 1-1.98.15 10.46 10.46 0 0 1-10.2-8.46.33.33 0 0 1 .3-.42h22.9a1.83 1.83 0 0 0 1.82-1.83zm-5.95-2.76H5.9a.55.55 0 0 1-.52-.7 10.33 10.33 0 0 1 10.1-7.92c4.68 0 8.24 3.1 9.4 7.94a.55.55 0 0 1-.53.68" class="cls-1"/><path id="Tracé_228" d="M87.67 76.07a.67.67 0 0 1 .02-.98l10.7-9.52a1.83 1.83 0 0 0-1.23-3.2h-1.2a3.33 3.33 0 0 0-2.2.82l-14.5 12.74a.33.33 0 0 1-.55-.25V52.85a1.83 1.83 0 0 0-1.83-1.83h-1.26a1.83 1.83 0 0 0-1.83 1.83v38.08a1.83 1.83 0 0 0 1.84 1.83h1.25a1.83 1.83 0 0 0 1.82-1.83v-7.66a.67.67 0 0 1 .23-.5l3.98-3.53a.67.67 0 0 1 .92.03L97 92.25a1.83 1.83 0 0 0 1.3.53h1.78a1.83 1.83 0 0 0 1.3-3.14z" class="cls-1"/><path id="Tracé_229" d="M113.13 62.37h-1.24a1.83 1.83 0 0 0-1.85 1.84v26.74a1.83 1.83 0 0 0 1.84 1.83h1.23a1.83 1.83 0 0 0 1.83-1.83V64.2a1.83 1.83 0 0 0-1.83-1.83" class="cls-1"/><path id="Tracé_230" d="M64.8 71.84a12.44 12.44 0 0 0-2.4-5.6l-.02-.02a11.2 11.2 0 0 0-1.6-1.65l-.1-.07-.06-.06a10.83 10.83 0 0 0-3.77-2.06 15.52 15.52 0 0 0-4.07-.78 16.2 16.2 0 0 0-1.7-.1H51a13.12 13.12 0 0 0-3.33.45 12.93 12.93 0 0 0-5.36 2.9v-.68a1.84 1.84 0 0 0-1.83-1.84h-1.24a1.84 1.84 0 0 0-1.84 1.84v26.76a1.83 1.83 0 0 0 1.38 1.78 1.8 1.8 0 0 0 .45.07h1.25a1.8 1.8 0 0 0 .45-.06 1.83 1.83 0 0 0 1.4-1.77V74.76q0-.48.03-.93a8.54 8.54 0 0 1 .8-2.92 7.64 7.64 0 0 1 1.33-1.94 9.15 9.15 0 0 1 6.9-2.64 13.86 13.86 0 0 1 2.53.22 8.78 8.78 0 0 1 2.94 1.06 6.54 6.54 0 0 1 2.48 2.88 10.3 10.3 0 0 1 .83 4.2v16.25a1.83 1.83 0 0 0 1.38 1.78 1.8 1.8 0 0 0 .45.07h1.26a1.8 1.8 0 0 0 .46-.06 1.84 1.84 0 0 0 1.33-1.33 1.8 1.8 0 0 0 .05-.44V74.76a13.95 13.95 0 0 0-.3-2.92" class="cls-1"/></g></g></g></svg>