<svg xmlns="http://www.w3.org/2000/svg" xmlns:xlink="http://www.w3.org/1999/xlink" viewBox="0 0 34.379 34.379"><defs><style>.a{fill:none;}.b{clip-path:url(#a);}.c{fill:#343360;}.d{fill:#fff;}</style><clipPath id="a"><path class="a" d="M0-5.418H34.379V-39.8H0Z" transform="translate(0 39.797)"/></clipPath></defs><g transform="translate(39.797 34.379) rotate(-90)"><g class="b" transform="translate(0 -39.797)"><g transform="translate(0 0.001)"><path class="c" d="M-5.418-2.709A17.189,17.189,0,0,1-22.607,14.48,17.189,17.189,0,0,1-39.8-2.709,17.189,17.189,0,0,1-22.607-19.9,17.189,17.189,0,0,1-5.418-2.709" transform="translate(39.797 19.898)"/></g></g><path class="d" d="M20.842-13.015H18.6V-29.356h2.241Z" transform="translate(-2.532 -1.421)"/><path class="d" d="M10.44-21.2H26.781v2.241H10.44Z" transform="translate(-1.421 -2.532)"/></g></svg>