<svg xmlns="http://www.w3.org/2000/svg" viewBox="0 0 247.451 21.873" width="247.451" height="21.873">
      <g transform="translate(195.256)">
          <path d="M2504.852,20.884l-6.143-13.463-6.237,13.463H2488.8L2498.787,0l9.744,20.884Z" transform="translate(-2488.8)"/>
      </g>
      <path d="M514,34.725V15.3h4.346a16.817,16.817,0,0,1,4.935.573,9.4,9.4,0,0,1,3.53,1.93,9.011,9.011,0,0,1,3.209,7.21,8.973,8.973,0,0,1-3.342,7.241,9.848,9.848,0,0,1-3.515,1.922,17,17,0,0,1-4.872.541H514Zm3.122-2.762h1.412a12.239,12.239,0,0,0,3.5-.416,7.017,7.017,0,0,0,2.526-1.4A6.461,6.461,0,0,0,526.866,25a6.566,6.566,0,0,0-2.275-5.186q-2.059-1.765-6.057-1.765h-1.412Z" transform="translate(-473.675 -14.1)"/>
      <path d="M983.43,18.054h8.3V15.3H980.3V34.725h11.431V31.964h-8.3v-5.57h8.057V23.64H983.43V18.054Z" transform="translate(-903.392 -14.1)"/>
      <path d="M1407.116,30.831h-3.931l-1.624-1.561a10.934,10.934,0,0,1-5.774,1.561,11.217,11.217,0,0,1-7.312-2.613A9.152,9.152,0,0,1,1385,20.86a9.409,9.409,0,0,1,3.287-7.32,10.955,10.955,0,0,1,7.547-2.84,11.076,11.076,0,0,1,7.069,2.487A9.5,9.5,0,0,1,1406.661,21a9.162,9.162,0,0,1-2.966,6.7Zm-7.571-7.014,1.977,1.781a6.452,6.452,0,0,0,1.985-4.794,6.974,6.974,0,0,0-2.212-5.249,7.627,7.627,0,0,0-5.5-2.11,7.489,7.489,0,0,0-5.476,2.11,7.1,7.1,0,0,0-2.165,5.319,6.588,6.588,0,0,0,2.228,5.147,7.785,7.785,0,0,0,5.3,2.063,7.671,7.671,0,0,0,3.656-.871l-3.844-3.4h4.048Z" transform="translate(-1276.342 -9.861)"/>
      <path d="M1912.1,4.241l5.4,12.984L1923.128,3.3l5.4,13.926,5.735-12.984h3.4L1928.392,24.9l-5.327-13.761-5.554,13.776L1908.7,4.241Z" transform="translate(-1758.955 -3.041)"/>
      <path d="M3000.893,18.054V34.725h-3.13V18.054H2993V15.3h12.639v2.754Z" transform="translate(-2758.188 -14.1)"/>
    <path d="M16.059,20.884,9.909,7.422,3.672,20.884H0L9.979,0l9.744,20.884Z"/>
</svg>
