<svg version="1.1" id="Calque_1" xmlns="http://www.w3.org/2000/svg" xmlns:xlink="http://www.w3.org/1999/xlink" x="0px" y="0px" width="137" height="112" viewBox="0 0 137 112" enable-background="new 0 0 137 112" xml:space="preserve">
<path fill="#FD5300" d="M107.2,91.8H29.8c-8.2,0-14.9-6.7-14.9-14.9V35.1c0-3.7,1.4-7.4,3.9-10.1c0.8-0.9,2.1-0.9,2.9-0.2
	c0,0,0.1,0,0.1,0.1c0.9,0.8,0.9,2.1,0.2,2.9c0,0,0,0.1-0.1,0.1c-1.8,2-2.8,4.6-2.8,7.2v41.9c0,5.9,4.8,10.6,10.7,10.6h77.4
	c5.9,0,10.6-4.8,10.7-10.7V35.1c0-5.9-4.8-10.6-10.7-10.7h-70c-1.2,0-2.1-1-2.1-2.1c0-1.2,1-2.1,2.1-2.1h70
	c8.2,0,14.9,6.7,14.9,14.9v41.9C122.1,85.2,115.5,91.8,107.2,91.8C107.2,91.8,107.2,91.8,107.2,91.8z"/>
<g transform="translate(10.643 0.419)">
	<path fill="#FD5300" d="M17.7,25.4c1.4-0.1,2.5-1.3,2.5-2.8c0,0,0,0,0,0c-0.1-1.4-1.3-2.5-2.8-2.4c-1.4,0.1-2.5,1.3-2.5,2.8
		c0,0,0,0,0,0C15,24.4,16.2,25.4,17.7,25.4"/>
</g>
<g transform="translate(19.491 14.214)">
	<g transform="translate(7.456 17.206)">
		<path fill="#FD5300" d="M23.5,38.3c-6.2,0-8.3-5.5-8.6-8.4v-7.6c0-1.2,1-2.1,2.1-2.1h15.5c4.6-0.1,8.4,3.6,8.4,8.2
			c0,0.2,0,0.4,0,0.5c0,6.7-5,9.1-7.7,9.3h-0.2L23.5,38.3z M19.1,29.6c0.1,0.7,0.7,4.5,4.4,4.5L33,34c0.7-0.1,3.7-0.9,3.7-5
			c0-4-3.2-4.5-4.2-4.5H19.2L19.1,29.6z"/>
	</g>
	<path fill="#FD5300" d="M28.7,62.8c-0.2,0-0.4,0-0.5-0.1C16.4,59.5,15,48.4,14.9,48V35.4c0.3-5.9,3.1-11.3,7.8-14.9
		c0.7-0.5,1.5-0.5,2.2-0.1c0.7,0.3,1.2,1.1,1.2,1.9v7.3h16.7c4.6,0.5,13.3,4.9,13.3,17c0,12.2-10.1,16-15.5,16.2L28.7,62.8z
		 M29,58.6h11.5c1.1-0.1,11.3-0.9,11.3-11.9c0-10.9-8.3-12.6-9.5-12.8H23.9c-1.2,0-2.1-1-2.1-2.1v-4.2c-1.6,2.3-2.5,5.1-2.6,7.9
		v12.1C20,52.9,23.9,57.2,29,58.6L29,58.6z"/>
</g>
<g transform="translate(71.893 12.035)">
	<g transform="translate(8.627)">
		<path fill="#FD5300" d="M17,41.7c-1.2,0-2.1-1-2.1-2.1V22.3c0-1.2,1-2.1,2.1-2.1c1.2,0,2.1,1,2.1,2.1v17.3
			C19.1,40.7,18.2,41.7,17,41.7z"/>
	</g>
	<g transform="translate(0 8.627)">
		<path fill="#FD5300" d="M34.2,24.4H17c-1.2,0-2.1-1-2.1-2.1c0-1.2,1-2.1,2.1-2.1c0,0,0,0,0,0h17.3c1.2,0,2.1,1,2.1,2.1
			C36.4,23.5,35.4,24.4,34.2,24.4C34.2,24.4,34.2,24.4,34.2,24.4z"/>
	</g>
	<g transform="translate(0 29.716)">
		<path fill="#FD5300" d="M34.2,24.4H17c-1.2,0-2.1-1-2.1-2.1s1-2.1,2.1-2.1h17.3c1.2,0,2.1,1,2.1,2.1
			C36.4,23.5,35.4,24.4,34.2,24.4C34.2,24.4,34.2,24.4,34.2,24.4z"/>
	</g>
	<g transform="translate(0 36.213)">
		<path fill="#FD5300" d="M34.2,24.4H17c-1.2,0-2.1-1-2.1-2.1c0-1.2,1-2.1,2.1-2.1h17.3c1.2,0,2.1,1,2.1,2.1
			C36.4,23.5,35.4,24.4,34.2,24.4C34.2,24.4,34.2,24.4,34.2,24.4z"/>
	</g>
	<g transform="translate(0 42.71)">
		<path fill="#FD5300" d="M34.2,24.4H17c-1.2,0-2.1-1-2.1-2.1c0-1.2,1-2.1,2.1-2.1c0,0,0,0,0,0h17.3c1.2,0,2.1,1,2.1,2.1
			C36.4,23.5,35.4,24.4,34.2,24.4C34.2,24.4,34.2,24.4,34.2,24.4z"/>
	</g>
</g>
</svg>
