<?xml version="1.0" encoding="utf-8"?>
<!-- Generator: Adobe Illustrator 22.1.0, SVG Export Plug-In . SVG Version: 6.00 Build 0)  -->
<svg version="1.1" id="Calque_1" xmlns="http://www.w3.org/2000/svg" xmlns:xlink="http://www.w3.org/1999/xlink" x="0px" y="0px"
	 viewBox="0 0 137 112" style="enable-background:new 0 0 137 112;" xml:space="preserve">
<style type="text/css">
	.st0{fill:#FD5300;}
</style>
<path class="st0" d="M112.9,97.1H24.1C14.7,97.1,7,89.4,7,80V32c0-4.2,1.6-8.5,4.5-11.6c0.9-1,2.4-1,3.3-0.2c0,0,0.1,0,0.1,0.1
	c1,0.9,1,2.4,0.2,3.3c0,0,0,0.1-0.1,0.1C13,26.1,11.8,29,11.8,32v48.1c0,6.8,5.5,12.2,12.3,12.2h88.8c6.8,0,12.2-5.5,12.3-12.3V32
	c0-6.8-5.5-12.2-12.3-12.3H32.6c-1.4,0-2.4-1.1-2.4-2.4c0-1.4,1.1-2.4,2.4-2.4h80.3c9.4,0,17.1,7.7,17.1,17.1v48.1
	C130,89.5,122.4,97.1,112.9,97.1L112.9,97.1z"/>
<g transform="translate(10.643 0.419)">
	<path class="st0" d="M11.8,21c1.6-0.1,2.9-1.5,2.9-3.2l0,0c-0.1-1.6-1.5-2.9-3.2-2.8c-1.6,0.1-2.9,1.5-2.9,3.2l0,0
		C8.7,19.8,10.1,21,11.8,21"/>
</g>
<g transform="translate(19.491 14.214)">
	<g transform="translate(7.456 17.206)">
		<path class="st0" d="M20.8,40.3c-7.1,0-9.5-6.3-9.9-9.6V22c0-1.4,1.1-2.4,2.4-2.4h17.8c5.3-0.1,9.6,4.1,9.6,9.4c0,0.2,0,0.5,0,0.6
			c0,7.7-5.7,10.4-8.8,10.7h-0.2L20.8,40.3z M15.8,30.3c0.1,0.8,0.8,5.2,5,5.2l10.9-0.1c0.8-0.1,4.2-1,4.2-5.7
			c0-4.6-3.7-5.2-4.8-5.2H15.9L15.8,30.3z"/>
	</g>
	<path class="st0" d="M25.7,65.9c-0.2,0-0.5,0-0.6-0.1C11.6,62.1,10,49.4,9.9,48.9V34.5c0.3-6.8,3.6-13,8.9-17.1
		c0.8-0.6,1.7-0.6,2.5-0.1c0.8,0.3,1.4,1.3,1.4,2.2v8.4h19.2c5.3,0.6,15.3,5.6,15.3,19.5c0,14-11.6,18.4-17.8,18.6L25.7,65.9z
		 M26.1,61.1h13.2c1.3-0.1,13-1,13-13.7c0-12.5-9.5-14.5-10.9-14.7H20.2c-1.4,0-2.4-1.1-2.4-2.4v-4.8c-1.8,2.6-2.9,5.9-3,9.1v13.9
		C15.7,54.5,20.2,59.5,26.1,61.1L26.1,61.1z"/>
</g>
<g transform="translate(71.893 12.035)">
	<g transform="translate(8.627)">
		<path class="st0" d="M21.3,41.4c-1.4,0-2.4-1.1-2.4-2.4V19.1c0-1.4,1.1-2.4,2.4-2.4c1.4,0,2.4,1.1,2.4,2.4V39
			C23.7,40.2,22.7,41.4,21.3,41.4z"/>
	</g>
	<g transform="translate(0 8.627)">
		<path class="st0" d="M39.7,22.8H20c-1.4,0-2.4-1.1-2.4-2.4c0-1.4,1.1-2.4,2.4-2.4l0,0h19.8c1.4,0,2.4,1.1,2.4,2.4
			C42.3,21.8,41.1,22.8,39.7,22.8L39.7,22.8z"/>
	</g>
	<g transform="translate(0 29.716)">
		<path class="st0" d="M39.7,25.9H20c-1.4,0-2.4-1.1-2.4-2.4s1.1-2.4,2.4-2.4h19.8c1.4,0,2.4,1.1,2.4,2.4
			C42.3,24.9,41.1,25.9,39.7,25.9L39.7,25.9z"/>
	</g>
	<g transform="translate(0 36.213)">
		<path class="st0" d="M39.7,26.9H20c-1.4,0-2.4-1.1-2.4-2.4c0-1.4,1.1-2.4,2.4-2.4h19.8c1.4,0,2.4,1.1,2.4,2.4
			C42.3,25.8,41.1,26.9,39.7,26.9L39.7,26.9z"/>
	</g>
	<g transform="translate(0 42.71)">
		<path class="st0" d="M39.7,27.8H20c-1.4,0-2.4-1.1-2.4-2.4c0-1.4,1.1-2.4,2.4-2.4l0,0h19.8c1.4,0,2.4,1.1,2.4,2.4
			C42.3,26.8,41.1,27.8,39.7,27.8L39.7,27.8z"/>
	</g>
</g>
</svg>
