<svg version="1.1" id="Calque_1" xmlns="http://www.w3.org/2000/svg" xmlns:xlink="http://www.w3.org/1999/xlink" x="0px" y="0px" height="112" width="137" viewBox="0 0 137 112" style="enable-background:new 0 0 137 112;" xml:space="preserve">
<style type="text/css">
	.st0{fill:#FD5300;}
</style>
<path class="st0" d="M59.7,82.7c0.4,0.8,1.3,1.2,2.1,1.2h0.1c0.8,0,1.6-0.3,2.1-1l25.7-32c1-1.1,0.8-2.9-0.3-3.8
	c-1.1-1-2.9-0.8-3.8,0.3c0,0,0,0-0.1,0.1l-23.4,29l-5.8-8.4c-0.9-1.2-2.6-1.6-3.8-0.7c-1.2,0.9-1.6,2.6-0.7,3.8L59.7,82.7z"/>
<path class="st0" d="M48.9,59c-1.8-0.1-3.4,1.3-3.4,3.1c-0.1,1.8,1.3,3.4,3.1,3.4c1.8,0.1,3.4-1.3,3.4-3.1v-0.1
	c0.1-1.7-1.2-3.1-2.9-3.2C49,59,48.9,59,48.9,59z"/>
<path class="st0" d="M112,36.1v-9.6c0-4.5-4.3-8.1-9.5-8.1h-15v-6.7c0-1.5-1.2-2.7-2.7-2.7s-2.7,1.2-2.7,2.7v6.7H54.8v-6.7
	c0-1.5-1.2-2.7-2.7-2.7s-2.7,1.2-2.7,2.7v6.7h-15c-5.1,0-9.5,3.6-9.5,8.1v68.5c0,4.5,4.3,8.1,9.5,8.1h68.2c5.1,0,9.5-3.6,9.5-8.1
	V46.6c0-1.5-1.2-2.7-2.7-2.7s-2.7,1.2-2.7,2.7l0,0v48.3c0,1.2-1.7,2.6-4.1,2.6H34.5c-2.3,0-4.1-1.3-4.1-2.6V26.5
	c0-1.2,1.7-2.6,4.1-2.6h15v2.9c0,1.5,1.2,2.7,2.7,2.7s2.7-1.2,2.7-2.7v-2.9H82v2.9c0,1.5,1.2,2.7,2.7,2.7s2.7-1.2,2.7-2.7v-2.9h15
	c2.3,0,4.1,1.3,4.1,2.6v6.9H46.3c-1.5,0-2.7,1.2-2.7,2.7s1.2,2.7,2.7,2.7h63C110.9,38.9,112,37.6,112,36.1z"/>
</svg>
