<svg version="1.1" id="Calque_1" xmlns="http://www.w3.org/2000/svg" xmlns:xlink="http://www.w3.org/1999/xlink" x="0px" y="0px" width="137" height="112" viewBox="0 0 137 112" enable-background="new 0 0 137 112" xml:space="preserve">
<path fill="#FD5300" d="M60.6,79.9c0.4,0.7,1.2,1.1,1.9,1.1h0.1c0.7,0,1.4-0.3,1.9-0.9l23-28.6c0.9-1,0.7-2.6-0.3-3.4
	c-1-0.9-2.6-0.7-3.4,0.3c0,0,0,0-0.1,0.1L62.8,74.4l-5.2-7.5c-0.8-1.1-2.3-1.4-3.4-0.6c-1.1,0.8-1.4,2.3-0.6,3.4L60.6,79.9z"/>
<path fill="#FD5300" d="M51,58.7c-1.6-0.1-3,1.2-3,2.8c-0.1,1.6,1.2,3,2.8,3c1.6,0.1,3-1.2,3-2.8c0,0,0-0.1,0-0.1
	c0.1-1.5-1.1-2.8-2.6-2.9C51.1,58.7,51,58.7,51,58.7z"/>
<path fill="#FD5300" d="M107.4,38.2v-8.6c0-4-3.8-7.2-8.5-7.2H85.5v-6c0-1.3-1.1-2.4-2.4-2.4c-1.3,0-2.4,1.1-2.4,2.4v6H56.3v-6
	c0-1.3-1.1-2.4-2.4-2.4s-2.4,1.1-2.4,2.4v6H38.1c-4.6,0-8.5,3.2-8.5,7.2v61.2c0,4,3.8,7.2,8.5,7.2h60.9c4.6,0,8.5-3.2,8.5-7.2V47.6
	c0-1.3-1.1-2.4-2.4-2.4s-2.4,1.1-2.4,2.4c0,0,0,0,0,0v43.2c0,1.1-1.5,2.3-3.7,2.3H38.1c-2.1,0-3.7-1.2-3.7-2.3V29.6
	c0-1.1,1.5-2.3,3.7-2.3h13.4v2.6c0,1.3,1.1,2.4,2.4,2.4s2.4-1.1,2.4-2.4v-2.6h24.3v2.6c0,1.3,1.1,2.4,2.4,2.4c1.3,0,2.4-1.1,2.4-2.4
	v-2.6h13.4c2.1,0,3.7,1.2,3.7,2.3v6.2H48.7c-1.3,0-2.4,1.1-2.4,2.4s1.1,2.4,2.4,2.4H105C106.4,40.7,107.4,39.6,107.4,38.2z"/>
</svg>
