<svg xmlns="http://www.w3.org/2000/svg" viewBox="0 0 223 32.474" width="223" height="32.474"><defs><style>.a{fill:#e84e0f;}.b{fill:#575756;}</style></defs><path class="a" d="M537.111,16.237a16.281,16.281,0,0,1-16.273,16.237h-16.2a16.237,16.237,0,1,1,0-32.474H520.8a16.311,16.311,0,0,1,16.308,16.237m-19.413,6.1H504.673V12.454h12.99a4.942,4.942,0,0,1,4.925,4.96,4.881,4.881,0,0,1-4.889,4.925M499.106,9.314V17.45a10.65,10.65,0,0,0,10.527,10.456h8.136A10.527,10.527,0,0,0,517.7,6.852H504.673V0A10.555,10.555,0,0,0,499.106,9.314Z" transform="translate(-314.111)"/><g transform="translate(0 2.213)"><g transform="translate(23.624 4.139)"><path class="b" d="M76.727,42.315h-.036c-5.567,0-9.778-3.069-10.42-8.065h0l-.071-.464h4.568l.071.321c.428,2.391,2.783,3.925,5.924,3.925h0A7.046,7.046,0,0,0,80.688,37h0a2.868,2.868,0,0,0,1.356-2.248h0A1.823,1.823,0,0,0,81.224,33h0c-.749-.535-2.213-1-4.96-1.356h0a17.467,17.467,0,0,1-6.6-1.927h0A5.3,5.3,0,0,1,67.128,24.9h0a6.392,6.392,0,0,1,2.284-4.853h0A10.271,10.271,0,0,1,76.37,17.8h0c5.317-.036,9.1,2.748,9.6,7.387h0l.036.428H81.473l-.071-.321c-.5-2.177-2.391-3.319-5.032-3.319h0a6.776,6.776,0,0,0-3.462.856h0a2.362,2.362,0,0,0-1.249,1.891h0c.036.714.178,1,.964,1.427h0a17.369,17.369,0,0,0,4.389,1.071h0a18.968,18.968,0,0,1,6.566,1.856h0A5.846,5.846,0,0,1,86.469,34.5h0a7.019,7.019,0,0,1-2.748,5.674h0a11.332,11.332,0,0,1-6.994,2.141h0" transform="translate(-66.2 -17.799)"/></g><g transform="translate(0 4.14)"><path class="b" d="M11.955,42.245a11.708,11.708,0,0,1-8.493-3.533h0A12.217,12.217,0,0,1,0,30.076H0C0,23.331,5.246,17.8,11.741,17.8h0a11.529,11.529,0,0,1,8.172,3.5h0a13.489,13.489,0,0,1,3.64,9.635h0v.107h0v.393H4.639a7.472,7.472,0,0,0,7.351,6.638h0a6.778,6.778,0,0,0,4.639-1.606h0l.25-.214,3.6,2.605-.357.321a11.38,11.38,0,0,1-8.172,3.069Zm-.214-20.269a7.365,7.365,0,0,0-6.816,5.353H18.485a7.33,7.33,0,0,0-6.745-5.353h0" transform="translate(0 -17.8)"/></g><g transform="translate(66.518 4.14)"><path class="b" d="M198.355,42.245a11.708,11.708,0,0,1-8.493-3.533h0a12.281,12.281,0,0,1-3.462-8.636h0c0-6.745,5.246-12.276,11.741-12.276h0a11.529,11.529,0,0,1,8.172,3.5h0a13.551,13.551,0,0,1,3.64,9.635h0V31h0v.428H191.039a7.472,7.472,0,0,0,7.351,6.638h0a6.621,6.621,0,0,0,4.6-1.606h0l.25-.214,3.6,2.605-.357.321a11.236,11.236,0,0,1-8.136,3.069Zm-.214-20.269a7.365,7.365,0,0,0-6.816,5.353h13.561a7.33,7.33,0,0,0-6.745-5.353h0" transform="translate(-186.4 -17.8)"/></g><g transform="translate(133.893 4.14)"><path class="b" d="M387.155,42.245a11.708,11.708,0,0,1-8.493-3.533h0a12.28,12.28,0,0,1-3.461-8.636h0c0-6.745,5.246-12.276,11.741-12.276h0a11.529,11.529,0,0,1,8.172,3.5h0a13.489,13.489,0,0,1,3.64,9.635h0v.107h0v.393H379.839a7.472,7.472,0,0,0,7.351,6.638h0a6.778,6.778,0,0,0,4.639-1.606h0l.25-.214,3.6,2.605-.357.321a11.38,11.38,0,0,1-8.172,3.069Zm-.214-20.269a7.365,7.365,0,0,0-6.816,5.353h13.561a7.33,7.33,0,0,0-6.745-5.353h0" transform="translate(-375.2 -17.8)"/></g><g transform="translate(45.107 4.139)"><path class="b" d="M136.963,42.315h-.071c-5.567,0-9.778-3.069-10.42-8.065h0l-.071-.464h4.568l.071.321c.428,2.391,2.783,3.925,5.924,3.925h0A7.046,7.046,0,0,0,140.888,37h0a2.868,2.868,0,0,0,1.356-2.248h0A1.823,1.823,0,0,0,141.424,33h0c-.749-.535-2.212-1-4.96-1.356h0a17.467,17.467,0,0,1-6.6-1.927h0a5.3,5.3,0,0,1-2.534-4.818h0a6.392,6.392,0,0,1,2.284-4.853h0A10.271,10.271,0,0,1,136.57,17.8h0c5.317-.036,9.1,2.748,9.6,7.387h0l.036.428h-4.532l-.071-.321c-.5-2.177-2.391-3.319-5.032-3.319h0a6.776,6.776,0,0,0-3.462.856h0a2.362,2.362,0,0,0-1.249,1.891h0c.036.714.178,1,.964,1.427h0a17.368,17.368,0,0,0,4.389,1.071h0a18.968,18.968,0,0,1,6.566,1.856h0a5.846,5.846,0,0,1,2.891,5.424h0a7.019,7.019,0,0,1-2.748,5.674h0a11.3,11.3,0,0,1-6.959,2.141h0" transform="translate(-126.4 -17.799)"/></g><g transform="translate(114.051)"><path class="b" d="M321.812,32.036a9.067,9.067,0,0,1-2.212-6.388h0V6.2h4.461v5.5H329.2v4.354h-5.139v9.635a4.436,4.436,0,0,0,1.213,3.5h0a4.5,4.5,0,0,0,3,.928h0c.178,0,1.963-.036,1.963-.036v4.175s-1.713.107-2.676.107h0a7.74,7.74,0,0,1-5.745-2.32Z" transform="translate(-319.6 -6.2)"/></g><g transform="translate(159.123)"><path class="b" d="M448.112,32.036a9.067,9.067,0,0,1-2.213-6.388h0V6.2h4.461V25.649a4.436,4.436,0,0,0,1.213,3.5h0a4.5,4.5,0,0,0,3,.928h0c.178,0,1.963-.036,1.963-.036v4.175s-1.713.107-2.676.107h0a7.581,7.581,0,0,1-5.745-2.284Z" transform="translate(-445.9 -6.2)"/></g><g transform="translate(126.97)"><path class="b" d="M355.8,6.2h4.532v4.14H355.8Z" transform="translate(-355.8 -6.2)"/></g><g transform="translate(126.97 5.46)"><path class="b" d="M355.8,44.125V21.5h4.532V44.089H355.8Z" transform="translate(-355.8 -21.5)"/></g><path class="b" d="M275.008,20.076a9.85,9.85,0,0,0-6.994-2.676H258.2V41.309h4.461V21.682h5.353a5.076,5.076,0,0,1,5.281,5.424V41.345h4.461V27.214A9.437,9.437,0,0,0,275.008,20.076Z" transform="translate(-166.059 -13.403)"/></g></svg>