<?xml version="1.0" encoding="utf-8"?>
<!-- Generator: Adobe Illustrator 23.0.0, SVG Export Plug-In . SVG Version: 6.00 Build 0)  -->
<svg version="1.1" id="Calque_1" xmlns="http://www.w3.org/2000/svg" xmlns:xlink="http://www.w3.org/1999/xlink" x="0px" y="0px"
	 viewBox="0 0 137 112" style="enable-background:new 0 0 137 112;" xml:space="preserve">
<style type="text/css">
	.st0{fill:#FD5300;}
</style>
<g id="Groupe_6575" transform="translate(0 0.005)">
	<path id="Tracé_9303" class="st0" d="M30.7,52.6c0,1.6,1.3,2.8,2.8,2.8c1.6,0,2.8-1.3,2.8-2.8s-1.3-2.8-2.8-2.8c0,0,0,0,0,0
		C32,49.8,30.7,51.1,30.7,52.6C30.7,52.6,30.7,52.6,30.7,52.6z"/>
	<path id="Tracé_9304" class="st0" d="M114.9,40.6L114.9,40.6c-0.1-0.1-0.2-0.2-0.2-0.3c0,0,0,0,0,0l0,0c-0.2-0.3-0.5-0.5-0.8-0.7
		L88,14.5c-0.9-0.8-2.2-0.8-3.1,0c-0.8,0.9-0.8,2.2,0,3.1l21,20.3h-65c-1.2,0-2.2,1-2.2,2.2c0,1.2,1,2.2,2.2,2.2h68.4
		c0.6,0,1.2,0.2,1.7,0.6l0.4,0.4c0.4,0.5,0.7,1.1,0.7,1.8v45.8c0,1.6-1.3,3-3,3H27.7c-1.6,0-2.8-1.3-2.8-2.8V39.6
		c0-0.7,0.3-1.3,0.9-1.7l28.2-20.1c1-0.7,1.2-2.1,0.4-3c-0.7-0.9-2-1.1-2.9-0.5L23.3,34.4c-1.7,1.2-2.7,3.1-2.7,5.2V91
		c0,3.9,3.2,7.1,7.2,7.1h81.4c4,0,7.3-3.3,7.3-7.3V45C116.4,43.4,115.9,41.9,114.9,40.6z"/>
	<path id="Tracé_9305" class="st0" d="M84.9,86c0,1.2,1,2.2,2.2,2.2h16.8c1.2,0,2.2-1,2.2-2.2s-1-2.2-2.2-2.2c0,0,0,0,0,0H87.1
		C85.9,83.9,84.9,84.9,84.9,86L84.9,86z"/>
	<path id="Tracé_9306" class="st0" d="M90.7,69.6c-0.4-0.4-1.1-0.4-1.5,0c0,0,0,0,0,0l-4.1,4.1c-0.4,0.4-0.4,1.1,0,1.5
		c0.4,0.4,1.1,0.4,1.5,0l2.2-2.2v7.9c0,0.6,0.5,1.1,1.1,1.1s1.1-0.5,1.1-1.1c0,0,0,0,0,0v-7.9l2.2,2.2c0.4,0.4,1.1,0.4,1.5,0
		c0.4-0.4,0.4-1.1,0-1.5c0,0,0,0,0,0L90.7,69.6z"/>
	<path id="Tracé_9307" class="st0" d="M101,81.9c0.6,0,1.1-0.5,1.1-1.1V73l2.2,2.2c0.4,0.4,1.1,0.4,1.5,0c0.4-0.4,0.4-1.1,0-1.5
		c0,0,0,0,0,0l-4.1-4.1c-0.4-0.4-1.1-0.4-1.5,0c0,0,0,0,0,0l-4.1,4.1c-0.4,0.4-0.4,1.1,0,1.5c0.4,0.4,1.1,0.4,1.5,0L100,73v7.9
		C100,81.5,100.4,81.9,101,81.9C101,81.9,101,81.9,101,81.9z"/>
</g>
</svg>
