<svg version="1.1" id="Calque_1" xmlns="http://www.w3.org/2000/svg" xmlns:xlink="http://www.w3.org/1999/xlink" x="0px" y="0px" height="112" width="137" viewBox="0 0 137 112" style="enable-background:new 0 0 137 112;" xml:space="preserve">
<style type="text/css">
	.st0{fill:#FD5300;}
</style>
<g>
	<path class="st0" d="M45.6,44.4c0,1.7,1.4,3.1,3.1,3.1c1.7,0,3.1-1.4,3.1-3.1c0-1.7-1.4-3.1-3.1-3.1C47,41.4,45.6,42.8,45.6,44.4z"
		/>
	<path class="st0" d="M100.3,21.2C100.3,21.2,100.3,21.2,100.3,21.2C100.3,21.2,100.2,21.2,100.3,21.2L100.3,21.2
		C100.2,21.2,100.2,21.2,100.3,21.2c-0.2-0.1-0.3-0.3-0.5-0.3c-0.9-0.5-2-0.5-2.9,0.1c0,0-0.1,0.1-0.1,0.1c-0.1,0-0.1,0.1-0.1,0.1
		c-0.1,0.1-0.2,0.2-0.3,0.2L67.9,52.3l-11-6.2c-1.3-0.8-3-0.3-3.8,1c-0.8,1.3-0.3,3,1,3.8l12.9,7.3c0,0,0.1,0,0.1,0
		c0.2,0.1,0.3,0.1,0.5,0.2c0.1,0,0.1,0,0.2,0c0.2,0,0.4,0.1,0.6,0.1c0,0,0,0,0,0c0,0,0,0,0,0c0,0,0,0,0,0c0.2,0,0.4,0,0.6-0.1
		c0.1,0,0.1,0,0.2-0.1c0.1,0,0.3-0.1,0.4-0.2c0.1,0,0.1-0.1,0.2-0.1c0.1-0.1,0.3-0.2,0.4-0.3c0.1,0,0.1-0.1,0.2-0.1c0,0,0,0,0.1,0
		l27.9-30.4C105.8,35,110,45.3,110,56c0,22.9-18.6,41.5-41.5,41.5S27,78.9,27,56s18.6-41.5,41.5-41.5c6.8,0,13.6,1.7,19.5,4.9
		c1.4,0.7,3,0.2,3.8-1.1c0.7-1.4,0.2-3-1.1-3.8c-6.8-3.6-14.4-5.5-22.2-5.5C42.5,8.9,21.4,30,21.4,56c0,26,21.1,47.1,47.1,47.1
		S115.6,82,115.6,56C115.6,42.8,110,30.1,100.3,21.2z"/>
	<path class="st0" d="M65.7,20.8V26c0,1.5,1.2,2.8,2.8,2.8s2.8-1.2,2.8-2.8v-5.2c0-1.5-1.2-2.8-2.8-2.8S65.7,19.3,65.7,20.8z"/>
	<path class="st0" d="M71.3,91.4v-5.2c0-1.5-1.2-2.8-2.8-2.8s-2.8,1.2-2.8,2.8v5.2c0,1.5,1.2,2.8,2.8,2.8S71.3,92.9,71.3,91.4z"/>
	<path class="st0" d="M33,53.2c-1.5,0-2.8,1.2-2.8,2.8s1.2,2.8,2.8,2.8h5.2c1.5,0,2.8-1.2,2.8-2.8s-1.2-2.8-2.8-2.8H33z"/>
	<path class="st0" d="M104.5,58.8c1.5,0,2.8-1.2,2.8-2.8s-1.2-2.8-2.8-2.8h-5.2c-1.5,0-2.8,1.2-2.8,2.8s1.2,2.8,2.8,2.8H104.5z"/>
</g>
</svg>
