<?xml version="1.0" encoding="utf-8"?>
<!-- Generator: Adobe Illustrator 22.1.0, SVG Export Plug-In . SVG Version: 6.00 Build 0)  -->
<svg version="1.1" width="137" height="112" xmlns="http://www.w3.org/2000/svg" xmlns:xlink="http://www.w3.org/1999/xlink" x="0px" y="0px"
	 viewBox="0 0 137 112" style="enable-background:new 0 0 137 112;" xml:space="preserve">
<style type="text/css">
	.st0{fill:#FD5300;}
</style>
<path class="st0" d="M109.5,88.6c0-2.9-2.3-5.2-5.2-5.2c-2.9,0-5.2,2.3-5.2,5.2s2.3,5.2,5.2,5.2C107.2,93.8,109.5,91.5,109.5,88.6
	C109.5,88.6,109.5,88.6,109.5,88.6z"/>
<path class="st0" d="M55.5,88.6c0-2.9-2.3-5.2-5.2-5.2s-5.2,2.3-5.2,5.2c0,2.9,2.3,5.2,5.2,5.2c2.8,0.1,5.2-2.2,5.2-5
	C55.5,88.8,55.5,88.7,55.5,88.6z"/>
<path class="st0" d="M136.8,65.2c-5.4-26.6-26.3-35.8-28-36.5c-0.2-0.1-0.4-0.2-0.6-0.1H94.3v-1.8c0-11.7-9.5-21.2-21.2-21.2
	c0,0,0,0,0,0H14.1c-1.6,0-3,1.3-3,3V67H3.8c-1.6,0-3,1.3-3,3c0,1.6,1.3,3,3,3h10.3c1.6,0,3-1.3,3-3V11.5h56.1
	c8.4,0,15.2,6.7,15.2,15.1v31.9c0,1.6,1.3,3,3,3c1.6,0,3-1.3,3-3v-24H107c12.5,6.3,21.3,17.9,24,31.6v15.5c-0.1,3.2-2.6,5.8-5.8,5.8
	h-7.3c-0.4,0-0.8,0.1-1.2,0.3c-1.5,0.2-2.6,1.5-2.5,3c-0.2,5.5-4.8,9.8-10.3,9.7c-5.3-0.2-9.5-4.4-9.7-9.7c0-1.6-1.3-3-3-3
	c-0.1,0-0.2,0-0.3,0c-0.4-0.1-0.8-0.2-1.2-0.1h-26c-0.6,0-1.1,0.1-1.6,0.4c-1.1,0.5-1.8,1.5-1.8,2.7c-0.2,5.5-4.8,9.8-10.3,9.7
	c-5.3-0.2-9.5-4.4-9.7-9.7v-0.6c0-1.6-1.3-3-3-3H3c-1.6,0-3,1.3-3,3c0,1.6,1.3,3,3,3h31.6c1.4,8.7,9.6,14.6,18.3,13.2
	c6.7-1.1,12-6.3,13.2-12.9h22.5c1.5,8.7,9.8,14.4,18.4,12.9c6.6-1.2,11.7-6.3,12.9-12.9h5.2c6.5,0,11.7-5.2,11.8-11.6
	c0,0,0-0.1,0-0.1V65.8C137,65.6,136.8,65.3,136.8,65.2z"/>
</svg>
