<svg xmlns="http://www.w3.org/2000/svg" viewBox="0 0 127.803 36.68" width="127.803" height="36.68"><defs><style>.a{fill:#070606;}.b{fill:#fff;}</style></defs><g transform="translate(0 0)"><path class="a" d="M127.8,33.031a3.649,3.649,0,0,1-3.649,3.649H3.649A3.649,3.649,0,0,1,0,33.031V3.649A3.649,3.649,0,0,1,3.649,0H124.154A3.649,3.649,0,0,1,127.8,3.649Z" transform="translate(0 0)"/><g transform="translate(11.526 5.089)"><path class="b" d="M28.612,18.6A5.634,5.634,0,0,1,31.3,13.9a5.639,5.639,0,0,0-4.513-2.4c-1.92-.192-3.745,1.152-4.7,1.152s-2.5-1.152-4.033-1.056a5.953,5.953,0,0,0-4.993,3.073c-2.208,3.745-.576,9.314,1.536,12.387,1.056,1.536,2.3,3.169,3.841,3.073s2.112-.96,4.033-.96c1.824,0,2.4.96,4.033.96s2.689-1.536,3.745-2.977a11.005,11.005,0,0,0,1.728-3.457A5.784,5.784,0,0,1,28.612,18.6Z" transform="translate(-12.004 -5.546)"/><path class="b" d="M25.948,9.237A5.273,5.273,0,0,0,27.2,5.3a6.317,6.317,0,0,0-3.649,1.824A5.082,5.082,0,0,0,22.3,10.869a4.349,4.349,0,0,0,3.649-1.632Z" transform="translate(-12.413 -5.3)"/></g><g transform="translate(40.713 17.092)"><path class="b" d="M44.224,30.091H42.4V17.8h1.824Z" transform="translate(-42.4 -17.8)"/><path class="b" d="M49.281,18.1a18.375,18.375,0,0,1-1.728,4.321l-1.152.1a20.937,20.937,0,0,0,1.056-4.225Z" transform="translate(-42.559 -17.812)"/><path class="b" d="M58.494,30.118H56.478l-1.056-3.457H51.677L50.62,30.118H48.7L52.445,18.5h2.3Zm-3.457-4.9-.96-3.073c-.1-.288-.288-1.056-.576-2.208h0c-.1.48-.288,1.248-.576,2.208l-.96,3.073Z" transform="translate(-42.651 -17.828)"/><path class="b" d="M68.566,25.925a4.609,4.609,0,0,1-1.152,3.361,3.288,3.288,0,0,1-2.593,1.152,2.575,2.575,0,0,1-2.4-1.152h0V33.7H60.6V24.676c0-.864,0-1.824-.1-2.785h1.632l.1,1.344h0A3.159,3.159,0,0,1,65.109,21.7a3.233,3.233,0,0,1,2.5,1.152A4.534,4.534,0,0,1,68.566,25.925Zm-1.92.1A3.151,3.151,0,0,0,66.069,24a1.887,1.887,0,0,0-1.632-.864,2.022,2.022,0,0,0-1.248.48,2.448,2.448,0,0,0-.768,1.152,1.218,1.218,0,0,0-.1.576v1.44a2.181,2.181,0,0,0,.576,1.536,2,2,0,0,0,3.073-.1A3.366,3.366,0,0,0,66.645,26.021Z" transform="translate(-43.12 -17.955)"/><path class="b" d="M78.666,25.925a4.609,4.609,0,0,1-1.152,3.361,3.288,3.288,0,0,1-2.593,1.152,2.575,2.575,0,0,1-2.4-1.152h0V33.7H70.7V24.676c0-.864,0-1.824-.1-2.785h1.632l.1,1.344h0A3.159,3.159,0,0,1,75.209,21.7a3.233,3.233,0,0,1,2.5,1.152A5.089,5.089,0,0,1,78.666,25.925Zm-1.92.1A3.15,3.15,0,0,0,76.169,24a1.887,1.887,0,0,0-1.632-.864,2.022,2.022,0,0,0-1.248.48,2.449,2.449,0,0,0-.768,1.152,1.218,1.218,0,0,0-.1.576v1.44A2.181,2.181,0,0,0,73,28.325a2,2,0,0,0,3.073-.1,3.366,3.366,0,0,0,.672-2.208Z" transform="translate(-43.522 -17.955)"/><path class="b" d="M89.9,26.846a3.121,3.121,0,0,1-1.056,2.4A4.666,4.666,0,0,1,85.677,30.3a5.232,5.232,0,0,1-2.977-.768L83.084,28a5.431,5.431,0,0,0,2.689.768,2.746,2.746,0,0,0,1.632-.48,1.548,1.548,0,0,0,.576-1.248,1.59,1.59,0,0,0-.48-1.152,4.956,4.956,0,0,0-1.632-.864c-2.016-.768-3.073-1.92-3.073-3.361a3.272,3.272,0,0,1,1.056-2.4,4.321,4.321,0,0,1,2.881-.96,5.846,5.846,0,0,1,2.689.576l-.48,1.536a4.46,4.46,0,0,0-2.208-.576,2.443,2.443,0,0,0-1.536.48,1.542,1.542,0,0,0-.48,1.056,1.368,1.368,0,0,0,.576,1.152,4.69,4.69,0,0,0,1.728.864,5.518,5.518,0,0,1,2.208,1.44,3.014,3.014,0,0,1,.672,2.016Z" transform="translate(-44.004 -17.82)"/><path class="b" d="M96.493,23.149H94.477v4.033c0,1.056.384,1.536,1.056,1.536a2.659,2.659,0,0,0,.864-.1l.1,1.44a5.811,5.811,0,0,1-1.44.192,2.054,2.054,0,0,1-1.728-.672,3.692,3.692,0,0,1-.576-2.3V23.053H91.5v-1.44h1.248V20.076l1.824-.576v2.112h2.016l-.1,1.536Z" transform="translate(-44.354 -17.868)"/><path class="b" d="M105.957,26.021a4.6,4.6,0,0,1-1.152,3.169,3.918,3.918,0,0,1-3.073,1.248,3.717,3.717,0,0,1-2.977-1.248A4.29,4.29,0,0,1,97.7,26.117a4.282,4.282,0,0,1,1.152-3.169,3.787,3.787,0,0,1,3.073-1.248,3.717,3.717,0,0,1,2.977,1.248A4.581,4.581,0,0,1,105.957,26.021Zm-1.92,0a4.463,4.463,0,0,0-.48-2.016,1.782,1.782,0,0,0-1.632-.96A1.824,1.824,0,0,0,100.2,24a4.475,4.475,0,0,0,0,4.033,1.824,1.824,0,0,0,1.728.96,1.88,1.88,0,0,0,1.632-1.056,3.782,3.782,0,0,0,.48-1.92Z" transform="translate(-44.601 -17.955)"/><path class="b" d="M112.413,23.52c-.192,0-.384-.1-.576-.1a1.866,1.866,0,0,0-1.536.768,2.977,2.977,0,0,0-.48,1.632v4.417H108V24.481a24.271,24.271,0,0,0-.1-2.689h1.632l.1,1.632h.1a2.693,2.693,0,0,1,.96-1.344,2.294,2.294,0,0,1,1.344-.48h.48Z" transform="translate(-45.007 -17.951)"/><path class="b" d="M120.989,25.633a2.659,2.659,0,0,1-.1.864h-5.569a2.524,2.524,0,0,0,.768,1.92,2.768,2.768,0,0,0,1.824.576,5.81,5.81,0,0,0,2.3-.384l.288,1.248a6.286,6.286,0,0,1-2.785.48,4.054,4.054,0,0,1-3.073-1.152,4.2,4.2,0,0,1-1.152-3.073,5.035,5.035,0,0,1,1.056-3.169,3.793,3.793,0,0,1,2.977-1.344,3.288,3.288,0,0,1,2.785,1.344A4.871,4.871,0,0,1,120.989,25.633Zm-1.728-.48a2.314,2.314,0,0,0-.384-1.44,1.734,1.734,0,0,0-2.881,0,3.251,3.251,0,0,0-.576,1.44Z" transform="translate(-45.23 -17.951)"/></g><g transform="translate(40.52 5.473)"><path class="b" d="M46.713,6.864H44.985v5.473h-.96V6.864H42.2V6h4.609Z" transform="translate(-42.2 -5.712)"/><path class="b" d="M51.941,9.833v.48H48.964a1.376,1.376,0,0,0,.48,1.056,1.622,1.622,0,0,0,.96.288,4.865,4.865,0,0,0,1.248-.192l.192.672a3.656,3.656,0,0,1-1.536.288,2.258,2.258,0,0,1-1.632-.576,2.258,2.258,0,0,1-.576-1.632,2.681,2.681,0,0,1,.576-1.728,2,2,0,0,1,1.536-.768,1.58,1.58,0,0,1,1.44.768,4.033,4.033,0,0,1,.288,1.344Zm-.96-.288a1.809,1.809,0,0,0-.192-.768.96.96,0,0,0-1.536,0,1.09,1.09,0,0,0-.288.768ZM51.365,5.8,50.212,7.144H49.54L50.308,5.8Z" transform="translate(-42.435 -5.704)"/><path class="b" d="M54.66,12.229H53.7V5.7h.96Z" transform="translate(-42.658 -5.7)"/><path class="b" d="M60.241,9.833v.48H57.264a1.376,1.376,0,0,0,.48,1.056,1.622,1.622,0,0,0,.96.288,4.865,4.865,0,0,0,1.248-.192l.192.672a3.656,3.656,0,0,1-1.536.288,2.258,2.258,0,0,1-1.632-.576,2.258,2.258,0,0,1-.576-1.632,2.681,2.681,0,0,1,.576-1.728,2,2,0,0,1,1.536-.768,1.58,1.58,0,0,1,1.44.768A2.544,2.544,0,0,1,60.241,9.833Zm-.96-.288a1.809,1.809,0,0,0-.192-.768.96.96,0,0,0-1.536,0,1.09,1.09,0,0,0-.288.768ZM59.665,5.8,58.512,7.144H57.84L58.608,5.8Z" transform="translate(-42.765 -5.704)"/><path class="b" d="M65.156,7.888l-.192.768a2.8,2.8,0,0,0-.864-.192,1.376,1.376,0,0,0-1.056.48A1.531,1.531,0,0,0,62.66,10.1a1.531,1.531,0,0,0,.384,1.152,1.312,1.312,0,0,0,1.056.384,4.225,4.225,0,0,0,.96-.192l.1.768a2.448,2.448,0,0,1-1.248.192,1.978,1.978,0,0,1-1.632-.672A2.348,2.348,0,0,1,61.7,10a2.314,2.314,0,0,1,.672-1.728A2.39,2.39,0,0,1,64.2,7.6C64.484,7.7,64.868,7.792,65.156,7.888Z" transform="translate(-42.976 -5.775)"/><path class="b" d="M70.641,12.229h-.96V9.637c0-.768-.288-1.248-.96-1.248a.925.925,0,0,0-.96.672v3.073H66.8V5.7h.96V8.389h0A1.536,1.536,0,0,1,69.1,7.62,1.44,1.44,0,0,1,70.161,8a1.984,1.984,0,0,1,.48,1.536Z" transform="translate(-43.179 -5.7)"/><path class="b" d="M76.045,12.309H75.18l-.1-.48h0a1.611,1.611,0,0,1-1.344.576,1.44,1.44,0,0,1-1.056-.384,1.706,1.706,0,0,1-.384-.96,1.3,1.3,0,0,1,.672-1.248,3.015,3.015,0,0,1,1.92-.384v-.1c0-.576-.288-.864-.96-.864a2.048,2.048,0,0,0-1.152.288l-.192-.672A2.617,2.617,0,0,1,74.124,7.7c1.152,0,1.728.576,1.728,1.824v1.632a6.791,6.791,0,0,0,.192,1.152Zm-1.056-1.536V10.1c-1.152,0-1.632.288-1.632.96a1.365,1.365,0,0,0,.192.576.734.734,0,0,0,.48.192,1.364,1.364,0,0,0,.576-.192.881.881,0,0,0,.384-.576Z" transform="translate(-43.398 -5.779)"/><path class="b" d="M80.3,8.66h-.288a.936.936,0,0,0-.864.384,1.344,1.344,0,0,0-.288.864v2.4H77.9V7.8h.864V8.66h0a1.225,1.225,0,0,1,.48-.672,1.09,1.09,0,0,1,.768-.288H80.3Z" transform="translate(-43.621 -5.78)"/><path class="b" d="M85.721,7.8v3.841a2.44,2.44,0,0,1-.672,2.016,2.258,2.258,0,0,1-1.632.576,2.436,2.436,0,0,1-1.536-.384l.192-.768a2.723,2.723,0,0,0,1.248.384c.864,0,1.344-.48,1.344-1.44v-.48h0a1.453,1.453,0,0,1-1.344.672,1.744,1.744,0,0,1-1.344-.576A2.181,2.181,0,0,1,81.4,10.1a2.348,2.348,0,0,1,.576-1.728A1.9,1.9,0,0,1,83.32,7.8a1.453,1.453,0,0,1,1.344.672h0V7.9Zm-1.056,2.593V9.624a.991.991,0,0,0-1.056-1.056.936.936,0,0,0-.864.384,2.048,2.048,0,0,0-.288,1.152,1.728,1.728,0,0,0,.288,1.056,1.008,1.008,0,0,0,.864.48,1.364,1.364,0,0,0,.576-.192.881.881,0,0,0,.384-.576A.864.864,0,0,0,84.664,10.392Z" transform="translate(-43.76 -5.783)"/><path class="b" d="M91.441,9.912v.48H88.464a1.376,1.376,0,0,0,.48,1.056,1.622,1.622,0,0,0,.96.288,4.865,4.865,0,0,0,1.248-.192l.192.672a3.656,3.656,0,0,1-1.536.288,2.258,2.258,0,0,1-1.632-.576A2.258,2.258,0,0,1,87.6,10.3a2.681,2.681,0,0,1,.576-1.728A2,2,0,0,1,89.712,7.8a1.58,1.58,0,0,1,1.44.768,2.544,2.544,0,0,1,.288,1.344Zm-.96-.288a1.809,1.809,0,0,0-.192-.768.96.96,0,0,0-1.536,0,1.091,1.091,0,0,0-.288.768Z" transform="translate(-44.007 -5.783)"/><path class="b" d="M95.5,8.66h-.288a.936.936,0,0,0-.864.384,1.344,1.344,0,0,0-.288.864v2.4H93.1V7.8h.864V8.66h0a1.224,1.224,0,0,1,.48-.672,1.09,1.09,0,0,1,.768-.288H95.5Z" transform="translate(-44.226 -5.78)"/><path class="b" d="M103.825,12.229h-.864v-.768h0a1.489,1.489,0,0,1-1.44.864,1.557,1.557,0,0,1-1.344-.672,2.258,2.258,0,0,1-.576-1.632,2.768,2.768,0,0,1,.576-1.824,2.042,2.042,0,0,1,1.44-.672,1.32,1.32,0,0,1,1.248.576h0V5.7h.96Zm-1.056-1.92V9.253a.882.882,0,0,0-.384-.576.872.872,0,0,0-.672-.288,1.008,1.008,0,0,0-.864.48,2.048,2.048,0,0,0-.288,1.152,1.728,1.728,0,0,0,.288,1.056,1.008,1.008,0,0,0,.864.48.873.873,0,0,0,.768-.384,1.173,1.173,0,0,0,.288-.864Z" transform="translate(-44.484 -5.7)"/><path class="b" d="M109.145,12.309h-.864l-.1-.48h0a1.611,1.611,0,0,1-1.344.576,1.44,1.44,0,0,1-1.056-.384,1.706,1.706,0,0,1-.384-.96,1.3,1.3,0,0,1,.672-1.248,3.015,3.015,0,0,1,1.92-.384v-.1c0-.576-.288-.864-.96-.864a2.048,2.048,0,0,0-1.152.288l-.1-.672A2.618,2.618,0,0,1,107.32,7.7c1.152,0,1.728.576,1.728,1.824v1.632A6.551,6.551,0,0,1,109.145,12.309Zm-.96-1.536V10.1c-1.152,0-1.632.288-1.632.96a1.365,1.365,0,0,0,.192.576.734.734,0,0,0,.48.192,1.364,1.364,0,0,0,.576-.192.882.882,0,0,0,.384-.576Z" transform="translate(-44.715 -5.779)"/><path class="b" d="M115.041,12.3h-.96V9.712q0-1.152-.864-1.152a.991.991,0,0,0-1.056,1.056V12.3h-.96V7.792h.864v.672h0a2.546,2.546,0,0,1,.48-.576,1.549,1.549,0,0,1,.864-.288,1.44,1.44,0,0,1,1.056.384,1.863,1.863,0,0,1,.48,1.536V12.3Z" transform="translate(-44.946 -5.776)"/><path class="b" d="M119.773,11.064a1.542,1.542,0,0,1-.48,1.056,1.771,1.771,0,0,1-1.248.384,3.067,3.067,0,0,1-1.344-.288l.192-.768a2.28,2.28,0,0,0,1.152.288c.48,0,.768-.192.768-.576a.5.5,0,0,0-.192-.384,1.563,1.563,0,0,0-.576-.288c-.768-.288-1.248-.768-1.248-1.344a1.334,1.334,0,0,1,.48-.96,1.531,1.531,0,0,1,1.152-.384,2.048,2.048,0,0,1,1.152.288l-.192.768a1.622,1.622,0,0,0-.96-.288.734.734,0,0,0-.48.192.48.48,0,0,0,0,.768,1.563,1.563,0,0,0,.576.288C119.389,10.008,119.773,10.392,119.773,11.064Z" transform="translate(-45.165 -5.783)"/></g></g></svg>