<svg xmlns="http://www.w3.org/2000/svg" viewBox="0 0 126.803 80.61" width="126.803" height="80.61"><defs><style>.a{fill:#fd5300;}</style></defs><g transform="translate(116.115 25.904)"><path class="a" d="M65.368,25.893l.725-3.442H64.1V21.365h2.174l.543-2.536H64.643V17.742H67l.725-3.442h1.449l-.543,3.442h2.536l.725-3.442h1.449L72.8,17.742h1.993v1.087H72.614l-.362,2.536h2.174v1.087H72.07l-.725,3.442H69.9l.725-3.442h-3.08l-.725,3.442Zm4.891-4.529.543-2.536H68.266l-.543,2.536Z" transform="translate(-64.1 -14.3)"/></g><path d="M39.1,55.974V0h7.065V55.974Z" transform="translate(31.728)"/><path d="M60.979,44.938a14.9,14.9,0,0,1-11.05-4.529A14.9,14.9,0,0,1,45.4,29.36a15.067,15.067,0,0,1,4.71-11.05A15.067,15.067,0,0,1,61.16,13.6a15.594,15.594,0,0,1,11.231,4.529,15.317,15.317,0,0,1,0,22.1A16.189,16.189,0,0,1,60.979,44.938Zm0-24.455A8.946,8.946,0,0,0,54.82,23.02a8.208,8.208,0,0,0-2.536,6.159A8.7,8.7,0,1,0,67.138,23.02,8.326,8.326,0,0,0,60.979,20.484Z" transform="translate(36.841 11.036)"/><path d="M45.485,41.6a11.572,11.572,0,0,0,4.166-5.434A19.559,19.559,0,0,0,51.1,29.279a15.067,15.067,0,0,0-4.71-11.05A15.3,15.3,0,0,0,35.16,13.7a15.067,15.067,0,0,0-11.05,4.71A15.067,15.067,0,0,0,19.4,29.46a15.859,15.859,0,0,0,5.978,12.318s3.261,2.536,9.782,3.442c2.355.362,4.529.906,6.159,2.536a8.946,8.946,0,0,1,2.536,6.159,8.659,8.659,0,0,1-8.7,8.7,7.482,7.482,0,0,1-6.521-3.442,13.578,13.578,0,0,1-1.811-3.623H19.4a13.942,13.942,0,0,0,2.717,6.884A14.713,14.713,0,0,0,35.16,69.493a15.47,15.47,0,0,0,11.231-4.71A15.47,15.47,0,0,0,51.1,53.552,14.107,14.107,0,0,0,45.485,41.6Zm-3.8-6.34a8.747,8.747,0,0,1-12.318,0A7.946,7.946,0,0,1,26.827,29.1a8.946,8.946,0,0,1,2.536-6.159A8.208,8.208,0,0,1,35.522,20.4a8.71,8.71,0,0,1,6.159,14.854Z" transform="translate(15.742 11.117)"/><g transform="translate(0 17.934)"><g transform="translate(0 6.884)"><path d="M19.02,13.7v6.884A9.1,9.1,0,0,1,15.76,38.155,9.2,9.2,0,0,1,6.7,29.1a9.077,9.077,0,0,1,5.8-8.514V13.7A15.75,15.75,0,1,0,31.52,29.1,16.1,16.1,0,0,0,19.02,13.7Z" transform="translate(0 -13.7)"/></g><path d="M7.4,27.471h4.529V9.9H7.4Z" transform="translate(6.005 -9.9)"/></g></svg>