<svg xmlns="http://www.w3.org/2000/svg" xmlns:xlink="http://www.w3.org/1999/xlink" viewBox="0 0 74.733 71.841" width="74.733" height="71.841"><defs><style>.a{fill:#fff;}.b{opacity:0.591;}.c{clip-path:url(#a);}.d{clip-path:url(#b);}</style><clipPath id="a"><path class="a" d="M0,13.057H51.863V-39.01H0Z" transform="translate(0 39.01)"/></clipPath><clipPath id="b"><path class="a" d="M0-16.529H22.393V-39.01H0Z" transform="translate(0 39.01)"/></clipPath></defs><g transform="translate(-1228.13 -1858.953)"><g class="b" transform="translate(1251 1897.963)"><g class="c" transform="translate(0 -39.01)"><g transform="translate(0 21.197)"><path class="a" d="M2.308,1.933c-2.727,3.588.726,3.6,1.53,2.97a1.058,1.058,0,0,0-.1-1.411A6.5,6.5,0,0,0,2.8,2.924,9.809,9.809,0,0,1,7.8.418C7.132,1.426,6.331,2.15,5.825,3.076A1.869,1.869,0,0,0,7.018,6.034c2.057.236,3.736-3.058-.355-2.429A7.893,7.893,0,0,1,9.721.346c.418-.223,1.044-.3,1-.9-.053-.691-.661-.8-1.256-.916a5.712,5.712,0,0,1-2.743-1.3c-.1-.371.152-.328.282-.4a1.3,1.3,0,0,0,.757-1.6C7.205-6.3,4.728-6.011,4.713-4.4,4.693-2.358,7.041-1.517,7.419-.938a4.34,4.34,0,0,1-3.307-.53C3.557-1.8,3.06-1.98,3.144-2.885c.092-.992-1.006-1.479-1.914-1C-.812-2.806,2.556-1.08,4.137-.067c-2.429.539-2.928-.017-5.87-.966-1.157-.376-.183.04-4.7,3C-7.98,2.976-5.4,2.821-2.213,4.348c.4.194.6-.092.869-.355A8.126,8.126,0,0,1,2.308,1.933" transform="translate(6.896 5.776)"/></g><g transform="translate(15.835 0)"><path class="a" d="M.844,2.264C-3.106.092-2.612,3.512-1.868,4.214a1.057,1.057,0,0,0,1.38-.307A6.578,6.578,0,0,0-.063,2.9,9.793,9.793,0,0,1,3.149,7.476C2.054,6.961,1.22,6.275.231,5.91A1.87,1.87,0,0,0-2.52,7.527c.067,2.067,3.574,3.245,2.35-.709A7.892,7.892,0,0,1,3.5,9.364c.28.379.45.988,1.03.856.675-.153.69-.771.722-1.379a5.709,5.709,0,0,1,.888-2.9c.354-.151.346.1.439.219a1.3,1.3,0,0,0,1.7.515c1.428-.773.779-3.179-.814-2.96C5.439,3.994,4.952,6.437,4.434,6.9A4.346,4.346,0,0,1,4.471,3.55c.244-.6.354-1.116,1.261-1.167.993-.056,1.315-1.213.707-2.039C5.075-1.519,3.864,2.068,3.091,3.78,2.2,1.456,2.678.88,3.186-2.169c.2-1.2-.068-.176-3.658-4.211C-1.7-7.76-1.165-5.225-2.207-1.854c-.132.43.179.581.478.807A8.113,8.113,0,0,1,.844,2.264" transform="translate(2.521 6.764)"/></g><g transform="translate(33.718 8.622)"><path class="a" d="M1.851,1.08C2.932-3.3-.244-1.937-.731-1.039A1.058,1.058,0,0,0-.079.216,6.78,6.78,0,0,0,1.006.368a9.833,9.833,0,0,1-3.6,4.284c.215-1.192.663-2.174.761-3.225C-1.668-.313-3.01-1.144-4.1-.813c-1.979.6-2.214,4.29,1.291,2.087A7.9,7.9,0,0,1-4.322,5.48c-.3.37-.838.69-.561,1.217.322.614.921.467,1.518.342a5.69,5.69,0,0,1,3.034.109c.236.3-.009.36-.1.48A1.3,1.3,0,0,0-.49,9.4C.625,10.58,2.783,9.332,2.16,7.849c-.794-1.883-3.281-1.724-3.86-2.1a4.346,4.346,0,0,1,3.246-.828C2.186,5,2.715,4.969,3,5.834a1.208,1.208,0,0,0,2.152.159C6.6,4.192,2.82,3.945.968,3.642,2.983,2.182,3.662,2.5,6.739,2.2c1.211-.115.152-.111,3.126-4.622,1.017-1.536-1.295-.37-4.821-.507-.45-.019-.515.32-.658.67A8.1,8.1,0,0,1,1.851,1.08" transform="translate(5.531 3.225)"/></g><g transform="translate(35.761 26.905)"><path class="a" d="M2.136,1.685C6.5.567,3.8-1.588,2.782-1.592c-.422,0-.889.641-.8,1.168A6.8,6.8,0,0,0,2.363.6,9.822,9.822,0,0,1-3.111-.54C-1.96-.914-.883-.984.089-1.395a1.87,1.87,0,0,0,.9-3.06C-.472-5.918-3.835-4.379-.238-2.332a7.877,7.877,0,0,1-4.422.654c-.464-.084-1.005-.411-1.337.083-.388.574.024,1.033.415,1.5A5.7,5.7,0,0,1-4.244,2.628c-.155.351-.323.161-.47.14a1.3,1.3,0,0,0-1.59.785c-.513,1.54,1.607,2.852,2.619,1.6,1.285-1.59-.031-3.706.031-4.4A4.345,4.345,0,0,1-1.39,3.229c.23.6.506,1.054-.121,1.712-.687.718-.131,1.785.876,1.971,2.272.426.7-3.02.1-4.8,2.24,1.088,2.285,1.834,4,4.4.674,1.013.17.083,5.548.57,1.838.171-.284-1.315-1.83-4.489-.2-.4-.527-.3-.9-.263a8.126,8.126,0,0,1-4.14-.654" transform="translate(6.382 5.033)"/></g><g transform="translate(18.601 34.295)"><path class="a" d="M1.588,2.205c2.656,3.642,3.658.336,3.282-.615a1.056,1.056,0,0,0-1.379-.307,6.762,6.762,0,0,0-.814.731A9.821,9.821,0,0,1,1.71-3.492c.774.93,1.237,1.9,1.979,2.656a1.87,1.87,0,0,0,3.177-.3c.817-1.9-1.859-4.454-2.428-.354A7.894,7.894,0,0,1,2.192-5.353C2.1-5.816,2.2-6.438,1.621-6.565c-.677-.148-.952.406-1.237.942A5.708,5.708,0,0,1-1.652-3.371c-.384-.013-.27-.24-.3-.384-.195-.8-.667-1.225-1.319-1.187-1.619.095-2.054,2.549-.518,3.026C-1.84-1.31-.361-3.318.3-3.515A4.337,4.337,0,0,1-1.152-.5c-.475.438-.791.861-1.636.521C-3.71-.349-4.495.562-4.294,1.569-3.849,3.834-1.23,1.1.2-.121c-.18,2.481-.858,2.8-2.609,5.347-.691,1-.015.187,1.526,5.366C-.366,12.36.228,9.839,2.6,7.228c.3-.332.085-.6-.088-.933a8.122,8.122,0,0,1-.926-4.09" transform="translate(4.743 6.589)"/></g><g transform="translate(14.648 10.94)"><path class="a" d="M.508,5.409c.92-.18,3.076-5.719,3.342-6.437A1.029,1.029,0,0,0,3.6-2.108C2.8-3.126,2.005-4.143,1.258-5.193A1.937,1.937,0,0,0-.208-6.158c-1.184-.267-1.475-.725-1.229-1.931a1.468,1.468,0,0,1,2.705-.32c.33.642.178.171,5.313.116,1.767-.019,1.771-.7,5.482-4.81a1.588,1.588,0,0,0,.513-1.428,1.682,1.682,0,0,1,.952-1.536,1.985,1.985,0,0,1,1.965.513,1.193,1.193,0,0,1,.117,1.579,1.725,1.725,0,0,0-.206,1.329c1.46,9.055-.308,5.758,6.128,8.171a2.005,2.005,0,0,0,1.058.14,2.692,2.692,0,0,1,1.44.254A1.767,1.767,0,0,1,24.957-2.1,1.608,1.608,0,0,1,23.245-.945a2.608,2.608,0,0,0-2.027.46c-5.392,3.492-2.954.807-4.407,8.323-.227,1.183.011,1.61.251,1.922a1.488,1.488,0,1,1-2.188,1.959,1.217,1.217,0,0,1-.272-.914c.013-1.09-1.986-2.154-4.35-5.626a1.247,1.247,0,0,0-1.506-.418C-.106,7.183,3.664,7.006,1.426,8.4a1.089,1.089,0,0,1-1.232,0c-.89-.653-1-2.732.314-2.988M8.053,1.5C12.164-.326,10.274-1.351,13.3,2.91a.4.4,0,0,0,.467.172c-.061-1.121.554-2.218.067-3.42-.157-.386.251-.657.674-.757,1.072-.252,1.815-1.058,2.923-1.554-.63-.359-1.116-.19-1.548-.326-2.863-.9-2.4.639-3.044-3.868-.679.19-1.017.892-1.4,1.486-.837,1.309-1.328.9-4.6.364,2.344,3.5,2.361,2.249.573,5.947a.836.836,0,0,0-.148.619c.279.255.547.029.778-.072" transform="translate(1.517 16.162)"/></g></g></g><g class="b" transform="translate(1217.505 1929.062) rotate(40)"><g class="d" transform="translate(0 -39.01)"><g transform="translate(0 9.152)"><path class="a" d="M-2.922-2.447C-4.1-.9-2.608-.893-2.261-1.165A.457.457,0,0,0-2.3-1.774a2.806,2.806,0,0,0-.4-.245A4.235,4.235,0,0,1-.55-3.1c-.289.435-.635.747-.853,1.147A.807.807,0,0,0-.888-.677C0-.575.725-2-1.041-1.726A3.408,3.408,0,0,1,.279-3.133c.18-.1.451-.13.431-.387-.023-.3-.285-.343-.542-.4a2.466,2.466,0,0,1-1.184-.563c-.041-.16.066-.142.122-.173a.56.56,0,0,0,.327-.692c-.239-.659-1.309-.534-1.315.16-.009.883,1.005,1.246,1.168,1.5a1.874,1.874,0,0,1-1.428-.229c-.239-.142-.454-.221-.418-.612.04-.428-.435-.639-.826-.432-.882.466.573,1.211,1.255,1.649-1.049.233-1.264-.007-2.535-.417-.5-.163-.079.017-2.031,1.3-.666.436.45.369,1.824,1.028.175.084.259-.04.375-.153a3.509,3.509,0,0,1,1.577-.889" transform="translate(6.896 5.776)"/></g><g transform="translate(6.837 0)"><path class="a" d="M-1.068-2.866c-1.705-.938-1.492.539-1.171.842a.456.456,0,0,0,.6-.133,2.84,2.84,0,0,0,.184-.435A4.228,4.228,0,0,1-.073-.615c-.473-.222-.833-.519-1.26-.676a.807.807,0,0,0-1.188.7C-2.491.3-.977.807-1.505-.9A3.407,3.407,0,0,1,.08.2C.2.364.275.627.525.569.817.5.823.236.837-.026A2.465,2.465,0,0,1,1.22-1.279c.153-.065.149.044.19.095a.56.56,0,0,0,.732.222c.617-.334.337-1.373-.352-1.278C.916-2.119.706-1.064.482-.864A1.877,1.877,0,0,1,.5-2.31c.105-.258.153-.482.545-.5.429-.024.568-.524.305-.881C.759-4.5.236-2.951-.1-2.211c-.384-1-.179-1.252.041-2.569C.03-5.3-.086-4.856-1.636-6.6c-.528-.6-.3.5-.749,1.954-.057.186.077.251.206.349A3.5,3.5,0,0,1-1.068-2.866" transform="translate(2.521 6.764)"/></g><g transform="translate(14.558 3.723)"><path class="a" d="M-2.343-1.367c.467-1.89-.9-1.3-1.115-.915a.457.457,0,0,0,.282.542,2.928,2.928,0,0,0,.469.066A4.245,4.245,0,0,1-4.261.176c.093-.515.286-.939.328-1.392.069-.751-.51-1.111-.981-.968-.855.258-.956,1.852.557.9A3.41,3.41,0,0,1-5.009.533c-.128.16-.362.3-.242.526.139.265.4.2.655.148a2.457,2.457,0,0,1,1.31.047c.1.131,0,.156-.043.207a.56.56,0,0,0-.026.765c.481.509,1.413-.029,1.144-.67C-2.553.743-3.627.812-3.877.647A1.876,1.876,0,0,1-2.475.29c.277.035.5.022.627.4A.521.521,0,0,0-.919.755C-.294-.023-1.925-.129-2.725-.26c.87-.63,1.164-.5,2.492-.623.523-.05.066-.048,1.35-2,.439-.663-.559-.16-2.082-.219-.194-.008-.222.138-.284.289A3.5,3.5,0,0,1-2.343-1.367" transform="translate(5.531 3.225)"/></g><g transform="translate(15.441 11.617)"><path class="a" d="M-2.7-2.132c1.885-.482.72-1.413.279-1.415-.182,0-.384.277-.345.5a2.935,2.935,0,0,0,.164.444A4.241,4.241,0,0,1-4.97-3.093c.5-.161.962-.191,1.381-.369A.807.807,0,0,0-3.2-4.783c-.632-.632-2.084.033-.531.917a3.4,3.4,0,0,1-1.909.282c-.2-.036-.434-.177-.577.036-.168.248.01.446.179.647a2.461,2.461,0,0,1,.578,1.177c-.067.152-.139.07-.2.061a.561.561,0,0,0-.686.339c-.221.665.694,1.232,1.131.692.555-.686-.013-1.6.013-1.9a1.876,1.876,0,0,1,.977,1.067c.1.26.218.455-.052.739-.3.31-.056.77.378.851.981.184.3-1.3.041-2.071.967.47.987.792,1.727,1.9.291.437.073.036,2.4.246C1.056.275.14-.366-.527-1.737c-.085-.174-.228-.13-.389-.114A3.509,3.509,0,0,1-2.7-2.132" transform="translate(6.382 5.033)"/></g><g transform="translate(8.031 14.808)"><path class="a" d="M-2.01-2.792c1.147,1.573,1.58.145,1.417-.266a.456.456,0,0,0-.6-.133,2.92,2.92,0,0,0-.352.316,4.24,4.24,0,0,1-.417-2.378c.334.4.534.822.855,1.147A.807.807,0,0,0,.269-4.233c.353-.821-.8-1.923-1.048-.153a3.408,3.408,0,0,1-.97-1.67c-.04-.2,0-.469-.247-.523-.292-.064-.411.175-.534.407a2.464,2.464,0,0,1-.879.972c-.166-.006-.116-.1-.131-.166-.084-.345-.288-.529-.569-.512-.7.041-.887,1.1-.224,1.306.843.262,1.482-.605,1.768-.69a1.872,1.872,0,0,1-.628,1.3c-.205.189-.342.372-.707.225-.4-.16-.736.233-.65.668.192.978,1.323-.2,1.939-.73-.078,1.071-.371,1.21-1.127,2.309-.3.432-.006.081.659,2.317C-2.854,1.592-2.6.5-1.572-.623c.131-.143.037-.259-.038-.4a3.507,3.507,0,0,1-.4-1.766" transform="translate(4.743 6.589)"/></g><g transform="translate(6.325 4.724)"><path class="a" d="M-.643-6.848C-.246-6.926.685-9.317.8-9.627a.444.444,0,0,0-.11-.466c-.342-.44-.686-.879-1.009-1.332a.836.836,0,0,0-.633-.417c-.511-.115-.637-.313-.531-.834a.634.634,0,0,1,1.168-.138c.142.277.077.074,2.294.05.763-.008.765-.3,2.367-2.077a.686.686,0,0,0,.221-.617.726.726,0,0,1,.411-.663.857.857,0,0,1,.848.221.515.515,0,0,1,.051.682.745.745,0,0,0-.089.574c.63,3.91-.133,2.486,2.646,3.528a.866.866,0,0,0,.457.061,1.162,1.162,0,0,1,.622.109.763.763,0,0,1,.4.855.694.694,0,0,1-.739.5,1.126,1.126,0,0,0-.875.2C5.971-7.885,7.023-9.044,6.4-5.8c-.1.511,0,.7.108.83a.643.643,0,0,1,.161.8.644.644,0,0,1-.87.266.64.64,0,0,1-.235-.22.525.525,0,0,1-.118-.395c.006-.471-.858-.93-1.878-2.429a.538.538,0,0,0-.65-.18C-.908-6.082.72-6.159-.246-5.559a.47.47,0,0,1-.532,0c-.384-.282-.43-1.18.135-1.29M2.615-8.535c1.775-.79.959-1.232,2.267.607a.173.173,0,0,0,.2.074c-.027-.484.239-.958.029-1.476-.068-.167.108-.284.291-.327a7.989,7.989,0,0,0,1.262-.671c-.272-.155-.482-.082-.668-.141-1.236-.391-1.037.276-1.315-1.67-.293.082-.439.385-.6.641-.361.565-.573.387-1.984.157,1.012,1.512,1.019.971.247,2.568a.361.361,0,0,0-.064.267c.12.11.236.013.336-.031" transform="translate(1.517 16.162)"/></g></g></g></g></svg>