<svg version="1.1" id="Calque_1" xmlns="http://www.w3.org/2000/svg" xmlns:xlink="http://www.w3.org/1999/xlink" x="0px" y="0px" width="137" height="112" viewBox="0 0 137 112" enable-background="new 0 0 137 112" xml:space="preserve">
<path fill="#FD5300" d="M48.5,45.9c0,1.5,1.2,2.7,2.7,2.7s2.7-1.2,2.7-2.7c0-1.5-1.2-2.7-2.7-2.7C49.7,43.3,48.5,44.5,48.5,45.9z"/>
<path fill="#FD5300" d="M96.3,25.7L96.3,25.7c-0.1-0.1-0.2-0.2-0.4-0.2c-0.8-0.5-1.8-0.5-2.5,0c-0.1,0-0.1,0.1-0.1,0.1c0,0,0,0,0,0
	l-0.1,0.1c-0.1,0-0.2,0-0.2,0.1L68,52.8l-9.6-5.5c-1.2-0.7-2.6-0.3-3.3,0.9c-0.7,1.2-0.3,2.6,0.9,3.3c0,0,0.1,0,0.1,0l11.3,6.4h0.1
	c0.1,0.1,0.2,0.1,0.5,0.1h0.1c0.1,0,0.4,0.1,0.5,0.1l0,0c0.2,0,0.4,0,0.6-0.1h0.1c0.1,0,0.2-0.1,0.4-0.1c0.1,0,0.1-0.1,0.1-0.1
	c0,0,0,0,0,0c0.1-0.1,0.2-0.1,0.4-0.2l0.1-0.1l0,0L94.7,31c13.3,14.3,12.5,36.7-1.8,50s-36.7,12.5-50-1.8s-12.5-36.7,1.8-50
	C55.8,18.9,72.3,16.8,85.6,24c1.2,0.6,2.6,0.1,3.3-1c0.6-1.2,0.2-2.6-1-3.2c-20-10.8-45-3.2-55.8,16.8s-3.2,45,16.8,55.8
	s45,3.2,55.8-16.8C113.6,58.9,110.1,38.4,96.3,25.7z"/>
<path fill="#FD5300" d="M66.1,25.3v4.5c0,1.3,1.1,2.4,2.4,2.4c1.3,0,2.4-1.1,2.4-2.4c0,0,0,0,0,0v-4.5c0-1.3-1.1-2.4-2.4-2.4
	C67.2,22.9,66.1,24,66.1,25.3z"/>
<path fill="#FD5300" d="M70.9,86.9v-4.5c0-1.3-1.1-2.4-2.4-2.4c-1.3,0-2.4,1.1-2.4,2.4v4.5c0,1.3,1.1,2.4,2.4,2.4
	C69.8,89.4,70.9,88.3,70.9,86.9L70.9,86.9z"/>
<path fill="#FD5300" d="M37.6,53.6c-1.3,0-2.4,1.1-2.4,2.4c0,1.3,1.1,2.4,2.4,2.4h4.5c1.3,0,2.4-1.1,2.4-2.4c0-1.3-1.1-2.4-2.4-2.4
	C42.1,53.6,37.6,53.6,37.6,53.6z"/>
<path fill="#FD5300" d="M100,58.4c1.3,0,2.4-1.1,2.4-2.4c0-1.3-1.1-2.4-2.4-2.4h-4.5c-1.3,0-2.4,1.1-2.4,2.4c0,1.3,1.1,2.4,2.4,2.4
	H100z"/>
</svg>
