<svg xmlns="http://www.w3.org/2000/svg" viewBox="0 0 19.36 19.056"><defs><style>.a{fill:#fff;}.b{fill:#c3291d;}</style></defs><g transform="translate(0.008)"><g transform="translate(4.395)"><path class="a" d="M66.177,10.554a5.277,5.277,0,1,1,5.277-5.277A5.279,5.279,0,0,1,66.177,10.554Zm0-9.4A4.121,4.121,0,1,0,70.3,5.277,4.128,4.128,0,0,0,66.177,1.157Z" transform="translate(-60.9)"/></g><g transform="translate(-0.008 3.282)"><path class="b" d="M21.866,68.017H12.4a2.336,2.336,0,0,1-2.284-1.865L8.08,56.2a2.331,2.331,0,0,1,2.284-2.8H23.9a2.331,2.331,0,0,1,2.284,2.8l-2.031,9.954A2.336,2.336,0,0,1,21.866,68.017Z" transform="translate(-7.451 -52.822)"/><path class="a" d="M14.407,61.174H4.937a2.916,2.916,0,0,1-2.848-2.328L.051,48.892A2.914,2.914,0,0,1,2.906,45.4H16.439a2.914,2.914,0,0,1,2.855,3.492l-2.031,9.954A2.93,2.93,0,0,1,14.407,61.174ZM2.906,46.557a1.738,1.738,0,0,0-1.359.643,1.771,1.771,0,0,0-.361,1.46l2.031,9.954a1.764,1.764,0,0,0,1.721,1.4h9.47a1.764,1.764,0,0,0,1.721-1.4l2.031-9.954a1.754,1.754,0,0,0-1.721-2.1Z" transform="translate(0.008 -45.4)"/></g></g></svg>