<svg xmlns="http://www.w3.org/2000/svg" viewBox="0 0 36.887 48.834"><defs><style>.a{fill:#fff;}</style></defs><g transform="translate(-0.041)"><g transform="translate(3.408 12.434)"><path class="a" d="M32.4,91.183H21.283a1.26,1.26,0,0,1-1.112-1.854L28.091,74.5a1.259,1.259,0,1,1,2.224,1.18L23.39,88.655h7.751V83.347a1.264,1.264,0,1,1,2.528,0v6.572A1.273,1.273,0,0,1,32.4,91.183Z" transform="translate(-20.024 -73.824)"/><path class="a" d="M130.385,91.146H119.264A1.273,1.273,0,0,1,118,89.882V83.31a1.264,1.264,0,0,1,2.528,0v5.308h7.751l-6.926-12.975a1.259,1.259,0,0,1,2.224-1.18l7.92,14.829a1.26,1.26,0,0,1-1.112,1.854Z" transform="translate(-101.49 -73.787)"/></g><g transform="translate(0.041 34.672)"><path class="a" d="M27.753,219.988a1.352,1.352,0,0,1-.506-.1L.792,208.26a1.264,1.264,0,0,1,1.028-2.309l26.456,11.627a1.259,1.259,0,0,1,.64,1.668A1.3,1.3,0,0,1,27.753,219.988Z" transform="translate(-0.041 -205.826)"/><path class="a" d="M48.227,219.918a1.269,1.269,0,0,1-.522-2.427L74.16,205.864a1.264,1.264,0,1,1,1.028,2.309L48.732,219.8A1.109,1.109,0,0,1,48.227,219.918Z" transform="translate(-39.05 -205.756)"/></g><path class="a" d="M85.719,9.639a4.819,4.819,0,1,1,4.819-4.819A4.818,4.818,0,0,1,85.719,9.639Zm0-7.162a2.342,2.342,0,1,0,2.342,2.342A2.348,2.348,0,0,0,85.719,2.477Z" transform="translate(-67.234)"/></g></svg>