<?xml version="1.0" encoding="utf-8"?>
<!-- Generator: Adobe Illustrator 22.1.0, SVG Export Plug-In . SVG Version: 6.00 Build 0)  -->
<svg version="1.1" id="Calque_1" xmlns="http://www.w3.org/2000/svg" xmlns:xlink="http://www.w3.org/1999/xlink" x="0px" y="0px"
	width="64" height="60"  viewBox="0 0 64 60" style="enable-background:new 0 0 64 60;" xml:space="preserve">
<style type="text/css">
	.st0{fill:#161615;}
</style>
<g id="Cuisine_-_Cuisson" transform="translate(31.993 29.087)">
	<g id="Cuisine_-_Cuisson-2" transform="translate(-31.993 -29.087)">
		<path id="Tracé_5463" class="st0" d="M46,4.9c-0.7,0-1.4,0-2.1,0.1c-6.7-5.5-16.3-5.5-23,0.1C11,3.6,1.7,10.4,0.2,20.3
			C-1.1,29,4,37.4,12.4,40.2v16.9c0,1.1,0.9,2,2,2h24.9c1.1,0,2-0.9,2-2s-0.9-2-2-2H16.4V38.7c0-0.9-0.6-1.7-1.5-1.9
			C7.3,34.8,2.7,27.2,4.6,19.6c1.8-7.3,9-11.9,16.4-10.4c0.6,0.1,1.3,0,1.8-0.5c5.3-5,13.6-5.1,19-0.1c0.5,0.4,1.1,0.6,1.7,0.5
			c7.7-1.2,14.9,4,16.1,11.7c1.1,7.2-3.4,14.1-10.5,15.9c-0.9,0.2-1.5,1-1.5,1.9v18.4c0,1.1,0.9,2,2,2s2-0.9,2-2V40.2
			c9.5-3.2,14.6-13.4,11.5-22.9C60.6,9.9,53.7,4.9,46,4.9L46,4.9z"/>
		<path id="Tracé_5464" class="st0" d="M29.6,47.3c0,1.5,1.2,2.7,2.7,2.7c1.5,0,2.7-1.2,2.7-2.7c0-1.5-1.2-2.7-2.7-2.7
			C30.8,44.7,29.6,45.9,29.6,47.3C29.6,47.3,29.6,47.3,29.6,47.3z"/>
	</g>
</g>
</svg>
