<svg xmlns="http://www.w3.org/2000/svg" xmlns:xlink="http://www.w3.org/1999/xlink" width="43.167" height="49.047" viewBox="0 0 43.167 49.047">
  <defs>
    <style>
      .cls-1 {
        fill: none;
      }

      .cls-2 {
        clip-path: url(#clip-path);
      }

      .cls-3 {
        fill: #2b2e34;
      }
    </style>
    <clipPath id="clip-path">
      <path id="Tracé_1392" data-name="Tracé 1392" class="cls-1" d="M177.994-141.862h43.167v-49.047H177.994Z" transform="translate(0 0)"/>
    </clipPath>
  </defs>
  <g id="Groupe_4202" data-name="Groupe 4202" class="cls-2" transform="translate(-177.994 190.909)">
    <g id="Groupe_4199" data-name="Groupe 4199" transform="translate(177.995 -188.105)">
      <path id="Tracé_1389" data-name="Tracé 1389" class="cls-3" d="M20.184,9.725a1.408,1.408,0,0,0-1.407,1.407V28.773a5.956,5.956,0,0,1-5.958,5.971H-9.257a5.99,5.99,0,0,1-5.958-5.979v-17.7a.574.574,0,0,1,.167-.407L1.319-5.706a.572.572,0,0,1,.407-.167.556.556,0,0,1,.4.163L3.744-4.074,9.308,1.471a1.406,1.406,0,0,0,2.4-1v-2.19h4.2V.591a1.406,1.406,0,0,0,2.813,0V-2.45A2.081,2.081,0,0,0,16.64-4.53H10.972A2.082,2.082,0,0,0,8.937-2.872L5.739-6.06,4.122-7.694a3.364,3.364,0,0,0-2.4-.992,3.364,3.364,0,0,0-2.4.992L-17.036,8.673a3.355,3.355,0,0,0-.992,2.4V28.775a8.805,8.805,0,0,0,8.771,8.781H12.818a8.771,8.771,0,0,0,8.773-8.788V11.132a1.407,1.407,0,0,0-1.407-1.407" transform="translate(18.028 8.686)"/>
    </g>
    <g id="Groupe_4200" data-name="Groupe 4200" transform="translate(191.671 -180.987)">
      <path id="Tracé_1390" data-name="Tracé 1390" class="cls-3" d="M15.228.177a1.407,1.407,0,0,0-1.984.159L-6.034,22.967l-5.11-5.721a1.41,1.41,0,0,0-1.988-.11,1.405,1.405,0,0,0-.11,1.986l6.185,6.923a1.406,1.406,0,0,0,1.049.468h.017a1.4,1.4,0,0,0,1.053-.494L15.387,2.161A1.409,1.409,0,0,0,15.228.177" transform="translate(13.601 0.159)"/>
    </g>
    <g id="Groupe_4201" data-name="Groupe 4201" transform="translate(208.179 -190.91)">
      <path id="Tracé_1391" data-name="Tracé 1391" class="cls-3" d="M1.115,2.231A2.111,2.111,0,0,0,3.226.12,2.111,2.111,0,1,0-1,.12,2.111,2.111,0,0,0,1.115,2.231" transform="translate(0.996 1.993)"/>
    </g>
  </g>
</svg>
