<svg xmlns="http://www.w3.org/2000/svg" width="66.502" height="30.685" viewBox="0 0 66.502 30.685">
  <defs>
    <style>
      .cls-1 {
        fill: #161615;
      }
    </style>
  </defs>
  <g id="Magasin" transform="translate(59.564 27.484)">
    <g id="Magasin-2" data-name="Magasin" transform="translate(-59.564 -27.484)">
      <path id="Tracé_1405" data-name="Tracé 1405" class="cls-1" d="M62.215,0H4A4.005,4.005,0,0,0,0,4V29.06a1.116,1.116,0,1,0,2.233,0V4A1.77,1.77,0,0,1,4,2.233H62.215a2.057,2.057,0,0,1,2.054,2.054v22.4a1.771,1.771,0,0,1-1.77,1.77H46.418V15.37a1.163,1.163,0,0,0-1.144-1.144H21.535a1.116,1.116,0,0,0-1.116,1.116v13.11H7.611a1.116,1.116,0,1,0,0,2.233H62.5a4.007,4.007,0,0,0,4-4V4.287A4.292,4.292,0,0,0,62.215,0ZM44.185,16.459V28.452H34.367V16.459Zm-21.533,0h9.482V28.452H22.652Z" transform="translate(0 0)"/>
      <path id="Tracé_1406" data-name="Tracé 1406" class="cls-1" d="M98.7,14.434a1.416,1.416,0,1,0-1.416,1.416A1.416,1.416,0,0,0,98.7,14.434Z" transform="translate(-42.353 -5.751)"/>
    </g>
  </g>
</svg>
