<svg xmlns="http://www.w3.org/2000/svg" width="69.998" height="57.674" viewBox="0 0 69.998 57.674">
  <defs>
    <style>
      .cls-1 {
        fill: #161615;
      }
    </style>
  </defs>
  <g id="reprise" transform="translate(34.999 28.837)">
    <g id="Groupe_8259" data-name="Groupe 8259" transform="translate(-34.999 -28.837)">
      <path id="Tracé_5467" data-name="Tracé 5467" class="cls-1" d="M62.318,34.433a1.766,1.766,0,0,0-1.981,1.528A25.39,25.39,0,0,1,57.3,45.123a1.9,1.9,0,0,0-.141.211,25.534,25.534,0,0,1-3.42,4.677q-.606.652-1.26,1.263a.961.961,0,0,0-.089.094A25.283,25.283,0,0,1,10.767,39.22a1.727,1.727,0,0,0-.179-.452A1.772,1.772,0,0,0,8.177,38.1a1.737,1.737,0,0,0-.391.3L.743,45.279A1.769,1.769,0,0,0,3.216,47.81l5.012-4.9a28.853,28.853,0,0,0,55.618-6.5,1.768,1.768,0,0,0-1.528-1.977Z" transform="translate(-0.21 -3.963)"/>
      <path id="Tracé_5468" data-name="Tracé 5468" class="cls-1" d="M70.624,14.163a1.769,1.769,0,0,0-2.5-.029l-5.012,4.9A28.811,28.811,0,0,0,17.126,7.476a1.757,1.757,0,0,0-.466.31A29.024,29.024,0,0,0,8.889,19.71a1.77,1.77,0,0,0,3.35,1.141,25.079,25.079,0,0,1,1.6-3.692,1.786,1.786,0,0,0,.189-.276c.336-.606.7-1.208,1.091-1.786a25.27,25.27,0,0,1,45.454,7.625,1.775,1.775,0,0,0,1.247,1.287,1.721,1.721,0,0,0,.472.064,1.681,1.681,0,0,0,.268-.021,1.764,1.764,0,0,0,.99-.506l7.044-6.883A1.769,1.769,0,0,0,70.624,14.163Z" transform="translate(-1.127 -0.32)"/>
      <path id="Tracé_5469" data-name="Tracé 5469" class="cls-1" d="M45.452,25.287A8.869,8.869,0,0,0,31.017,28.03l-.053.121h-.875a1.438,1.438,0,0,0,0,2.877h7.395a1.438,1.438,0,0,0,0-2.877H34.2l.259-.327a5.992,5.992,0,0,1,8.955-.512,1.438,1.438,0,0,0,2.039-2.026Z" transform="translate(-3.249 -2.708)"/>
      <path id="Tracé_5470" data-name="Tracé 5470" class="cls-1" d="M37.8,36.681a1.438,1.438,0,0,0-.145-2.87H30.261a1.438,1.438,0,1,0,0,2.877h.991l.056.109A8.861,8.861,0,0,0,45.455,39a1.439,1.439,0,0,0-2.035-2.034,5.984,5.984,0,0,1-8.4.068l-.357-.346h2.989C37.7,36.688,37.751,36.685,37.8,36.681Z" transform="translate(-3.267 -3.898)"/>
      <path id="Tracé_5471" data-name="Tracé 5471" class="cls-1" d="M8.819,29.958a1.952,1.952,0,1,0-1.952-1.952A1.952,1.952,0,0,0,8.819,29.958Z" transform="translate(-0.922 -3.069)"/>
    </g>
  </g>
</svg>
