<?xml version="1.0" encoding="utf-8"?>
<svg version="1.1" id="Calque_1" xmlns="http://www.w3.org/2000/svg" xmlns:xlink="http://www.w3.org/1999/xlink" x="0px" y="0px"
	width="70" height="60" viewBox="0 0 70 60" style="enable-background:new 0 0 70 60;" xml:space="preserve">
<style type="text/css">
	.st0{fill:#161615;}
</style>
<g id="reprise" transform="translate(34.999 28.837)">
	<g id="Groupe_8259" transform="translate(-34.999 -28.837)">
		<path id="Tracé_5467" class="st0" d="M62.1,31.6c-1-0.1-1.9,0.6-2,1.5c0,0,0,0,0,0c-0.4,3.2-1.4,6.3-3,9.2
			c-0.1,0.1-0.1,0.1-0.1,0.2c-1,1.7-2.1,3.3-3.4,4.7c-0.4,0.4-0.8,0.9-1.3,1.3c0,0-0.1,0.1-0.1,0.1c-10.3,9.5-26.2,8.9-35.7-1.4
			c-2.8-3-4.8-6.7-5.9-10.8c0-0.2-0.1-0.3-0.2-0.5c-0.5-0.8-1.6-1.1-2.4-0.7c-0.1,0.1-0.3,0.2-0.4,0.3l-7,6.9
			c-0.7,0.7-0.7,1.8,0,2.5c0.7,0.7,1.8,0.7,2.5,0l5-4.9C13.6,55,30.3,62.6,45.2,56.9c10-3.8,17.1-12.7,18.4-23.3
			C63.8,32.6,63.1,31.8,62.1,31.6z"/>
		<path id="Tracé_5468" class="st0" d="M69.5,15c-0.7-0.7-1.8-0.7-2.5,0l-5,4.9C56.4,5,39.8-2.6,24.9,3c-3.3,1.2-6.3,3-8.9,5.3
			c-0.2,0.1-0.3,0.2-0.5,0.3C12,11.9,9.3,16,7.8,20.6c-0.3,0.9,0.2,1.9,1.2,2.2c0.9,0.3,1.9-0.2,2.2-1.1c0.4-1.3,1-2.5,1.6-3.7
			c0.1-0.1,0.1-0.2,0.2-0.3c0.3-0.6,0.7-1.2,1.1-1.8C21.7,4.3,37.4,1.2,49,9c5.1,3.4,8.8,8.6,10.4,14.6c0.2,0.6,0.6,1.1,1.2,1.3
			c0.2,0,0.3,0.1,0.5,0.1c0.1,0,0.2,0,0.3,0c0.4-0.1,0.7-0.2,1-0.5l7-6.9C70.2,16.8,70.2,15.7,69.5,15z"/>
		<path id="Tracé_5469" class="st0" d="M42.2,23.7c-3.5-3.5-9.1-3.5-12.5,0c-0.8,0.8-1.4,1.7-1.9,2.8l-0.1,0.1h-0.9
			c-0.8,0-1.4,0.6-1.4,1.4c0,0.8,0.6,1.4,1.4,1.4h7.4c0.8,0,1.4-0.6,1.4-1.4c0-0.8-0.6-1.4-1.4-1.4H31l0.3-0.3c2-2.6,5.8-3,8.4-1
			c0.2,0.1,0.4,0.3,0.5,0.5c0.6,0.5,1.5,0.5,2-0.1C42.7,25.2,42.7,24.3,42.2,23.7L42.2,23.7z"/>
		<path id="Tracé_5470" class="st0" d="M34.5,33.9c0.8-0.1,1.4-0.8,1.3-1.6c-0.1-0.7-0.7-1.3-1.4-1.3H27c-0.8,0-1.4,0.6-1.4,1.4
			S26.2,34,27,34l0,0h1l0.1,0.1c2.2,4.4,7.6,6.1,11.9,3.8c0.8-0.4,1.6-1,2.2-1.6c0.5-0.6,0.5-1.5,0-2c-0.6-0.5-1.4-0.5-2,0
			c-2.3,2.3-6.1,2.3-8.4,0.1L31.4,34h3C34.4,34,34.5,34,34.5,33.9z"/>
		<path id="Tracé_5471" class="st0" d="M7.9,28.1c1.1,0,2-0.9,2-2s-0.9-2-2-2s-2,0.9-2,2l0,0C5.9,27.2,6.8,28.1,7.9,28.1z"/>
	</g>
</g>
</svg>
