<svg xmlns="http://www.w3.org/2000/svg" xmlns:xlink="http://www.w3.org/1999/xlink" width="53.236" height="39.258" viewBox="0 0 53.236 39.258">
  <defs>
    <style>
      .cls-1 {
        fill: none;
      }

      .cls-2 {
        clip-path: url(#clip-path);
      }

      .cls-3 {
        fill: #2b2e34;
      }
    </style>
    <clipPath id="clip-path">
      <path id="Tracé_1388" data-name="Tracé 1388" class="cls-1" d="M177.831-99.149h53.236v-39.258H177.831Z" transform="translate(0)"/>
    </clipPath>
  </defs>
  <g id="Groupe_4198" data-name="Groupe 4198" class="cls-2" transform="translate(-177.831 138.407)">
    <g id="Groupe_4195" data-name="Groupe 4195" transform="translate(216.332 -108.087)">
      <path id="Tracé_1385" data-name="Tracé 1385" class="cls-3" d="M1.595.794a2.024,2.024,0,0,0-2.03-2.02A2.024,2.024,0,0,0-2.463.794,2.024,2.024,0,0,0-.435,2.814,2.024,2.024,0,0,0,1.595.794" transform="translate(2.463 1.226)"/>
    </g>
    <g id="Groupe_4196" data-name="Groupe 4196" transform="translate(195.372 -108.087)">
      <path id="Tracé_1386" data-name="Tracé 1386" class="cls-3" d="M1.595.794a2.024,2.024,0,0,0-2.03-2.02A2.024,2.024,0,0,0-2.463.794,2.024,2.024,0,0,0-.435,2.814,2.024,2.024,0,0,0,1.595.794" transform="translate(2.463 1.226)"/>
    </g>
    <g id="Groupe_4197" data-name="Groupe 4197" transform="translate(177.831 -138.408)">
      <path id="Tracé_1387" data-name="Tracé 1387" class="cls-3" d="M20.914,9.12a19.662,19.662,0,0,0-10.9-14.2,1.192,1.192,0,0,0-.254-.077,1.122,1.122,0,0,0-.234-.02H4.345v-.7a8.229,8.229,0,0,0-8.237-8.2H-26.85a1.161,1.161,0,0,0-1.161,1.16V9.821h-2.852a1.161,1.161,0,0,0-1.161,1.16,1.162,1.162,0,0,0,1.161,1.161h4.013a1.162,1.162,0,0,0,1.16-1.161V-11.764h21.8A5.905,5.905,0,0,1,2.024-5.882V6.53a1.161,1.161,0,1,0,2.321,0V-2.859H9.3A17.394,17.394,0,0,1,18.616,9.462V15.5a2.265,2.265,0,0,1-2.272,2.254H13.555a1.133,1.133,0,0,0-.455.092,1.159,1.159,0,0,0-.988,1.147,3.883,3.883,0,0,1-7.766,0A1.177,1.177,0,0,0,3.074,17.84a1.164,1.164,0,0,0-.437-.084H-7.539a1.154,1.154,0,0,0-.624.181,1.159,1.159,0,0,0-.685,1.058,3.875,3.875,0,0,1-3.883,3.858,3.876,3.876,0,0,1-3.883-3.842,1.089,1.089,0,0,0,.023-.232,1.159,1.159,0,0,0-1.16-1.16H-31.141a1.159,1.159,0,0,0-1.16,1.16,1.159,1.159,0,0,0,1.16,1.16h12.279a6.2,6.2,0,0,0,6.13,5.236,6.206,6.206,0,0,0,6.109-5.1H2.12a6.209,6.209,0,0,0,12.218,0h2.007A4.588,4.588,0,0,0,20.937,15.5V9.347a1.17,1.17,0,0,0-.023-.227" transform="translate(32.301 14.085)"/>
    </g>
  </g>
</svg>
