<svg xmlns="http://www.w3.org/2000/svg" xmlns:xlink="http://www.w3.org/1999/xlink" width="301.266" height="83.071" viewBox="0 0 301.266 83.071">
  <defs>
    <style>
      .cls-1 {
        fill: none;
      }

      .cls-2 {
        fill: #010103;
      }

      .cls-3 {
        clip-path: url(#clip-path);
      }

      .cls-4 {
        fill: #fff;
      }

      .cls-5 {
        fill: #ff5c00;
      }

      .cls-6 {
        fill: #030304;
      }
    </style>
    <clipPath id="clip-path">
      <rect id="Rectangle_1187" data-name="Rectangle 1187" class="cls-1" width="301.266" height="41.449"/>
    </clipPath>
  </defs>
  <g id="Illustration_1" data-name="Illustration 1" transform="translate(756.497 208.596)">
    <g id="Illustration_1-2" data-name="Illustration 1" transform="translate(-756.497 -208.596)">
      <g id="Groupe_4176" data-name="Groupe 4176" transform="translate(18.219 0.001)">
        <path id="Tracé_1336" data-name="Tracé 1336" class="cls-2" d="M91.5,29.377V2.438h3.762V25.9h14.966v3.479Z" transform="translate(-91.5 -1.953)"/>
        <path id="Tracé_1337" data-name="Tracé 1337" class="cls-2" d="M206.879,29.377V2.438h19.092V5.917h-15.29v7.6h13.308V16.8H210.681v9.1h15.694v3.479Z" transform="translate(-183.905 -1.953)"/>
        <path id="Tracé_1338" data-name="Tracé 1338" class="cls-2" d="M342.4,4.773l-2.913,2.063a8.951,8.951,0,0,0-7.4-3.479c-2.832,0-5.42,1.052-5.42,3.923s2.791,3.52,6.229,4.329c5.177,1.213,9.951,2.628,9.951,8.049,0,4.935-4,8.251-10.234,8.251-5.1,0-8.939-2.184-10.962-5.541l3.115-1.982a9.237,9.237,0,0,0,8.13,4.207c3.64,0,6.108-1.7,6.108-4.611,0-3.2-3.074-3.8-7.24-4.732-4.571-.971-8.9-2.508-8.9-7.6,0-4.854,4-7.645,9.424-7.645A12.377,12.377,0,0,1,342.4,4.773Z" transform="translate(-275.821)"/>
      </g>
      <g id="Groupe_4177" data-name="Groupe 4177" transform="translate(100.044)">
        <path id="Tracé_1339" data-name="Tracé 1339" class="cls-2" d="M522.7,9.664c-1.618-2.831-3.762-4.085-6.593-4.085-4.368,0-7.038,3.559-7.038,8.292,0,4.813,2.67,8.454,7.038,8.454,3.034,0,4.975-1.577,6.512-4.449l5.339,2.79a12.917,12.917,0,0,1-11.973,7.24c-8.009,0-13.55-5.622-13.55-14C502.433,5.578,507.974,0,515.943,0A13.007,13.007,0,0,1,527.795,6.71Z" transform="translate(-502.433 0.004)"/>
        <path id="Tracé_1340" data-name="Tracé 1340" class="cls-2" d="M671.661,18.941c0,7.038-4.733,10.921-11.771,10.921-7.119,0-11.811-3.883-11.811-10.921V2.438h6.471v16.5c0,3.276,1.82,5.056,5.339,5.056,3.4,0,5.339-1.78,5.339-5.056V2.438h6.432Z" transform="translate(-619.078 -1.952)"/>
        <path id="Tracé_1341" data-name="Tracé 1341" class="cls-2" d="M794.334,29.377V2.438h6.432V29.377Z" transform="translate(-736.211 -1.952)"/>
        <path id="Tracé_1342" data-name="Tracé 1342" class="cls-2" d="M868.008,5.461l-4.813,2.993a8.033,8.033,0,0,0-6.714-3.236c-2.265,0-3.883.809-3.883,2.549,0,1.982,2.589,2.386,5.5,2.912,5.663,1.011,10.436,2.71,10.436,8.292,0,5.1-4.085,8.939-11.326,8.939-5.865,0-10.354-2.508-12.5-6.755l5.056-2.67a8.472,8.472,0,0,0,7.726,4.166c2.831,0,4.692-1.052,4.692-2.791,0-2.265-2.628-2.67-5.865-3.236-5.5-.971-10.153-2.71-10.153-8.373C846.166,3.114,850.372,0,856.6,0,860.89,0,865.3,1.456,868.008,5.461Z" transform="translate(-776.556 0.001)"/>
        <path id="Tracé_1343" data-name="Tracé 1343" class="cls-2" d="M985.277,29.377V2.438h6.432V29.377Z" transform="translate(-889.134 -1.952)"/>
        <path id="Tracé_1344" data-name="Tracé 1344" class="cls-2" d="M1063.126,29.377l-10.112-18.444V29.378h-6.189V2.438h8.049l9.829,18.04V2.438h6.148V29.377Z" transform="translate(-938.426 -1.952)"/>
        <path id="Tracé_1345" data-name="Tracé 1345" class="cls-2" d="M1196.735,29.377V2.438h20.549V8.222h-14.117v4.571h12.3V17.93h-12.3v5.7h14.521v5.744Z" transform="translate(-1058.486 -1.952)"/>
        <path id="Tracé_1346" data-name="Tracé 1346" class="cls-2" d="M1337.039,5.463l-4.813,2.993a8.033,8.033,0,0,0-6.714-3.236c-2.265,0-3.883.809-3.883,2.549,0,1.982,2.589,2.386,5.5,2.912,5.663,1.011,10.436,2.71,10.436,8.292,0,5.1-4.085,8.939-11.326,8.939-5.865,0-10.354-2.508-12.5-6.755l5.056-2.67a8.472,8.472,0,0,0,7.726,4.166c2.831,0,4.692-1.052,4.692-2.791,0-2.265-2.628-2.67-5.865-3.236-5.5-.971-10.153-2.71-10.153-8.373C1315.2,3.117,1319.4,0,1325.632,0,1329.921,0,1334.329,1.459,1337.039,5.463Z" transform="translate(-1152.194 -0.002)"/>
      </g>
      <g id="Groupe_4178" data-name="Groupe 4178" class="cls-3" transform="translate(0 41.622)">
        <path id="Tracé_1347" data-name="Tracé 1347" class="cls-4" d="M86.195,217.486v0H72.664v-8.449a12.919,12.919,0,0,0-6.816,11.391V230.4a12.923,12.923,0,0,0,12.923,12.923H86.2v0a12.919,12.919,0,1,0,0-25.838" transform="translate(-52.736 -209.031)"/>
        <path id="Tracé_1348" data-name="Tracé 1348" class="cls-5" d="M37.2,209.023H19.944a19.943,19.943,0,1,0,0,39.886H37.2a19.943,19.943,0,1,0,0-39.886M33.46,243.314v0H26.035A12.923,12.923,0,0,1,13.113,230.4v-9.98a12.921,12.921,0,0,1,6.816-11.391v8.449H33.46v0a12.919,12.919,0,1,1,0,25.838" transform="translate(-0.001 -209.024)"/>
        <path id="Tracé_1349" data-name="Tracé 1349" class="cls-5" d="M113.639,285.852H100.351v6.076A6.077,6.077,0,0,0,106.425,298h7.214a6.076,6.076,0,1,0,0-12.151" transform="translate(-80.369 -270.555)"/>
        <path id="Tracé_1350" data-name="Tracé 1350" class="cls-6" d="M341.979,255.694V237.233h5.956v7.1h9.285a10.787,10.787,0,1,1,0,21.574h-4.643a10.426,10.426,0,0,1-10.6-10.214m5.956-.545a4.771,4.771,0,0,0,5.08,5.025h3.769a5.094,5.094,0,0,0,5.08-5.025,5.153,5.153,0,0,0-5.08-5.134h-8.849Zm33.754,10.759a10.787,10.787,0,1,1,0-21.574h6.063a10.787,10.787,0,1,1,0,21.574Zm10.706-10.759a5.152,5.152,0,0,0-5.078-5.134h-5.192a5.107,5.107,0,0,0,0,10.214h5.191a5.105,5.105,0,0,0,5.078-5.08m9.779,0V244.334h5.954v10.815a5.1,5.1,0,0,0,5.08,5.08h8.466V244.334h5.954v21.574H412.989c-6.5,0-10.815-4.26-10.815-10.759m36.814,10.759h-5.954V237.232h5.954Zm58.382-10.814v10.814h-5.954V255.095a5.105,5.105,0,0,0-5.081-5.08H477.87v15.893h-5.954V244.334h14.638a10.792,10.792,0,0,1,10.815,10.761M500.976,254c0-5.954,4.861-9.668,10.815-9.668h15.02V265.69c0,4.753-2.9,7.374-8.194,7.374h-11.2V267.6H518.89a1.851,1.851,0,0,0,1.967-1.912v-1.966h-9.065c-5.954,0-10.815-3.714-10.815-9.721m19.881,4.041v-8.029H512.5c-2.785,0-5.078,1.2-5.078,3.988,0,2.84,2.293,4.041,5.078,4.041Zm33.7,7.865H541.341c-6.5,0-11.034-4.26-11.034-10.759a10.444,10.444,0,0,1,10.706-10.815h3.551c5.844,0,10.049,3.66,10.049,9.5v3.552H536.479c.656,1.856,2.35,2.949,5.081,2.949h13Zm-18.08-13.381h12.289c0-1.639-1.254-3-4.205-3h-3.55a4.408,4.408,0,0,0-4.534,3m38.672-8.194v5.681h-5.681a5.1,5.1,0,0,0-5.08,5.08v10.814h-5.954V255.095c0-6.5,4.315-10.761,10.815-10.761Z" transform="translate(-273.885 -231.616)"/>
        <path id="Tracé_1351" data-name="Tracé 1351" class="cls-2" d="M857.478,272.86a10.779,10.779,0,1,0,0,21.557h14.237V272.86Zm8.29,15.826h-7.852a5.054,5.054,0,0,1-5.076-5.021,5.147,5.147,0,0,1,5.076-5.129h7.852Z" transform="translate(-678.105 -260.149)"/>
      </g>
    </g>
  </g>
</svg>
