<svg xmlns="http://www.w3.org/2000/svg" xmlns:xlink="http://www.w3.org/1999/xlink" viewBox="0 0 123.298 36.533" width="123.298" height="36.533"><defs><style>.a{fill:#030404;}.b,.g{fill:#fff;}.c{fill:#40bff2;}.d{fill:url(#a);}.e{fill:url(#b);}.f{fill:url(#c);}.g{stroke:#fff;stroke-miterlimit:10;stroke-width:0.733px;}</style><linearGradient id="a" x1="0.807" y1="0.5" x2="-1.572" y2="0.5" gradientUnits="objectBoundingBox"><stop offset="0" stop-color="gold"/><stop offset="0.075" stop-color="#fecf01"/><stop offset="0.48" stop-color="#fca705"/><stop offset="0.803" stop-color="#fb8f07"/><stop offset="1" stop-color="#fa8608"/></linearGradient><linearGradient id="b" x1="0.862" y1="0.178" x2="-0.501" y2="1.947" gradientUnits="objectBoundingBox"><stop offset="0" stop-color="#e82b36"/><stop offset="1" stop-color="#b4005a"/></linearGradient><linearGradient id="c" x1="-0.507" y1="-0.955" x2="0.606" y2="0.489" gradientUnits="objectBoundingBox"><stop offset="0" stop-color="#2f8e5b"/><stop offset="0.39" stop-color="#4fa257"/><stop offset="0.768" stop-color="#67b054"/><stop offset="1" stop-color="#70b653"/></linearGradient></defs><g transform="translate(0 0)"><rect class="a" width="123.298" height="36.533" rx="5"/><path class="b" d="M65.8,21.344a3.884,3.884,0,1,0,3.9,3.88,3.829,3.829,0,0,0-3.9-3.88Zm0,6.239a2.36,2.36,0,1,1,2.192-2.359A2.248,2.248,0,0,1,65.8,27.582ZM57.29,21.344a3.884,3.884,0,1,0,3.9,3.88,3.829,3.829,0,0,0-3.9-3.88Zm0,6.239a2.36,2.36,0,1,1,2.192-2.359,2.248,2.248,0,0,1-2.193,2.358ZM47.172,22.536V24.18h3.944a3.44,3.44,0,0,1-.9,2.075,4.037,4.037,0,0,1-3.046,1.206,4.384,4.384,0,0,1,0-8.768,4.2,4.2,0,0,1,2.974,1.179l1.163-1.163a5.748,5.748,0,0,0-4.135-1.662,6.033,6.033,0,1,0,0,12.066,5.516,5.516,0,0,0,4.209-1.693,5.445,5.445,0,0,0,1.428-3.855,5.364,5.364,0,0,0-.091-1.03Zm41.381,1.279a3.61,3.61,0,0,0-3.325-2.471,3.692,3.692,0,0,0-3.663,3.881,3.8,3.8,0,0,0,3.855,3.884,3.864,3.864,0,0,0,3.237-1.722L87.331,26.5a2.218,2.218,0,0,1-1.912,1.074A1.976,1.976,0,0,1,83.535,26.4l5.194-2.148Zm-5.3,1.3a2.131,2.131,0,0,1,2.03-2.266,1.5,1.5,0,0,1,1.442.822Zm-4.223,3.767h1.71V17.461h-1.71Zm-2.8-6.667h-.061a2.692,2.692,0,0,0-2.045-.868,3.888,3.888,0,0,0,0,7.769,2.649,2.649,0,0,0,2.045-.883h.058v.558c0,1.486-.795,2.283-2.075,2.283A2.149,2.149,0,0,1,72.2,29.686l-1.486.618a3.7,3.7,0,0,0,3.443,2.3c2,0,3.693-1.177,3.693-4.046V21.579H76.236Zm-1.957,5.37a2.363,2.363,0,0,1,0-4.708,2.192,2.192,0,0,1,2.079,2.371,2.171,2.171,0,0,1-2.078,2.339Zm22.269-10.12H92.464V28.877h1.7V24.552h2.379a3.551,3.551,0,1,0,0-7.092Zm.044,5.5H94.167V19.049h2.424a1.957,1.957,0,1,1,0,3.914Zm10.532-1.644a3.2,3.2,0,0,0-3.04,1.748l1.513.632a1.615,1.615,0,0,1,1.553-.838,1.644,1.644,0,0,1,1.792,1.469v.118a3.77,3.77,0,0,0-1.777-.44c-1.63,0-3.288.9-3.288,2.571a2.638,2.638,0,0,0,2.831,2.512,2.4,2.4,0,0,0,2.174-1.116h.058v.881h1.644V24.481c.006-2.028-1.506-3.158-3.46-3.158Zm-.205,6.257c-.558,0-1.337-.279-1.337-.969,0-.881.969-1.219,1.807-1.219a3.036,3.036,0,0,1,1.553.382,2.066,2.066,0,0,1-2.022,1.81Zm9.665-6.006-1.954,4.95h-.058l-2.028-4.95h-1.836l3.04,6.918-1.735,3.849h1.777l4.688-10.767Zm-15.35,7.307h1.7V17.461h-1.7Z" transform="translate(-3.566 -1.478)"/><g transform="translate(9.105 6.523)"><path class="c" d="M10.395,7.541a1.827,1.827,0,0,0-.422,1.279V29a1.827,1.827,0,0,0,.422,1.279l.068.066,11.305-11.3v-.267L10.462,7.475Z" transform="translate(-9.97 -7.171)"/><path class="d" d="M26.655,23.533l-3.768-3.77V19.5l3.769-3.769.085.048,4.469,2.536c1.279.724,1.279,1.911,0,2.635l-4.468,2.537Z" transform="translate(-11.089 -7.886)"/><path class="e" d="M25.663,23.854,21.808,20,10.435,31.374a1.484,1.484,0,0,0,1.9.056l13.334-7.574" transform="translate(-10.01 -8.256)"/><path class="f" d="M25.662,15.031,12.328,7.457a1.484,1.484,0,0,0-1.9.056L21.807,18.885Z" transform="translate(-10.01 -7.142)"/></g><g transform="translate(37.7 6.264)"><path class="g" d="M41.278,12.48V7h1.676a2.724,2.724,0,0,1,2.021.762,2.683,2.683,0,0,1,.757,1.978,2.684,2.684,0,0,1-.757,1.978,2.724,2.724,0,0,1-2.021.762Zm.7-.673h.972a2.056,2.056,0,0,0,1.5-.548,2.034,2.034,0,0,0,.556-1.519,2.038,2.038,0,0,0-.554-1.52,2.05,2.05,0,0,0-1.5-.548h-.973Z" transform="translate(-41.278 -6.871)"/><path class="g" d="M47.237,12.48V7h.7v5.48Z" transform="translate(-41.795 -6.871)"/><path class="g" d="M50.892,12.591a2.043,2.043,0,0,1-1.166-.39,1.8,1.8,0,0,1-.746-1.1l.639-.26a1.468,1.468,0,0,0,.47.761,1.187,1.187,0,0,0,.8.31,1.279,1.279,0,0,0,.785-.241A.772.772,0,0,0,52,11.019a.838.838,0,0,0-.324-.708,3.367,3.367,0,0,0-1.029-.463,2.746,2.746,0,0,1-1.1-.591,1.239,1.239,0,0,1-.375-.93A1.36,1.36,0,0,1,49.638,7.3a1.712,1.712,0,0,1,1.217-.437,1.762,1.762,0,0,1,1.133.348,1.611,1.611,0,0,1,.566.762l-.639.268a.953.953,0,0,0-.341-.482,1.2,1.2,0,0,0-1.393,0,.689.689,0,0,0-.287.563.639.639,0,0,0,.264.517,2.537,2.537,0,0,0,.777.379,6.6,6.6,0,0,1,.678.253,3.085,3.085,0,0,1,.548.325,1.3,1.3,0,0,1,.421.505,1.632,1.632,0,0,1,.142.7,1.509,1.509,0,0,1-.164.711,1.337,1.337,0,0,1-.437.5,2.165,2.165,0,0,1-.585.279,2.192,2.192,0,0,1-.643.1Z" transform="translate(-41.946 -6.859)"/><path class="g" d="M54.887,12.48h-.7V7h1.868a1.735,1.735,0,0,1,1.2.463,1.592,1.592,0,0,1,0,2.334,1.73,1.73,0,0,1-1.2.463H54.887Zm0-2.893h1.179a.913.913,0,0,0,.711-.3.943.943,0,0,0,0-1.316.908.908,0,0,0-.711-.3H54.887Z" transform="translate(-42.397 -6.871)"/><path class="g" d="M63.525,11.76a2.846,2.846,0,0,1-4.019,0A2.8,2.8,0,0,1,58.7,9.728,2.8,2.8,0,0,1,59.507,7.7a2.831,2.831,0,0,1,4.019,0,2.8,2.8,0,0,1,.806,2.032,2.8,2.8,0,0,1-.807,2.032Zm-3.5-.457A2.107,2.107,0,0,0,63,11.3a2.144,2.144,0,0,0,.609-1.575A2.144,2.144,0,0,0,63,8.155a2.107,2.107,0,0,0-2.977,0,2.148,2.148,0,0,0-.608,1.573,2.148,2.148,0,0,0,.608,1.573Z" transform="translate(-42.788 -6.859)"/><path class="g" d="M65.949,12.48V7h.857l2.66,4.263h.03l-.03-1.057V7h.705v5.48h-.731L66.653,8.01h-.03l.03,1.056V12.48Z" transform="translate(-43.417 -6.871)"/><path class="g" d="M71.949,12.48V7h.7v5.48Z" transform="translate(-43.937 -6.871)"/><path class="g" d="M74.094,12.48V7h1.982a1.61,1.61,0,0,1,1.114.425,1.378,1.378,0,0,1,.471,1.068,1.2,1.2,0,0,1-.2.689,1.272,1.272,0,0,1-.54.452v.03a1.393,1.393,0,0,1,.667.475,1.245,1.245,0,0,1,.26.781,1.439,1.439,0,0,1-.494,1.117,1.688,1.688,0,0,1-1.168.444Zm.7-3.131h1.279a.844.844,0,0,0,.647-1.416.785.785,0,0,0-.616-.26H74.8Zm0,2.457h1.417a.84.84,0,0,0,.659-.284.894.894,0,0,0-.69-1.515H74.8Z" transform="translate(-44.123 -6.871)"/><path class="g" d="M79.239,12.48V7h.7v4.807h2.375v.673Z" transform="translate(-44.569 -6.871)"/><path class="g" d="M86.78,7.673h-2.5V9.408h2.25v.659h-2.25V11.8h2.5v.678h-3.2V7h3.2Z" transform="translate(-44.945 -6.871)"/><path class="g" d="M91.56,12.591a2.043,2.043,0,0,1-1.166-.39,1.8,1.8,0,0,1-.746-1.1l.639-.26a1.466,1.466,0,0,0,.47.761,1.187,1.187,0,0,0,.8.31,1.279,1.279,0,0,0,.785-.241.772.772,0,0,0,.324-.655.838.838,0,0,0-.324-.708,3.367,3.367,0,0,0-1.029-.463,2.746,2.746,0,0,1-1.1-.593,1.239,1.239,0,0,1-.375-.93A1.36,1.36,0,0,1,90.3,7.3a1.711,1.711,0,0,1,1.219-.435,1.761,1.761,0,0,1,1.133.348,1.611,1.611,0,0,1,.566.762l-.639.268a.953.953,0,0,0-.341-.482,1.2,1.2,0,0,0-1.393,0,.689.689,0,0,0-.288.563.639.639,0,0,0,.264.517,2.537,2.537,0,0,0,.777.379,6.608,6.608,0,0,1,.678.253,3.085,3.085,0,0,1,.548.325,1.3,1.3,0,0,1,.421.505,1.63,1.63,0,0,1,.142.7,1.509,1.509,0,0,1-.164.711,1.336,1.336,0,0,1-.437.5,2.165,2.165,0,0,1-.585.279A2.192,2.192,0,0,1,91.56,12.591Z" transform="translate(-45.471 -6.859)"/><path class="g" d="M96.744,12.6a1.923,1.923,0,0,1-1.466-.6,2.186,2.186,0,0,1-.562-1.562V7h.7v3.471a1.571,1.571,0,0,0,.341,1.052,1.4,1.4,0,0,0,1.966,0,1.572,1.572,0,0,0,.341-1.052V7h.7v3.444a2.216,2.216,0,0,1-.548,1.565A1.918,1.918,0,0,1,96.744,12.6Z" transform="translate(-45.91 -6.871)"/><path class="g" d="M100.4,12.48V7h1.868a1.735,1.735,0,0,1,1.2.463,1.576,1.576,0,0,1,.133,2.182,1.625,1.625,0,0,1-.933.554l-.016.023L104.2,12.45v.03h-.834l-1.477-2.219H101.1V12.48Zm.7-2.878h1.133a1.037,1.037,0,0,0,.723-.274.9.9,0,0,0,.3-.7.964.964,0,0,0-.268-.659.908.908,0,0,0-.711-.3H101.1Z" transform="translate(-46.403 -6.871)"/></g></g></svg>