<svg xmlns="http://www.w3.org/2000/svg" xmlns:xlink="http://www.w3.org/1999/xlink" viewBox="0 0 168.858 171.131" width="168.858" height="171.131"><defs><style>.a{fill:#fff;}.b{fill:#fd5300;}.c{fill:none;stroke:#fd5300;stroke-miterlimit:10;stroke-width:3px;}.d{filter:url(#a);}</style><filter id="a" x="0" y="0" width="168.858" height="171.131" filterUnits="userSpaceOnUse"><feOffset dy="3" input="SourceAlpha"/><feGaussianBlur stdDeviation="3" result="b"/><feFlood flood-opacity="0.2"/><feComposite operator="in" in2="b"/><feComposite in="SourceGraphic"/></filter></defs><g transform="translate(-1107 -4956)"><g class="d" transform="matrix(1, 0, 0, 1, 1107, 4956)"><path class="a" d="M65.933,21.676a5.113,5.113,0,0,1,2.405-.837,1.43,1.43,0,0,0,.383-.035,1.249,1.249,0,0,0,.383-.139,8.512,8.512,0,0,0,.837-.349,12.721,12.721,0,0,0,3-2.3,3.086,3.086,0,0,0,.8-.976c.1-.209.139-.383.314-.767.209-.383.279-.593.453-.662.418-.139.906.383,1.046.244.1-.1-.035-.383-.139-.523-.314-.523-.7-.453-.906-.871a1.057,1.057,0,0,1,.1-1.011A1.152,1.152,0,0,1,75.344,13a1.3,1.3,0,0,1-.593-1.464c.1-.558.383-1.081.488-1.638,0-.07.035-.139,0-.174a.42.42,0,0,0-.174-.174c-.209-.244,0-.593,0-.906.035-.662-.383-.767-.314-1.359.07-.488.349-.383.453-.976a6.694,6.694,0,0,0-.035-1.464c0-.244-.035-.418-.035-.523.7-.593,1.325-1.046,1.778-1.394A5.321,5.321,0,0,1,77.923,2.3a5.156,5.156,0,0,1,1.255-.349A20.281,20.281,0,0,1,82,1.32,20.821,20.821,0,0,0,84.894.658,12.392,12.392,0,0,0,86.149.1a2.636,2.636,0,0,0,.244,1.569c.139.244.383.453.383.732a1.572,1.572,0,0,1-.1.383,2.452,2.452,0,0,0,.07,1.325,1,1,0,0,0,.383.7,1.151,1.151,0,0,0,.837.07c-.07.244.1.488.279.7.1.139.244.279.349.418a4.767,4.767,0,0,0,1.325,1.185A.378.378,0,0,1,90.3,6.9a1.429,1.429,0,0,1,.314-.976c.279.209.767-.07,1.115-.244a1.861,1.861,0,0,1,1.011-.349.4.4,0,0,1,.279.1c.209.209,0,.558.139.837.1.279.488.349.662.593.209.279.07.7.1,1.046a3.676,3.676,0,0,0,.174.662c.1.418.07.871.209,1.325.139.418.488.837.941.767a1.736,1.736,0,0,0,.732-.418c.209-.174.523-.349.767-.244.279.1.314.558.07.627a1.849,1.849,0,0,1,1.429.418,1.937,1.937,0,0,1,.314.593,4.91,4.91,0,0,1,.174,2.126.319.319,0,0,0,.453.349.738.738,0,0,0,.349-.7c0-.1-.035-.244.07-.314.035-.035.139-.035.209-.07.244,0,.523-.035.767-.035a.593.593,0,0,1,.244.035c.07.035.1.139.139.209.174.279.627.209.906.035a3.046,3.046,0,0,1,.837-.523.8.8,0,0,0,1.046.662c-.139.279.139.558.418.662s.627.174.767.453c0,.035.035.07.035.1,0,.1-.139.139-.244.209a.848.848,0,0,0-.523.662c-.035.279.07.593-.1.767-.07.07-.174.139-.244.209-.209.244.139.662.418.523.1-.035.174-.139.279-.209s.279-.07.314.035c.035.07,0,.139-.035.244a.683.683,0,0,0,.523.837c-.1.383-.7.314-.976.593a.74.74,0,0,0-.1.8.89.89,0,0,0,1.115.593c.174-.07.349-.244.558-.209.244.035.488-.035.558.209.035.07.035.139.07.174.1.1.279-.07.453-.07a.626.626,0,0,1,.314.139.91.91,0,0,0,.906-.209,2.87,2.87,0,0,1,.767-.558,5.386,5.386,0,0,0,.8-.209,1,1,0,0,0,.488-.732,2.3,2.3,0,0,0,0-.871,7.465,7.465,0,0,1,.453-.662c.349-.383.767-.767,1.255-.662a.607.607,0,0,1,.418.279c.1.244-.07.523-.244.732s-.383.418-.349.7c.035.209.174.383.1.558a1.514,1.514,0,0,1-.139.244c-.244.279-.488.662-.314.941.139.244.488.279.7.418a.646.646,0,0,1,.1.871.923.923,0,0,0-.174.209.892.892,0,0,0,0,.732.691.691,0,0,1-.1.732c.279-.035.523-.07.8-.1,0,.174.07.418.244.383.035,0,.1-.07.139-.1.209-.209.383-.418.593-.627,0,.314.035.732.314.871a.87.87,0,0,0,.593.035.23.23,0,0,1,.209-.035c.139.035.174.209.174.349s-.035.314.07.418a.443.443,0,0,1,.488-.1.332.332,0,0,1,.1.453l.314-.209c.1.1.174.244.279.349a.69.69,0,0,1,.906.035.734.734,0,0,1,.1.906c.418.209,1.011,0,1.325.349a1.16,1.16,0,0,1,.209.349c.209.488.418.976.627,1.429a.863.863,0,0,1,1.15-.174c.035.035.07.035.1.07.1,0,.139-.139.174-.209a.593.593,0,0,1,.941-.279.625.625,0,0,0,.244.174c.349.139.662-.523,1.046-.418.314.1.209.627.418.871.349.383,1.115-.1,1.394.314.1.139.07.349.174.488.174.209.488.139.732,0A7.026,7.026,0,0,0,127,27.6c.383-.279.837-.593,1.255-.418.314.1.523.453.8.558a2.526,2.526,0,0,0,1.011-.07A1.886,1.886,0,0,1,131.88,29.1a5.86,5.86,0,0,0,.244.837,3.843,3.843,0,0,0,1.046,1.081,1.431,1.431,0,0,1,.593,1.29.593.593,0,0,0-.035.244c.035.209.383.244.523.279a1.3,1.3,0,0,0,.558-.035.765.765,0,0,0,.418-.174c.244-.244.07-.662.07-.732a.635.635,0,0,1,.279-.174.379.379,0,0,1,.174-.035c.209,0,.523-.07.767-.07a.8.8,0,0,1,.593.279,2.629,2.629,0,0,1,.209.453,9.786,9.786,0,0,1,.279,1.081c0,.035.035.07.035.1.07.07.174,0,.244-.07.139-.174.314-.349.453-.558a.935.935,0,0,1,.837.244c.07.07.139.174.244.174.244.035.453-.349.662-.209.07.035.07.1.139.139a.276.276,0,0,0,.383-.035.774.774,0,0,0,.174-.383.38.38,0,0,0,.593-.07,1.329,1.329,0,0,0,.1-.349c.1-.209.383-.244.627-.244a1.011,1.011,0,0,1,.627.174,2.411,2.411,0,0,1,.349.662,1.321,1.321,0,0,0,1.011.732c.139.035.314.035.418.139a1.16,1.16,0,0,0,.1.209c.07.1.209.1.314.1a.644.644,0,0,1,.732-.1c.139.07.279.209.418.174.07-.035.1-.1.174-.139a.531.531,0,0,1,.627-.07c.035.1.035.174.07.279.349.1.7-.244,1.081-.314a1.4,1.4,0,0,1,1.22.593.939.939,0,0,0,.279.244c.1.035.174.07.279.1a10.294,10.294,0,0,0,2.057.209,2.778,2.778,0,0,0-1.29,1.708c-.139.523-.139,1.185-.627,1.5-.209.139-.488.174-.558.418a.593.593,0,0,0-.035.244.409.409,0,0,1-.349.314.442.442,0,0,0-.209.035c-.07.035-.1.139-.139.244-.209.767-1.081,1.185-1.534,1.813a1.99,1.99,0,0,0,.139,2.37.706.706,0,0,0-.488.279,1.119,1.119,0,0,0-.035.488c-.035.174-.174.349-.314.279.1.558.209,1.15.314,1.708,0,.07.035.139,0,.209-.035.139-.209.174-.314.209a.692.692,0,0,0-.314.871.913.913,0,0,1-.244.906,5.435,5.435,0,0,0-.558.7,2.215,2.215,0,0,0-.209.627,10.478,10.478,0,0,0-.174,1.464,1.146,1.146,0,0,0,.174.767c.174.209.488.314.523.558a1.018,1.018,0,0,1-.07.314,14.589,14.589,0,0,0-.837,4.74,1.934,1.934,0,0,0,.523,1.15,1.6,1.6,0,0,1,.279.976.817.817,0,0,1-.627.732c-.1.035-.209,0-.279.07-.279.139-.209.523-.1.8-.314-.07-.767,0-.8.349,0,.1.035.244.035.349,0,.279-.349.418-.627.383a6.432,6.432,0,0,0-.8-.139c-.279,0-.558.244-.488.488-.209-.383-.523-.8-.941-.7a.7.7,0,0,1,.279-.662,2.3,2.3,0,0,0-1.673-.349c-.349.035-.8.139-.837.488,0,.279.279.523.174.767a.5.5,0,0,1-.349.244.9.9,0,0,0-.418.174.247.247,0,0,0,.035.383,1.182,1.182,0,0,0-.488.314.471.471,0,0,0,0,.558c.139.139.349.1.558.07l.837-.209a.82.82,0,0,1,.279-.07.406.406,0,0,1,.279.558.593.593,0,0,1-.662.244.432.432,0,0,1-.523.558,1.5,1.5,0,0,1-.523,1.394c-.523.593-1.046,1.22-1.6,1.813-.314.383-.662.837-.523,1.29-.349,0-.593.314-.837.558a2.666,2.666,0,0,1-1.22.593,1.988,1.988,0,0,0-.976.383.474.474,0,0,0-.1.593,1.993,1.993,0,0,0,.383.558.626.626,0,0,1,.139.314c-.035.139-.174.209-.279.314a.8.8,0,0,0-.209.976c.07.139.209.279.174.453a.659.659,0,0,1-.279.349c-.488.349-.976.627-1.464.976a9.343,9.343,0,0,0-1.743,1.778.84.84,0,0,0-.209.662c.07.139.174.279.1.418-.035.07-.1.1-.139.139-.139.139-.1.418-.209.593-.07.1-.174.139-.244.209a.755.755,0,0,0,.139.976c.244.279.593.453.8.732a.736.736,0,0,1,.07.837,3.034,3.034,0,0,1-.314.383,1.714,1.714,0,0,0-.1,1.185,9.94,9.94,0,0,1-1.011.1,1.079,1.079,0,0,0-.837.523,1.113,1.113,0,0,0-.1.488,1.06,1.06,0,0,0,.174.871.782.782,0,0,0,.906.07,4.11,4.11,0,0,0,.732-.627,3.009,3.009,0,0,1,1.359-.941c.349-.07.8-.139.837-.488.035-.279-.244-.488-.418-.7a2.024,2.024,0,0,1-.279-1.29.77.77,0,0,1,.209-.627.677.677,0,0,1,.453-.1,5.1,5.1,0,0,0,1.987-.627,2.6,2.6,0,0,1,.837-.383,3,3,0,0,1,.558.035c.453.035.906-.139,1.394-.1a3.339,3.339,0,0,1,1.115.418c.1.07.209.1.244.244.07.209-.174.383-.244.593a.921.921,0,0,0,.314.941c.244.244.558.488.593.837a1.773,1.773,0,0,1-.314.906,1.529,1.529,0,0,0-.314.941.679.679,0,0,0,.593.662h.244c.209.035.279.349.279.558,0,.244,0,.523.174.627.209.139.523-.035.732.1a.348.348,0,0,1,.139.174c.209.349.383.662.593,1.011a1.6,1.6,0,0,1,.244.558,1.84,1.84,0,0,1-.139.871,1.627,1.627,0,0,1-.174.349,1.252,1.252,0,0,1-.349.244c-.523.209-1.15.209-1.534.593a1.363,1.363,0,0,0-.279,1.359,2.986,2.986,0,0,0,.8,1.185,6.281,6.281,0,0,1,1.15.349c.209.1.418.209.488.453a1,1,0,0,1,0,.453,4.932,4.932,0,0,0,.07,1.011c.07.383.174.837.523.906.174.035.383,0,.558.035.418.139.418.871.871,1.011.139.035.279.035.383.07.139.035.279.139.244.279,0,.1-.1.174-.174.244a1.383,1.383,0,0,0-.418.906,4.934,4.934,0,0,0,.07,1.011.85.85,0,0,1,0,.418.757.757,0,0,1-.523.453c-.314.1-.662.174-.976.279a1.557,1.557,0,0,0-.837.558c-.139.244-.174.593-.383.8a.678.678,0,0,1-.837.07c-.139-.1-.209-.209-.349-.314a.533.533,0,0,0-.558.035.607.607,0,0,0-.174.523,1.372,1.372,0,0,0-1.569.523c-.035.07-.07.1-.07.174,0,.244.349.349.453.558.07.174,0,.349.035.523a.442.442,0,0,0,.418.349c.209,0,.418-.174.627-.1s.244.349.209.558a4.019,4.019,0,0,0-.1.906.634.634,0,0,0,.558.593,1.929,1.929,0,0,0,1.743.662c.314-.07.627-.209.906-.07a.692.692,0,0,1,.383.488,1.93,1.93,0,0,1,.07.627v.558a.593.593,0,0,0,.035.244c.07.209.279.279.418.418s.314.314.209.523a.331.331,0,0,1-.383.139c-.139,0-.279-.07-.453-.07a.745.745,0,0,0-.593.279.643.643,0,0,0-.035.662,1.006,1.006,0,0,1-.523,1.255.906.906,0,0,0-.558.314.518.518,0,0,0-.07.314,1.171,1.171,0,0,0,.139.837c.209.314.627.418.767.732a.122.122,0,0,0,.035.07c0,.035-.035.035-.07.07-.279.174-.349.523-.453.837a.556.556,0,0,0,.07.523.861.861,0,0,0,.314.139c.1.035.174.209.1.279a.454.454,0,0,1,.453.174.419.419,0,0,1,0,.488c.174-.1.383.07.418.279.07.174.035.383.139.558a6.694,6.694,0,0,0,.837,0,2.112,2.112,0,0,1,.732.383,5.974,5.974,0,0,0,1.185.453,14.746,14.746,0,0,0,2.231.871,3.968,3.968,0,0,0,2.475-.593c.279-.139.593-.453.871-.558a.8.8,0,0,1,.244.662c0,.139-.07.279,0,.383.035.07.139.1.209.139.209.1.453.279.488.523.035.418-.523.627-.627,1.011-.035.1,0,.209-.035.279-.035.349-.349.558-.627.732a1.245,1.245,0,0,0-.662.732c-.035.139,0,.314-.035.453s-.1.314-.244.349c-.07.035-.174,0-.244.035-.1.035-.139.174-.139.279a1.926,1.926,0,0,0,.383,1.325.591.591,0,0,0-.349,0l-.209.209c-.139.1-.314.174-.383.349a.593.593,0,0,0-.035.244.607.607,0,0,1-.174.488.7.7,0,0,1-.383.1c-.139,0-.279-.035-.418-.035a4.537,4.537,0,0,1-.279.593c-.035.07-.035.1-.1.139a.21.21,0,0,1-.139-.035c-.174-.07-.349-.174-.523-.244,0,.1-.035.244-.035.349a2.75,2.75,0,0,0-1.081.279,1.2,1.2,0,0,0-.7.837c-.035.279.035.627-.209.8s-.627,0-.871.174a.562.562,0,0,0-.139.244.961.961,0,0,1-1.046.453,4.147,4.147,0,0,1-.976,1.952c-.035-.07-.1-.139-.139-.209a.448.448,0,0,1-.349.349,1.119,1.119,0,0,1-.488-.035.8.8,0,0,0-.627-.035.658.658,0,0,0-.209.662,1.052,1.052,0,0,1-.07.732c-.139.174-.453.244-.523.488-.035.07-.035.139-.07.209a.409.409,0,0,1-.383.174,1.673,1.673,0,0,0-.418,0,.379.379,0,0,0-.244.418.371.371,0,0,0,.349.314.876.876,0,0,0,.488-.209.486.486,0,0,1,.523-.07.315.315,0,0,1-.244.488.6.6,0,0,0,.07.418c.07.139.1.314,0,.383s-.244,0-.314.1c-.1.1,0,.279-.07.418-.1-.07-.314-.07-.314.035v.07a.1.1,0,0,1-.174,0c-.035-.07-.035-.139-.07-.209a.37.37,0,0,0-.314-.279.424.424,0,0,0-.418.174c-.1.1-.139.244-.244.349-.244.244-.627.1-.941.139a1.073,1.073,0,0,0-.941.837c-.035.174-.035.383-.209.418a3.479,3.479,0,0,0-1.011-.523,1.281,1.281,0,0,0-1.046.244,1.3,1.3,0,0,0-.314,1.255c.279-.035.453,0,.453.035s-.035.1-.139.174a5.5,5.5,0,0,1-.662.035h-.349a2.825,2.825,0,0,1-.383-.1c.244-.139.349-.209.349-.209l-.209.1a.5.5,0,0,0,.279-.244,2.564,2.564,0,0,0,0-.558.256.256,0,0,0-.07-.209.442.442,0,0,0-.209-.035c-.174,0-.453.035-.8.035a1.254,1.254,0,0,0-.8-.453.271.271,0,0,1-.07.279c-.139.209-.279.453-.523.488-.07.035-.174.035-.244.07a.376.376,0,0,0-.07.279c-.07.279-.418.349-.7.314a.908.908,0,0,1-.523-.139.544.544,0,0,1-.279-.453,1.074,1.074,0,0,1,.174-.418.425.425,0,0,0,0-.453c-.174-.209-.558-.035-.767-.209-.1-.139-.07-.349-.174-.488a.7.7,0,0,0-.279-.139l-.314-.1c-.035,0-.1-.035-.139-.035-.1,0-.139.07-.244.139a.818.818,0,0,1-1.115-.139c-.035-.035-.07-.1-.1-.139a.382.382,0,0,0-.279,0,5.189,5.189,0,0,1-1.638-.035c-.174-.035-.383-.035-.488-.174-.174-.209-.07-.523.035-.8a1.918,1.918,0,0,0-.279-1.673.348.348,0,0,0-.174-.139c-.1-.035-.174.035-.209.139a.679.679,0,0,0-.035.279.911.911,0,0,0-.8.488c-.523-.035-1.081-.07-1.6-.07a2.005,2.005,0,0,1-.906-.174,1.038,1.038,0,0,1-.523-.627.479.479,0,0,0-.174-.279,5.124,5.124,0,0,0-.453-.349c-.07-.035-.139-.1-.209-.139a1.119,1.119,0,0,0-.488-.035.564.564,0,0,0-.523.209.766.766,0,0,0-.035.488c0,.174-.07.349-.209.383a.21.21,0,0,0-.139.035c-.174.07-.139.279-.07.453a18.667,18.667,0,0,1-2.405-.209,1.641,1.641,0,0,1-.558-.139.544.544,0,0,1-.279-.453c.035-.244.279-.453.209-.662-.035-.1-.174-.174-.279-.209a3.825,3.825,0,0,0-1.394-.279c-.07,0-.139,0-.174.07s0,.139-.035.209c-.035.139-.209.139-.349.139-.279-.035-.593-.07-.871-.1a.5.5,0,0,1-.209-.07.266.266,0,0,1-.07-.174,5.568,5.568,0,0,1-.174-.732.259.259,0,0,0-.314.035c-.035.035-.1.07-.139.139a4.179,4.179,0,0,0-.383.418c.1.07.279.035.418.1.139.035.244.209.139.314a2.85,2.85,0,0,1-1.429-.174,1.171,1.171,0,0,1-.558-.349.683.683,0,0,1-.174-.627.82.82,0,0,0,.07-.279c0-.174-.174-.279-.314-.314a1.782,1.782,0,0,0-1.046,0,3.56,3.56,0,0,0-1.638.871c-.174.174-.314.418-.488.593-.349.314-.871.418-1.22.732-.174.139-.279.349-.453.453a2.586,2.586,0,0,1-.732.244,2.647,2.647,0,0,0-1.6,1.394,1.124,1.124,0,0,1-.279.488,1.111,1.111,0,0,1-.871.07c-.732-.1-1.429.453-2.37,1.255a7.25,7.25,0,0,0-1.813,2.161.187.187,0,0,1-.1.139c-.1.07-.244,0-.383.035a.26.26,0,0,0-.174.349.252.252,0,0,0,.383.07,2.074,2.074,0,0,1-.349,1.046c-.279.558.279,1.185.174,1.813-.035.174-.1.314-.139.453a7.335,7.335,0,0,0-.279,1.952c-.035.558-.07,1.115-.07,1.673a5.6,5.6,0,0,0,.035,1.081,1.291,1.291,0,0,0,.593.871,2.411,2.411,0,0,1,.662.349,1.751,1.751,0,0,1,.174.453.9.9,0,0,0,.732.627.248.248,0,0,1,.209.1c.035.1-.1.174-.209.209-.418.1-.941.209-1.255-.1-.139-.1-.209-.279-.383-.383a1,1,0,0,0-.558-.1,3.272,3.272,0,0,0-2.37.627c-.244.244-.488.593-.8.488-.139-.035-.244-.174-.383-.209a.306.306,0,0,0-.244.035.973.973,0,0,0-.558,1.359.386.386,0,0,1-.558.035c-.174-.1-.314-.314-.488-.383-.209-.1-.488,0-.488.209,0,.07.035.139.035.209a.249.249,0,0,1-.314.174.507.507,0,0,1-.314-.209,12.418,12.418,0,0,0-2.056-1.5,1.733,1.733,0,0,0-.732-.314.727.727,0,0,0-.7.279.761.761,0,0,1-.1.174c-.244.209-.558-.244-.906-.209-.244.035-.349.349-.418.558a1.156,1.156,0,0,1-1.046.767,1.128,1.128,0,0,1-.837-.593,2.578,2.578,0,0,1-.279-1.011c.279-.07.627.1.837-.035a.323.323,0,0,0,.1-.418.35.35,0,0,0-.383-.174,3.787,3.787,0,0,1,.035-.627.5.5,0,0,0-.7.418c0,.209.139.488-.07.593a.314.314,0,0,1-.174.035c-.453,0-1.011-.209-1.046-.662a.718.718,0,0,0-.7-.1,1.108,1.108,0,0,1-.314.1.561.561,0,0,1-.488-.767,1.113,1.113,0,0,1,.8-.662c.139-.035.279-.139.279-.279-.035-.139-.174-.174-.314-.139s-.244.1-.383.07a.474.474,0,0,1,0-.523.7.7,0,0,0-.627-.314c-.244,0-.488.07-.732.07a2.736,2.736,0,0,1-.767-.174c-.1-.035-.209-.07-.244-.174-.035-.07-.035-.139-.1-.209a.323.323,0,0,0-.418-.1.456.456,0,0,0-.209.418.767.767,0,0,0-.488-.07c.174.139.035.418-.139.523-.174.139-.383.244-.418.453-.209-.279,0-.7-.174-1.011l-.209-.209c-.1-.139-.139-.314-.244-.488a1.607,1.607,0,0,0-1.255-.593,1.665,1.665,0,0,0-1.534.314,1.077,1.077,0,0,1-.279-1.046c-.871-.383-1.882-.244-2.788-.558s-1.638-1.011-2.544-1.255a.724.724,0,0,0-.383-.035c-.314.07-.453.383-.593.7a1.367,1.367,0,0,0-.139.627c.035.593.767,1.011.7,1.569a1.071,1.071,0,0,1-.732-.07.77.77,0,0,0-.558,0c-.07.035-.139.1-.209.1-.1,0-.209-.1-.279-.139a.344.344,0,0,0-.488.244c-.07-.174-.139-.349-.314-.383-.279-.035-.453.383-.767.383-.349-.035-.349-.627-.7-.732-.244-.07-.453.209-.558.418s-.314.488-.558.418c-.174-.035-.244-.244-.279-.418a2.691,2.691,0,0,0-.07-.523.939.939,0,0,0-.523.174c-.035-.1-.035-.209-.07-.314a.429.429,0,0,0-.488-.07.381.381,0,0,0-.174.453c-.07,0-.139-.035-.209-.035-.035.244-.349.314-.593.244-.244-.035-.488-.174-.7-.1-.139.035-.244.139-.383.174a.966.966,0,0,1-.7-.1c-.209-.1-.418-.244-.418-.488a.69.69,0,0,1-.383-.07c0-.279.035-.523.035-.8a1.329,1.329,0,0,0-.523-.035,1.119,1.119,0,0,1,.035-.488,3.36,3.36,0,0,0-.837,0c.139-.1,0-.383-.174-.418a1.579,1.579,0,0,1-.558-.1c-.244-.139-.383-.488-.662-.488-.139,0-.244.139-.314.209-.209.209-.1.383-.279.593a.654.654,0,0,1-.488.209c-.244,0-.314-.174-.8-.349-.279-.1-.488-.174-.593-.1s-.139.244-.209.383a.331.331,0,0,1-.349.209.348.348,0,0,1-.174-.349.883.883,0,0,1-.349-.627,2.228,2.228,0,0,0-.244-.07v-.383a.44.44,0,0,1-.558-.453,2.583,2.583,0,0,0-.732-.035,3.133,3.133,0,0,0-.279-1.255c-.1-.174-.314-.349-.488-.279-.174.1-.139.383-.279.523a.471.471,0,0,1-.593.035,3.009,3.009,0,0,0-.558-.349c-.349-.139-.8.07-1.15-.1-.244-.1-.383-.383-.558-.558-.174-.209-.523-.314-.7-.1a.54.54,0,0,0-.767-.418l-.1-.314a1.113,1.113,0,0,0-.488-.1c-.035-.1-.035-.174-.07-.279a.793.793,0,0,0-.418-.209.321.321,0,0,0-.383.244c0,.1.035.279-.1.314a.181.181,0,0,1-.139-.07c-.139-.174-.314-.418-.244-.627.07-.279.453-.488.314-.732a.525.525,0,0,0-.732.174,1.151,1.151,0,0,0-.07.837c.035.209.1.488-.1.558a.458.458,0,0,1-.349-.1c-.244-.139-.453-.314-.7-.453-.279-.174-.558-.453-.453-.767.1-.209.349-.279.523-.383a1.839,1.839,0,0,0,.627-1.534c.035-.314-.035-.732-.349-.8-.139-.035-.314.035-.453,0-.314-.07-.418-.418-.7-.593a.611.611,0,0,0-.837.314c-.035.1-.035.209-.07.314a.2.2,0,0,1-.244.139c-.244,0-.383-.244-.453-.488s-.1-.523-.314-.662a.839.839,0,0,0-.8.1,1.671,1.671,0,0,1-.244-.7,3.762,3.762,0,0,0-.1-.662,3.349,3.349,0,0,0,1.882-.941,4.191,4.191,0,0,0,.767-.976c.418-.7.209-.767.593-1.22,0,0,.627-.8.8-1.115a.122.122,0,0,1,.035-.07c0-.035.035-.07.035-.1.244-.732-.07-1.15-.035-1.847a3.937,3.937,0,0,1,.314-1.115,11.158,11.158,0,0,0,.558-1.394c.139-.627,0-.732.139-1.394A4.647,4.647,0,0,1,37,122.2a8.3,8.3,0,0,0,.593-2.2c.035-.174,0-.349.1-.453a23.213,23.213,0,0,0,.627-5.159,2.86,2.86,0,0,1,.07-.767c.174-.627.8-1.081.871-1.743a.473.473,0,0,1,.767-.453c.244.1.453.279.7.244a.7.7,0,0,0,.523-.906,2.4,2.4,0,0,0-.7-.976c-.209-.174-.453-.383-.732-.314-.244.07-.383.314-.523.558-.279.627-.558,1.22-.837,1.847l.627-3.66a13.158,13.158,0,0,0,.209-1.638c.035-.558,0-1.115.07-1.673.139-1.708.906-3.311.976-5.019.035-.767.279-1.534.383-2.3a2.814,2.814,0,0,1,.976-2.022,1.116,1.116,0,0,1,.174.871,1.018,1.018,0,0,0-.07.314c.035.209.244.349.453.453a6.122,6.122,0,0,1,3.137,4.74,10.9,10.9,0,0,0,.139,1.5,5.863,5.863,0,0,0,.558,1.359c.244.453.523.941,1.046,1.046.279.07.314.453.314.732a1.785,1.785,0,0,0,.07.871,1.363,1.363,0,0,0,.244-1.15,2.9,2.9,0,0,1-.139-.523.469.469,0,0,1,.209-.488A2.4,2.4,0,0,1,46.1,103.9a4,4,0,0,1,0-1.464,9.311,9.311,0,0,0-.139-1.952,6.28,6.28,0,0,0-1.673-3.555c-.558-.488-1.325-.767-1.708-1.394-.1-.139-.174-.314-.279-.453a3.01,3.01,0,0,0-.488-.453c-.314-.244-.662-.488-.976-.732a2.174,2.174,0,0,0-1.22-.558c.035-.314.07-.593.1-.906a.988.988,0,0,1,.209-.558.623.623,0,0,1,.732-.035,2.676,2.676,0,0,1,.558.523,2.02,2.02,0,0,0,1.29.871,4.624,4.624,0,0,1-1.359-1.708c-.209-.453-.314-1.046.1-1.325a3.8,3.8,0,0,1,.383-.209.841.841,0,0,0,.314-.837,2.159,2.159,0,0,0-.383-.871l.732-.1c.209-.349-.383-.7-.418-1.115a1.547,1.547,0,0,0-.767-1.185c-.139-.1-.279-.139-.383-.279a.9.9,0,0,1,.035-1.185,4.712,4.712,0,0,1,.976-.871.4.4,0,0,0,.209-.314c.07-.279-.209-.488-.453-.593a1.09,1.09,0,0,0-.871-.035.521.521,0,0,0-.209.767c-.174.07-.314-.139-.418-.314a1.972,1.972,0,0,0-2.022-.976.481.481,0,0,1-.314,0c-.244-.139-.1-.488-.139-.732-.035-.349-.418-.523-.732-.593a4.712,4.712,0,0,1-1.011-.174c-.453-.209-.7-.732-1.15-.976-.279-.139-.662-.279-.593-.558a.327.327,0,0,0-.314.418,4.962,4.962,0,0,1-.279-1.569,2.145,2.145,0,0,0-.07-.662,2.523,2.523,0,0,0-.383-.662c-.418-.523-.871-1.081-1.29-1.6a4.147,4.147,0,0,0-.662-.7c-.174-.139-.383-.279-.558-.418a1.718,1.718,0,0,1-.558-1.359c.035-.558.558-.871,1.011-1.185a.969.969,0,0,0,.418-.418c.1-.279-.035-.593.139-.837.1-.139.279-.209.383-.349a.478.478,0,0,0-.035-.523,1.338,1.338,0,0,0-.383-.383,4.746,4.746,0,0,0-1.534-.871c-.244-.07-.488-.035-.558-.174-.07-.1,0-.244.07-.383l.627-.314c.035-.453.07-.906.07-1.359,0-.07,0-.139.07-.174.035-.035.07-.035.139-.035l.941-.209a1.917,1.917,0,0,1,.767-.07c.453.1.767.558,1.081.871.349.349.906.593,1.255.244-.314-.139-.383-.593-.662-.8a3.373,3.373,0,0,0-.837-.279A3.015,3.015,0,0,1,32.541,65a4.048,4.048,0,0,0-1.917-.523.6.6,0,0,0-.418.07.71.71,0,0,0-.209.244,3.106,3.106,0,0,1-1.046.976.61.61,0,0,1-.593.07c-.174-.1-.244-.314-.383-.418-.279-.279-.732-.209-1.115-.174s-.871-.1-.941-.488a1.275,1.275,0,0,0,.627,0c.174-.1.314-.349.139-.523a.957.957,0,0,0-.453-.07,1.136,1.136,0,0,0-.627-.8,1.943,1.943,0,0,1,1.325-.244c.244.035.593.035.627-.174.035-.244-.314-.349-.558-.418a.672.672,0,0,1-.453-.558A.476.476,0,0,1,27,61.446c.139,0,.279.07.418.07s.314-.07.314-.209c-.8-.174-1.569-.383-2.37-.558a.889.889,0,0,0-.523,0c-.139.07-.209.209-.314.314a.778.778,0,0,1-.488.1h-.941c-.488,0-.627.035-.8-.07a.712.712,0,0,1-.174-.314,1.082,1.082,0,0,1-.523-.7v-.07c0-.035.07-.035.1-.035a3.027,3.027,0,0,1,.8.035c.279.035.418.279.7.314a.589.589,0,0,0,.662-.383.442.442,0,0,1,.035-.209c.035-.07.07-.139.139-.139.035,0,.07.035.139.035q.052,0,.1-.1a1.643,1.643,0,0,0,.209-.523v-.139c-.035-.035-.1-.07-.139-.035a1.135,1.135,0,0,1-.139.488.3.3,0,0,1-.453.035.4.4,0,0,1-.035-.349.691.691,0,0,0-.732-.035c-.07.035-.1.07-.174.1-.1.035-.244,0-.383.035-.209.035-.383.244-.593.244-.139,0-.244-.035-.383-.035s-.279.1-.244.209.139.139.209.209c.1.035.174.174.139.244-.244-.035-.453-.07-.7-.1a.5.5,0,0,1-.209-.07.874.874,0,0,1-.139-.244.331.331,0,0,0-.349-.139.3.3,0,0,0-.209.314.7.7,0,0,0-.7.07.679.679,0,0,0-.035.8,2.082,2.082,0,0,1,.349.8.554.554,0,0,1-.767-.349,1.461,1.461,0,0,1,.035-.941,1.261,1.261,0,0,0,.07-.871,2.126,2.126,0,0,0-.453-.523.562.562,0,0,1-.209-.627.614.614,0,0,1,.453-.314,1.641,1.641,0,0,0,.558-.139.615.615,0,0,0,.279-.523.652.652,0,0,0-.349-.488.323.323,0,0,0-.418.1.382.382,0,0,0,0,.279.385.385,0,0,1,0,.279c-.035.07-.139.139-.209.07a.334.334,0,0,1-.07.314.6.6,0,0,1-.593.139,1.262,1.262,0,0,1-.8-.523c-.07-.1-.1-.314-.209-.418a.274.274,0,0,0-.383,0c-.035.035-.035.1-.07.139a.4.4,0,0,1-.279.1,1.048,1.048,0,0,1-.662-.035c-.349-.209-.314-.732-.627-1.011a1.568,1.568,0,0,0-.837-.209,2.172,2.172,0,0,1-1.29-.558,1.934,1.934,0,0,0-.279-.209,1.186,1.186,0,0,0-.349-.035h-1.29a.635.635,0,0,0-.07-.732c-.174-.209-.418-.349-.558-.558-.1-.139-.139-.349-.279-.453-.139-.139-.383-.139-.453,0-.07.209.174.418.07.593a2.467,2.467,0,0,1-1.115-.349,1.406,1.406,0,0,1-.662-.941,2.28,2.28,0,0,0-.07,1.081c-.139,0-.1-.244-.209-.349-.1-.139-.383-.035-.418.139a.536.536,0,0,0,.209.488c.07.07.139.139.139.209,0,.1-.139.174-.244.174a.469.469,0,0,0-.314.07c.035.035.035.1.07.139a1.568,1.568,0,0,1-.279.07,1.054,1.054,0,0,1-.349-.07.981.981,0,0,0-.279-.035c-.209-.035-.279,0-.418-.035a1.205,1.205,0,0,1-.418-.1c-.07-.035-.209-.035-.279-.07-.07-.1,0-.279.07-.383s.174-.209.244-.314a.9.9,0,0,0-.07-.837A7.159,7.159,0,0,0,3.82,51.024a1.517,1.517,0,0,0-.244-.209c-.244-.1-.558.035-.8-.07a2.908,2.908,0,0,1-.418-.279c-.244-.139-.523-.1-.767-.209-.244-.07-.488-.349-.383-.593a.572.572,0,0,1,.418-.244,8.037,8.037,0,0,1,1.813-.209,4.654,4.654,0,0,0,.7,0c.209-.035.418-.1.627-.139a3.826,3.826,0,0,1,1.534.07,1.365,1.365,0,0,0,.07-1.534A1.64,1.64,0,0,0,5,46.877a.261.261,0,0,1-.174-.035c-.1-.035-.139-.174-.244-.244-.139-.07-.279.1-.383.244-.209.349-.418.7-.627,1.011a1.972,1.972,0,0,1-.244-1.081c-.07-.1.174-.314.139-.418-.035-.139-.209-.07-.349-.07a.335.335,0,0,1-.314-.244.35.35,0,0,1,.174-.383c.07-.035.139-.035.209-.1a.376.376,0,0,0,.07-.279.418.418,0,0,1,.7-.314c.139.174.07.453.139.662,0,.035.035.1.07.1h.07c.174-.07.349-.209.558-.174a.814.814,0,0,1,.418.349c.139.139.314.279.488.174a.481.481,0,0,1,.139-.1c.349-.279.906.1,1.29-.1.07-.035.139-.139.07-.209a.108.108,0,0,0-.07-.035c-.139-.035-.279-.07-.383-.1-.07-.035-.139-.035-.209-.1-.07-.035-.07-.139-.035-.209.035-.035.1-.035.174-.07s.139-.07.1-.139a.573.573,0,0,0-.349-.035.316.316,0,0,0-.383-.209.3.3,0,0,1-.174.314c-.07.035-.1.1-.174.139-.07.07-.244.139-.279.035-.035-.035-.035-.1-.07-.139-.035-.07-.139-.035-.244-.035a.293.293,0,0,1-.174-.453,1.132,1.132,0,0,1,.453-.349,6.921,6.921,0,0,1,.906-.314,2.477,2.477,0,0,0-.7-.139,1.031,1.031,0,0,0-.7.209.924.924,0,0,1-.209.174c-.1.07-.279.035-.383.1-.07.035-.139.139-.244.174-.174.07-.383-.1-.523,0a.481.481,0,0,1-.139.1.491.491,0,0,1-.488-.035,1.222,1.222,0,0,0-.488-.209.688.688,0,0,0-.418.209.713.713,0,0,1-.593.1.412.412,0,0,1-.279-.488c.035-.139.174-.209.174-.349,0-.174-.209-.279-.279-.418-.1-.209.035-.488.139-.662a3.359,3.359,0,0,1,0-.837,1.037,1.037,0,0,1,.349-.7,1.183,1.183,0,0,0,.209-.209c.1-.1.209-.314.349-.244a.481.481,0,0,1,.139.1c.1.07.279,0,.383-.1s.209-.244.349-.244a.526.526,0,0,1,.488.314.841.841,0,0,0,.244-.593c.1-.07.279.07.349,0s.035-.174.035-.279c.035-.174.279-.209.488-.174.174.035.349.035.558.07a.859.859,0,0,0,.593-.07l.209-.209a1,1,0,0,1,.8-.279.21.21,0,0,1,.139.035.447.447,0,0,1,.174.488c.1.035.209-.07.279-.139.279-.174.662.209.941.035-.035-.139-.1-.349.035-.453.174-.174.558.035.732-.139.035-.035.07-.1.1-.139a.317.317,0,0,1,.349,0,1.023,1.023,0,0,0,.349.1.353.353,0,0,0,.244-.139,1.388,1.388,0,0,1,.732-.314h.1c.035.035,0,.07,0,.1-.035.174-.07.314-.1.488.07-.07.174-.035.209.07.035.07,0,.174,0,.244a.332.332,0,0,0,.07.244c.1.1.279-.035.383-.139a.985.985,0,0,0,.453.593.314.314,0,0,0,.174.035.348.348,0,0,0,.139-.174,4.077,4.077,0,0,0,.174-.7A.7.7,0,0,1,12.5,39a.212.212,0,0,1,.349,0c.174.349.767,0,1.115.1a1.019,1.019,0,0,1,.418.244,6.062,6.062,0,0,0,.627.383.5.5,0,0,0,.209.07.3.3,0,0,0,.209-.314.5.5,0,0,1,.1-.383c.1-.139.383-.174.418-.349.035-.139-.1-.279-.209-.349-.1-.1-.209-.244-.139-.383.07-.1.209-.1.279-.209a2.222,2.222,0,0,0,.07-.244.425.425,0,0,1,.314-.279,1.842,1.842,0,0,1,.453-.035.868.868,0,0,1,.662.244c.07.1.1.209.209.244.174.035.279-.139.383-.244.244-.209.627-.139.976-.139a.593.593,0,0,0,.244-.035c.07-.035.1-.07.174-.1l.523-.418a3.389,3.389,0,0,1,.035.627,2.425,2.425,0,0,1-.07.558,3.181,3.181,0,0,1,.906-1.011,3.379,3.379,0,0,1,.732-.349c.07.035.07.139.035.209a1.16,1.16,0,0,1-.1.209c-.139.209.139.418.07.732-.035.174-.139.174-.279.453-.07.174-.139.383-.1.418.07.035.558-1.081.906-.976a.3.3,0,0,1,.209.244.626.626,0,0,1-.139.314.6.6,0,0,0-.035.349c.035.07.139.1.244.139l.523.209.209.1c.07.1,0,.279.035.418.035.244.279.418.488.558a2,2,0,0,1,.767,1.29c.035.244.1.453.1.593a.427.427,0,0,0,.523.383c.139-.035.244-.139.383-.139.279.035.209.453.349.7s.523.244.8.1a5.334,5.334,0,0,0,.627-.627.788.788,0,0,1,.8-.279c.1-.383.314-.837.7-.837.174,0,.314.1.488.035a.549.549,0,0,0,.244-.244,1,1,0,0,1,1.011-.279,1.5,1.5,0,0,1-.209.941A1.255,1.255,0,0,0,30.9,41.4a3.294,3.294,0,0,0,.732,1.081c.209-.209.383-.418.593-.627.07-.07.1-.139.174-.174.244-.1.593.139.837,0a5.142,5.142,0,0,0,.8,1.847,1.228,1.228,0,0,0-.209-1.359c-.139-.174-.349-.279-.418-.523a.538.538,0,0,1,.244-.558,1.324,1.324,0,0,1,.593-.244c.453-.1.837-.174,1.081-.244a1.932,1.932,0,0,0,0,.906,1.4,1.4,0,0,0,.383.7c.07.07.349.244,1.325.07,1.081-.174,1.15-.488,1.778-.418a9.736,9.736,0,0,0,1.15.209,2.225,2.225,0,0,0,1.081-.279,5.374,5.374,0,0,1-1.5-1.15,2.562,2.562,0,0,1-.593-1.325c-.035-.383-.07-.906-.453-1.011.209,0,.314-.209.349-.383a1.579,1.579,0,0,1,.1-.558c.035-.1.139-.174.174-.314.07-.139,0-.314-.035-.488a1.905,1.905,0,0,1,.314-1.429c-.209-.035-.383-.035-.593-.07a1.053,1.053,0,0,1,.174-.558c-.314-.07-.383-.453-.314-.767a2.1,2.1,0,0,0,.174-.906,2.128,2.128,0,0,1-.1-.453.522.522,0,0,1,.7-.453c-.1-.279-.558-.174-.8-.349a1.222,1.222,0,0,1-.314-.593c-.07-.209-.244-.453-.488-.383-.035-.279-.035-.523-.07-.8-.1.1-.279-.035-.314-.174s-.035-.279-.07-.418c-.418.1-.837-.558-.871-.976a4.182,4.182,0,0,0-.07-1.325c-.174-.453-.627-.941-.383-1.325a2.1,2.1,0,0,1,.279-.279.734.734,0,0,0,.1-.837c-.139-.279-.453-.418-.7-.593a.807.807,0,0,1-.418-.767.638.638,0,0,1,.732-.418,2.242,2.242,0,0,1,.837.349,9.524,9.524,0,0,0,2.126.906,2.526,2.526,0,0,0,1.115.139,4.641,4.641,0,0,0,.976-.349,2.332,2.332,0,0,1,1.673-.139,1.09,1.09,0,0,1,.662,1.359c-.174.383-.662.593-.837.976a1.368,1.368,0,0,0,.174,1.255c.244.383.558.7.767,1.081a2.271,2.271,0,0,1,.244,1.359.6.6,0,0,0,.627-.1,3.059,3.059,0,0,1,.523-.418,1.363,1.363,0,0,1,.837-.07,7.147,7.147,0,0,1,1.917.558,2.5,2.5,0,0,0,.871.244c.209,0,.383-.07.593-.07a3.253,3.253,0,0,1,.767.139c1.29.349,2.754.1,3.869.8.523.314,1.046.837,1.6.627.035,0,.07-.035.1-.035a.907.907,0,0,1,.244-.1c.244-.1,1.22-.523,1.847-.871a4.668,4.668,0,0,0,1.011-.837c.488-.558,1.394-.523,2.126-.593a7.682,7.682,0,0,0,1.255-.139,1.185,1.185,0,0,0,.906-.8,5.625,5.625,0,0,1-3.1.488,2.145,2.145,0,0,1-.8-.244,1.46,1.46,0,0,1-.593-1.743c.244-.558.837-.976.906-1.569a4.907,4.907,0,0,1,.035-.732c.139-.349.558-.453.906-.523a8.411,8.411,0,0,0,1.952-.767,9.6,9.6,0,0,1,2.544-1.255C64.713,21.745,65.479,21.92,65.933,21.676Z" transform="translate(8.01 5.9)"/></g><g transform="translate(1186.909 5011.489)"><path class="b" d="M25.082,56.2a1.182,1.182,0,1,0,1.182,1.182A1.215,1.215,0,0,0,25.082,56.2Z" transform="translate(-6.247 -14.689)"/><path class="b" d="M21.682,61.6a1.182,1.182,0,1,0,1.182,1.182A1.124,1.124,0,0,0,21.682,61.6Z" transform="translate(-5.358 -16.1)"/><path class="b" d="M16.472,0A16.487,16.487,0,0,0,0,16.472a13.6,13.6,0,0,0,.222,2.437A6.132,6.132,0,0,0,.665,20.46a24.431,24.431,0,0,0,2.068,4.949L15.364,47.347a1.2,1.2,0,0,0,2.068,0,1.308,1.308,0,0,0-.074-1.33c-.443-.739-1.847-3.1-1.847-3.1C13,38.778,6.426,27.625,4.136,23.045a22.56,22.56,0,0,1-.96-2.364l-.443-1.4h0a11.681,11.681,0,0,1-.3-2.807,13.96,13.96,0,1,1,27.92,0,13.6,13.6,0,0,1-.222,2.437c-.074.3-.148.517-.222.813l-.369,1.551a3.6,3.6,0,0,1-.3.813c-1.625,3.545-6.352,11.523-9.307,16.472h0a.9.9,0,0,0-.222.665A1.167,1.167,0,0,0,20.9,40.4a1.06,1.06,0,0,0,.96-.517h0L30.21,25.409h0a25.281,25.281,0,0,0,2.216-5.318c.074-.3.148-.591.222-.812a17.285,17.285,0,0,0,.222-2.807A16.471,16.471,0,0,0,16.472,0Z"/><circle class="c" cx="5.318" cy="5.318" r="5.318" transform="translate(11.006 10.71)"/></g></g></svg>