<?xml version="1.0" encoding="utf-8"?>
<!-- Generator: Adobe Illustrator 22.0.1, SVG Export Plug-In . SVG Version: 6.00 Build 0)  -->
<svg version="1.1" id="Calque_1" xmlns="http://www.w3.org/2000/svg" xmlns:xlink="http://www.w3.org/1999/xlink" x="0px" y="0px"
	 viewBox="0 0 75 11" style="enable-background:new 0 0 75 11;" xml:space="preserve">
<style type="text/css">
	.st0{fill:#FFFFFF;}
</style>
<path class="st0" d="M0,0.1V11h75V0.1H0z M11.4,4.8L9.1,7l0.5,3.1c0.1,0.5-0.5,1-1,0.7L5.8,9.3l-2.9,1.5c-0.4,0.4-1-0.1-0.9-0.6
	l0.5-3.1L0.2,4.9C-0.2,4.5,0,3.8,0.6,3.8l3.1-0.4l1.4-2.8l0,0c0.3-0.5,1-0.5,1.3,0l1.4,2.8L11,3.8C11.6,3.8,11.9,4.5,11.4,4.8z
	 M27.3,4.8L25,7l0.5,3.1c0.1,0.5-0.5,1-1,0.7l-2.9-1.5l-2.9,1.5c-0.5,0.3-1.1-0.2-1-0.7L18.3,7L16,4.8c-0.4-0.4-0.2-1.1,0.4-1.1
	l3.1-0.4l1.4-2.8c0.3-0.5,1-0.5,1.3,0l1.4,2.8l3.1,0.4C27.5,3.8,27.7,4.5,27.3,4.8z M43.1,4.8L40.8,7l0.5,3.1c0.1,0.5-0.5,1-1,0.7
	l-2.9-1.5l-2.8,1.6c-0.5,0.3-1.1-0.2-1-0.7l0.5-3.1l-2.3-2.2c-0.4-0.4-0.2-1.1,0.4-1.1l3.1-0.4l1.4-2.8c0.3-0.5,1-0.5,1.3,0l1.4,2.8
	l3.1,0.4C43.3,3.8,43.5,4.5,43.1,4.8z M59,4.8L56.6,7l0.5,3.1c0.1,0.5-0.5,1-1,0.7l-2.9-1.5l-2.9,1.5c-0.5,0.3-1.1-0.2-1-0.7L50,7
	l-2.3-2.2c-0.4-0.4-0.2-1.1,0.4-1.1l3.1-0.4l1.4-2.8c0.3-0.5,1-0.5,1.3,0l1.4,2.8l3.1,0.4C59.2,3.8,59.3,4.5,59,4.8z M74.8,4.8
	L72.5,7l0.5,3.1c0.1,0.5-0.5,1-1,0.7l-2.9-1.5l-2.9,1.5c-0.5,0.3-1.1-0.2-1-0.7L65.9,7l-2.3-2.2c-0.4-0.4-0.2-1.1,0.4-1.1l3-0.5
	l1.4-2.8c0.3-0.5,1-0.5,1.3,0l1.4,2.8l3.1,0.4C75,3.8,75.2,4.5,74.8,4.8z"/>
</svg>
