<svg xmlns="http://www.w3.org/2000/svg" viewBox="0 0 124.524 83.752" width="124.524" height="83.752"><defs><style>.a{fill:#3c3c3b;}.b{fill:#e5352b;}</style></defs><g transform="translate(0 0.1)"><g transform="translate(0 -0.1)"><path class="a" d="M29.349,88.294a12.663,12.663,0,0,0-2.625-4.056,18.848,18.848,0,0,0-3.967-3.1,39.862,39.862,0,0,0-4.623-2.386l-.418-.179c-1.044-.477-2.088-.954-3.072-1.432a13.6,13.6,0,0,1-2.625-1.67,6.737,6.737,0,0,1-1.73-2.177,5.374,5.374,0,0,1-.447-2.923,3.951,3.951,0,0,1,.507-1.432,4.81,4.81,0,0,1,1.372-1.581,7.263,7.263,0,0,1,2.3-1.223,8.137,8.137,0,0,1,3.281-.328,9.029,9.029,0,0,1,1.611.328,7.021,7.021,0,0,1,2,.925c.358.239.716.477,1.074.746s.716.507,1.044.746a9.334,9.334,0,0,0,1.014.626,3.643,3.643,0,0,0,1.133.388,3.965,3.965,0,0,0,1.849-.3,10.733,10.733,0,0,0,1.611-.925l1.074-.746-.149-.209c-.418-.537-.954-1.193-1.611-1.939a16.319,16.319,0,0,0-2.416-2.3,19.9,19.9,0,0,0-3.221-2.058,13.532,13.532,0,0,0-4.116-1.223l-.388-.03a17.627,17.627,0,0,0-4.623.388,14.362,14.362,0,0,0-4.355,1.76,11.452,11.452,0,0,0-3.341,3.221,9.852,9.852,0,0,0-1.611,4.623A11.48,11.48,0,0,0,4.5,75.349a10.642,10.642,0,0,0,2.565,3.818,16.117,16.117,0,0,0,3.758,2.655c1.4.716,2.833,1.4,4.265,2.058l.865.388A28.335,28.335,0,0,1,20.1,86.5a10.632,10.632,0,0,1,2.476,2.058,4.994,4.994,0,0,1,1.163,2.118,10.262,10.262,0,0,1,.268,2.386,7.509,7.509,0,0,1-1.283,3.4A7.94,7.94,0,0,1,20.192,98.7a10.244,10.244,0,0,1-3.281,1.163,12.515,12.515,0,0,1-3.49.149,10.38,10.38,0,0,1-3.012-.746,10.255,10.255,0,0,1-2.625-1.581,6.648,6.648,0,0,0-1.909-1.163A7.332,7.332,0,0,0,4.355,96.2a4.025,4.025,0,0,0-1.909.268c-.537.209-1.312.507-2.267.895L0,97.451l.119.239a15.641,15.641,0,0,0,5.4,5.756,16.478,16.478,0,0,0,7.427,2.535,16.8,16.8,0,0,0,1.73.089,16.163,16.163,0,0,0,4.534-.626,16.815,16.815,0,0,0,5.309-2.535,13.985,13.985,0,0,0,3.758-4.086,11.867,11.867,0,0,0,1.7-5.22A11.362,11.362,0,0,0,29.349,88.294Z" transform="translate(0 -41.944)"/><g transform="translate(86.615 17.806)"><path class="a" d="M346.713,105.9H342V61.191a1.5,1.5,0,0,1,1.491-1.491H348.2v44.709A1.5,1.5,0,0,1,346.713,105.9Z" transform="translate(-326.61 -59.67)"/><path class="a" d="M295.441,161.97H290.4V140.793a1.2,1.2,0,0,1,1.193-1.193h5.041v21.177A1.216,1.216,0,0,1,295.441,161.97Z" transform="translate(-290.4 -115.739)"/><path class="a" d="M295.441,71.65H290.4V60.793a1.2,1.2,0,0,1,1.193-1.193h5.041V70.487A1.19,1.19,0,0,1,295.441,71.65Z" transform="translate(-290.4 -59.6)"/><path class="a" d="M398.313,105.9H393.6V61.191a1.5,1.5,0,0,1,1.491-1.491H399.8v44.709A1.5,1.5,0,0,1,398.313,105.9Z" transform="translate(-362.819 -59.67)"/></g><g transform="translate(34.837)"><path class="b" d="M149.689,167.394c-1.879-2.028-3.7-3.967-5.4-5.846-1.7-1.849-3.311-3.579-4.8-5.19s-2.714-2.923-3.669-4a15.7,15.7,0,0,0-1.521-1.432c-.447-.358-.805-.626-1.074-.835a3.814,3.814,0,0,0-.835-.388,11.849,11.849,0,0,0-4.086-.507c-2.863,0-11.3,1.67-11.3,1.67a3.726,3.726,0,0,1,.656,0c-.418.03-.656.06-.656.06l.388,12.139c.746,8.083,11.185,9.843,11.185,9.843-.567-2.028-.089-6.681-.567-14.7l22.221,23.771a20.845,20.845,0,0,0,5.13,4.325,13.19,13.19,0,0,0,6.741,1.611h6.532q-6.979-7.7-13.332-14.615C153.418,171.421,151.569,169.422,149.689,167.394Z" transform="translate(-116.94 -104.669)"/><path class="b" d="M116.83,37.034s8.441,1.67,11.3,1.67a11.848,11.848,0,0,0,4.086-.507,3.813,3.813,0,0,0,.835-.388c.268-.209.626-.477,1.074-.835a12.87,12.87,0,0,0,1.521-1.432c.984-1.044,2.207-2.386,3.669-4,1.491-1.611,3.072-3.341,4.8-5.19,1.7-1.849,3.519-3.818,5.4-5.846s3.728-4.027,5.518-6Q161.39,7.58,168.369-.1H161.9a13.114,13.114,0,0,0-6.741,1.611,20.953,20.953,0,0,0-5.13,4.325L127.806,29.607c.477-8.023,0-12.676.567-14.7,0,0-10.439,1.76-11.185,9.843L116.8,36.884s.239.03.656.06A3.091,3.091,0,0,1,116.83,37.034Z" transform="translate(-116.8 0.1)"/></g><g transform="translate(85.929 68.093)"><path class="b" d="M292.842,243.473a7.409,7.409,0,0,1-2.476-1.67,7.72,7.72,0,0,1-1.67-2.476,8.056,8.056,0,0,1,0-6.085,7.72,7.72,0,0,1,1.67-2.476,8.235,8.235,0,0,1,2.476-1.67,8.016,8.016,0,0,1,3.042-.6,8.13,8.13,0,0,1,3.042.6,7.72,7.72,0,0,1,2.476,1.67,8.623,8.623,0,0,1,1.67,2.476,8.056,8.056,0,0,1,0,6.085,7.408,7.408,0,0,1-1.67,2.476,7.916,7.916,0,0,1-8.56,1.67Zm-.746-11.006a5.329,5.329,0,1,0,3.788-1.581A5.326,5.326,0,0,0,292.1,232.467Z" transform="translate(-288.1 -228.411)"/><path class="b" d="M355.546,243.929h-2.774l-3.937-5.279h-1.79v5.279H344.6V228.3h4.623a5.047,5.047,0,0,1,3.907,1.551,5.212,5.212,0,0,1,1.253,3.609,5.413,5.413,0,0,1-1.253,3.609,4.377,4.377,0,0,1-1.819,1.193Zm-6.323-7.457a2.971,2.971,0,0,0,2.267-.835,3.049,3.049,0,0,0,.686-2.118,3.23,3.23,0,0,0-.686-2.147,2.926,2.926,0,0,0-2.267-.835h-2.177v5.935Z" transform="translate(-327.748 -228.27)"/><path class="b" d="M386.758,228.23h2.565a5.047,5.047,0,0,1,3.907,1.551,5.264,5.264,0,0,1,1.253,3.609A5.161,5.161,0,0,1,393.23,237a4.947,4.947,0,0,1-3.907,1.551h-2.177v5.279H384.7V228.2h2.058Zm5.548,5.16a3.2,3.2,0,0,0-.686-2.118,2.971,2.971,0,0,0-2.267-.835h-2.177v5.935h2.177a2.865,2.865,0,0,0,2.267-.835A3.183,3.183,0,0,0,392.306,233.39Z" transform="translate(-355.888 -228.2)"/></g></g></g></svg>