<svg xmlns="http://www.w3.org/2000/svg" xmlns:xlink="http://www.w3.org/1999/xlink" viewBox="0 0 44.24 44.414"><defs><style>.a{fill:#ccb079;}.b{clip-path:url(#a);}</style><clipPath id="a"><path class="a" d="M0,5.4H44.239V-39.01H0Z" transform="translate(0 39.01)"/></clipPath></defs><g transform="translate(0 39.01)"><g class="b" transform="translate(0 -39.01)"><g transform="translate(0 18.081)"><path class="a" d="M.955.8c-2.326,3.06.619,3.072,1.3,2.533a.9.9,0,0,0-.085-1.2,5.545,5.545,0,0,0-.8-.485A8.367,8.367,0,0,1,5.641-.492C5.07.367,4.387.985,3.955,1.775A1.6,1.6,0,0,0,4.973,4.3c1.754.2,3.187-2.608-.3-2.072A6.733,6.733,0,0,1,7.279-.554c.356-.19.89-.257.852-.764C8.085-1.907,7.567-2,7.059-2.1a4.872,4.872,0,0,1-2.34-1.112c-.082-.317.13-.28.24-.343A1.107,1.107,0,0,0,5.6-4.921c-.472-1.3-2.586-1.055-2.6.317C2.99-2.86,4.992-2.143,5.315-1.649A3.7,3.7,0,0,1,2.493-2.1c-.472-.28-.9-.437-.825-1.209C1.746-4.156.809-4.571.035-4.164c-1.742.921,1.132,2.393,2.48,3.257-2.072.46-2.5-.015-5.007-.824C-3.479-2.052-2.648-1.7-6.5.829c-1.316.861.888.729,3.6,2.031.345.165.511-.079.741-.3A6.932,6.932,0,0,1,.955.8" transform="translate(6.896 5.776)"/></g><g transform="translate(13.507 0)"><path class="a" d="M.349.937C-3.02-.915-2.6,2-1.964,2.6A.9.9,0,0,0-.787,2.338a5.611,5.611,0,0,0,.363-.86,8.353,8.353,0,0,1,2.739,3.9C1.382,4.943.67,4.358-.173,4.047A1.6,1.6,0,0,0-2.52,5.426c.057,1.764,3.049,2.768,2-.6A6.732,6.732,0,0,1,2.618,6.994c.239.323.384.843.879.73.576-.131.589-.658.616-1.176A4.87,4.87,0,0,1,4.87,4.071c.3-.129.295.088.375.187A1.106,1.106,0,0,0,6.691,4.7C7.909,4.038,7.356,1.985,6,2.172,4.269,2.412,3.854,4.5,3.412,4.891a3.707,3.707,0,0,1,.032-2.857c.208-.51.3-.952,1.076-1C5.367.992,5.641,0,5.123-.7,3.958-2.29,2.926.77,2.266,2.23,1.508.248,1.913-.244,2.347-2.844c.171-1.024-.058-.15-3.121-3.592-1.044-1.177-.591.985-1.48,3.861-.113.367.153.5.408.689A6.921,6.921,0,0,1,.349.937" transform="translate(2.521 6.764)"/></g><g transform="translate(28.762 7.355)"><path class="a" d="M.766.447c.922-3.733-1.787-2.573-2.2-1.807A.9.9,0,0,0-.88-.29a5.784,5.784,0,0,0,.926.13A8.387,8.387,0,0,1-3.022,3.495c.183-1.017.566-1.855.649-2.751C-2.236-.741-3.38-1.45-4.311-1.168-6-.658-6.2,2.492-3.21.613A6.737,6.737,0,0,1-4.5,4.2c-.253.315-.715.589-.478,1.038.274.524.786.4,1.294.291A4.853,4.853,0,0,1-1.1,5.624c.2.258-.008.307-.084.41a1.106,1.106,0,0,0-.051,1.511c.951,1.006,2.792-.058,2.26-1.323-.677-1.606-2.8-1.471-3.293-1.8A3.707,3.707,0,0,1,.505,3.72c.546.069,1,.044,1.239.782a1.03,1.03,0,0,0,1.835.135C4.815,3.1,1.593,2.891.012,2.633c1.719-1.246,2.3-.978,4.923-1.231,1.033-.1.13-.094,2.666-3.943.868-1.31-1.1-.315-4.112-.433-.384-.016-.439.273-.561.572A6.913,6.913,0,0,1,.766.447" transform="translate(5.531 3.225)"/></g><g transform="translate(30.505 22.95)"><path class="a" d="M.884.7c3.724-.953,1.423-2.792.551-2.8-.36,0-.758.546-.681,1a5.8,5.8,0,0,0,.323.877A8.378,8.378,0,0,1-3.591-1.2c.981-.319,1.9-.378,2.729-.729A1.6,1.6,0,0,0-.093-4.54c-1.248-1.248-4.117.065-1.049,1.811a6.719,6.719,0,0,1-3.772.558c-.4-.072-.857-.351-1.141.071-.331.49.02.881.354,1.277A4.862,4.862,0,0,1-4.558,1.5c-.132.3-.276.138-.4.12a1.108,1.108,0,0,0-1.356.669C-6.752,3.6-4.944,4.724-4.081,3.657-2.985,2.3-4.107.5-4.055-.093A3.706,3.706,0,0,1-2.124,2.014c.2.513.431.9-.1,1.461-.586.613-.112,1.522.747,1.682,1.938.363.6-2.576.082-4.092C.512,1.993.55,2.629,2.012,4.822c.575.864.145.071,4.733.486,1.568.146-.243-1.121-1.561-3.829-.167-.344-.45-.257-.768-.224A6.932,6.932,0,0,1,.884.7" transform="translate(6.382 5.033)"/></g><g transform="translate(15.867 29.254)"><path class="a" d="M.657.913C2.923,4.02,3.778,1.2,3.457.388A.9.9,0,0,0,2.281.126,5.768,5.768,0,0,0,1.586.75a8.377,8.377,0,0,1-.824-4.7c.66.794,1.055,1.625,1.688,2.266a1.6,1.6,0,0,0,2.71-.253c.7-1.622-1.586-3.8-2.071-.3a6.734,6.734,0,0,1-1.916-3.3c-.08-.4.009-.926-.487-1.034-.577-.126-.812.346-1.055.8A4.869,4.869,0,0,1-2.106-3.844c-.328-.011-.23-.2-.26-.328-.166-.681-.569-1.045-1.125-1.012C-4.872-5.1-5.243-3.009-3.932-2.6c1.666.517,2.927-1.2,3.493-1.364A3.7,3.7,0,0,1-1.68-1.394c-.405.373-.675.734-1.4.444C-3.862-1.266-4.531-.489-4.36.37c.38,1.932,2.614-.4,3.83-1.441-.154,2.117-.732,2.39-2.226,4.561-.59.853-.013.159,1.3,4.577C-1.01,9.575-.5,7.424,1.522,5.2c.258-.283.073-.512-.075-.8A6.928,6.928,0,0,1,.657.913" transform="translate(4.743 6.589)"/></g><g transform="translate(12.495 9.332)"><path class="a" d="M.21,2.239C.995,2.085,2.834-2.64,3.061-3.252a.877.877,0,0,0-.217-.921C2.167-5.042,1.488-5.91.85-6.806A1.652,1.652,0,0,0-.4-7.629c-1.01-.228-1.258-.618-1.049-1.647A1.253,1.253,0,0,1,.859-9.55c.281.548.151.146,4.532.1,1.507-.016,1.511-.6,4.676-4.1a1.355,1.355,0,0,0,.437-1.218,1.435,1.435,0,0,1,.812-1.31,1.693,1.693,0,0,1,1.676.437,1.018,1.018,0,0,1,.1,1.347,1.471,1.471,0,0,0-.175,1.134c1.246,7.724-.263,4.912,5.227,6.97a1.71,1.71,0,0,0,.9.12,2.3,2.3,0,0,1,1.228.216,1.508,1.508,0,0,1,.79,1.69,1.372,1.372,0,0,1-1.461.987,2.225,2.225,0,0,0-1.729.393c-4.6,2.978-2.52.689-3.759,7.1-.194,1.009.009,1.373.214,1.639a1.27,1.27,0,1,1-1.866,1.671,1.038,1.038,0,0,1-.232-.78c.011-.93-1.694-1.838-3.71-4.8a1.064,1.064,0,0,0-1.284-.356C-.314,3.752,2.9,3.6.993,4.786a.929.929,0,0,1-1.051,0C-.817,4.231-.907,2.457.21,2.239M6.646-1.094c3.507-1.56,1.894-2.434,4.479,1.2a.342.342,0,0,0,.4.147c-.052-.956.472-1.892.057-2.917-.134-.329.214-.56.575-.646a15.783,15.783,0,0,0,2.493-1.325c-.537-.306-.952-.162-1.321-.278-2.442-.772-2.048.545-2.6-3.3-.58.162-.868.761-1.191,1.267-.714,1.117-1.133.764-3.92.311,2,2.986,2.014,1.918.488,5.073a.713.713,0,0,0-.126.528c.238.217.467.025.664-.061" transform="translate(1.517 16.162)"/></g></g></g></svg>