<svg xmlns="http://www.w3.org/2000/svg" viewBox="0 0 32.755 45.872"><defs><style>.a{fill:#fff;}</style></defs><g transform="translate(-0.008)"><path class="a" d="M33.6,92.389a6.733,6.733,0,0,1-6.739-6.739V83.907A4.143,4.143,0,0,1,31,79.772h3.714a1.532,1.532,0,0,1,0,3.063h-3.7a1.07,1.07,0,0,0-1.072,1.072V85.65a3.661,3.661,0,0,0,3.676,3.676h0A3.731,3.731,0,0,0,37.3,85.573a16.037,16.037,0,0,1,2.431-8.826c.268-.383.517-.747.785-1.11a12.8,12.8,0,0,0,1.378-2.163,9.185,9.185,0,0,0,.823-3.791,9.1,9.1,0,0,0-9.534-9.094,9.1,9.1,0,0,0-5.61,15.891,1.533,1.533,0,0,1-2.029,2.3,12.154,12.154,0,0,1,7.5-21.232A12.141,12.141,0,0,1,45.76,69.683a12.168,12.168,0,0,1-1.11,5.074,16.8,16.8,0,0,1-1.685,2.68c-.249.345-.479.67-.708,1.015a13.086,13.086,0,0,0-1.915,7.141,6.8,6.8,0,0,1-6.739,6.8Z" transform="translate(-17.343 -46.517)"/><path class="a" d="M78.432,8.232A1.536,1.536,0,0,1,76.9,6.7V1.532a1.532,1.532,0,1,1,3.063,0V6.7A1.536,1.536,0,0,1,78.432,8.232Z" transform="translate(-62.171)"/><path class="a" d="M141.838,40.952a1.511,1.511,0,0,1-.881-.287,1.534,1.534,0,0,1-.364-2.144l2.814-3.963a1.538,1.538,0,1,1,2.508,1.781L143.1,40.3A1.519,1.519,0,0,1,141.838,40.952Z" transform="translate(-113.439 -27.416)"/><path class="a" d="M4.18,40.838a1.51,1.51,0,0,1-1.244-.651L.293,36.454a1.511,1.511,0,0,1,.364-2.125,1.554,1.554,0,0,1,2.144.364l2.642,3.733A1.537,1.537,0,0,1,5.08,40.57,1.589,1.589,0,0,1,4.18,40.838Z" transform="translate(0 -27.532)"/></g></svg>