<svg xmlns="http://www.w3.org/2000/svg" viewBox="0 0 310 311">
  <defs>
    <style>
      .cls-1 {
        fill: #3b3b3b;
      }

      .cls-2, .cls-4 {
        fill: #fff;
      }

      .cls-2 {
        font-size: 18px;
        font-family: SegoeUI, Segoe UI;
      }

      .cls-3 {
        fill: #ff5c00;
      }

      .cls-5 {
        fill: none;
      }
    </style>
  </defs>
  <g id="Groupe_5764" data-name="Groupe 5764" transform="translate(-462 -1008)">
    <rect id="Rectangle_1636" data-name="Rectangle 1636" class="cls-1" width="310" height="311" transform="translate(462 1008)"/>
    <g id="Groupe_5694" data-name="Groupe 5694" transform="translate(0 61.575)">
      <text id="découvrez_la_marque" data-name="découvrez la marque" class="cls-2" transform="translate(616 1079.426)"><tspan x="-82.995" y="0">découvrez la marque</tspan></text>
      <g id="essentiel_B" data-name="essentiel B" transform="translate(615.909 1117.733)">
        <g id="essentiel_B-2" data-name="essentiel B" transform="translate(-114.909 -24.733)">
          <g id="Groupe_5675" data-name="Groupe 5675" transform="translate(9.356 9.359)">
            <path id="Tracé_6503" data-name="Tracé 6503" class="cls-3" d="M562.232,43.082a15.4,15.4,0,0,1-15.4,15.366H531.485a15.374,15.374,0,0,1,0-30.748h15.3a15.445,15.445,0,0,1,15.443,15.379" transform="translate(-351.084 -27.7)"/>
            <g id="Groupe_5674" data-name="Groupe 5674" transform="translate(0 2.08)">
              <path id="Tracé_6504" data-name="Tracé 6504" class="cls-4" d="M103.891,68.737h-.05c-5.283,0-9.261-2.915-9.858-7.625h0l-.054-.425h4.307l.056.309c.405,2.254,2.646,3.7,5.6,3.71h0a6.534,6.534,0,0,0,3.7-.974h0a2.618,2.618,0,0,0,1.269-2.131h0a1.717,1.717,0,0,0-.783-1.644h0c-.7-.491-2.11-.952-4.7-1.3h0a16.486,16.486,0,0,1-6.256-1.836h0a4.983,4.983,0,0,1-2.4-4.551h0a6.116,6.116,0,0,1,2.171-4.605h0a9.782,9.782,0,0,1,6.581-2.113h0c5.049-.025,8.618,2.613,9.08,7.007h0l.046.417h-4.288l-.065-.3c-.46-2.065-2.257-3.131-4.773-3.146h0a6.242,6.242,0,0,0-3.281.814h0a2.194,2.194,0,0,0-1.19,1.8h0c.024.663.178.962.912,1.355h0a16.259,16.259,0,0,0,4.153,1.007h0a18.1,18.1,0,0,1,6.217,1.762h0a5.457,5.457,0,0,1,2.724,5.119h0a6.627,6.627,0,0,1-2.605,5.382h0a10.528,10.528,0,0,1-6.518,1.96h0" transform="translate(-71.55 -41.602)"/>
              <path id="Tracé_6505" data-name="Tracé 6505" class="cls-4" d="M39.022,68.692a11.184,11.184,0,0,1-8.042-3.341h0A11.594,11.594,0,0,1,27.7,57.168h0A11.4,11.4,0,0,1,38.813,45.555h0a10.776,10.776,0,0,1,7.723,3.319h0a12.838,12.838,0,0,1,3.438,9.121h0v.085h0v.377H32.069a7.077,7.077,0,0,0,6.953,6.289h0a6.456,6.456,0,0,0,4.378-1.5h0l.225-.2,3.407,2.464-.324.313a10.777,10.777,0,0,1-7.677,2.872h-.008ZM38.814,49.5a7,7,0,0,0-6.467,5.054H45.2A6.9,6.9,0,0,0,38.816,49.5h0" transform="translate(-27.699 -41.602)"/>
              <path id="Tracé_6506" data-name="Tracé 6506" class="cls-4" d="M225.4,68.692a11.184,11.184,0,0,1-8.044-3.34h0a11.593,11.593,0,0,1-3.279-8.185h0a11.394,11.394,0,0,1,11.116-11.613h0a10.765,10.765,0,0,1,7.721,3.321h0A12.853,12.853,0,0,1,236.348,58h0v.079h0v.376H218.44a7.077,7.077,0,0,0,6.954,6.289h0a6.419,6.419,0,0,0,4.375-1.5h0l.226-.2,3.407,2.464-.324.312a10.758,10.758,0,0,1-7.675,2.872h-.009ZM225.189,49.5a7.008,7.008,0,0,0-6.47,5.054h12.852a6.9,6.9,0,0,0-6.382-5.054h0" transform="translate(-151.099 -41.602)"/>
              <path id="Tracé_6507" data-name="Tracé 6507" class="cls-4" d="M414.214,68.693a11.19,11.19,0,0,1-8.042-3.341h0a11.592,11.592,0,0,1-3.28-8.185h0A11.4,11.4,0,0,1,414,45.555h0a10.779,10.779,0,0,1,7.722,3.319h0a12.831,12.831,0,0,1,3.438,9.118h0v.088h0v.376h-17.9a7.074,7.074,0,0,0,6.952,6.289h0a6.441,6.441,0,0,0,4.381-1.5h0l.226-.2,3.4,2.467-.325.313a10.762,10.762,0,0,1-7.676,2.872h-.009ZM414.005,49.5a7.01,7.01,0,0,0-6.467,5.054H420.39A6.9,6.9,0,0,0,414,49.5h0" transform="translate(-276.12 -41.602)"/>
              <path id="Tracé_6508" data-name="Tracé 6508" class="cls-4" d="M164.176,68.736h-.051c-5.286,0-9.266-2.915-9.858-7.626h0l-.054-.424h4.308l.056.309c.405,2.254,2.646,3.7,5.6,3.71h0a6.532,6.532,0,0,0,3.7-.974h0a2.616,2.616,0,0,0,1.267-2.132h0a1.716,1.716,0,0,0-.78-1.643h0c-.7-.491-2.108-.952-4.7-1.3h0a16.459,16.459,0,0,1-6.258-1.836h0a4.982,4.982,0,0,1-2.4-4.551h0a6.111,6.111,0,0,1,2.172-4.605h0a9.785,9.785,0,0,1,6.581-2.113h0c5.048-.025,8.62,2.613,9.079,7.008h0l.046.417H168.6l-.065-.3c-.461-2.065-2.257-3.131-4.771-3.146h0a6.242,6.242,0,0,0-3.283.814h0a2.191,2.191,0,0,0-1.19,1.8h0c.024.664.177.962.912,1.355h0a16.261,16.261,0,0,0,4.156,1.006h0a18.1,18.1,0,0,1,6.219,1.762h0a5.455,5.455,0,0,1,2.726,5.119h0a6.627,6.627,0,0,1-2.609,5.382h0a10.539,10.539,0,0,1-6.518,1.96h0" transform="translate(-111.465 -41.601)"/>
              <path id="Tracé_6509" data-name="Tracé 6509" class="cls-4" d="M349.46,58.336a8.624,8.624,0,0,1-2.081-6.056h0V33.857h4.231v5.2h4.854v4.114H351.61v9.108A4.2,4.2,0,0,0,352.77,55.6h0a4.183,4.183,0,0,0,2.847.879h0c.172,0,1.856-.04,1.856-.04v3.964s-1.638.114-2.524.114h-.008a7.3,7.3,0,0,1-5.48-2.185Z" transform="translate(-239.364 -33.857)"/>
              <path id="Tracé_6510" data-name="Tracé 6510" class="cls-4" d="M475.745,58.336a8.63,8.63,0,0,1-2.083-6.056h0V33.857h4.231V52.281a4.2,4.2,0,0,0,1.161,3.324h0a4.178,4.178,0,0,0,2.846.879h0c.172,0,1.856-.04,1.856-.04v3.964s-1.638.114-2.525.114h-.008a7.294,7.294,0,0,1-5.479-2.185Z" transform="translate(-322.978 -33.857)"/>
              <path id="Tracé_6511" data-name="Tracé 6511" class="cls-4" d="M383.519,33.857H387.8v3.9h-4.279Z" transform="translate(-263.293 -33.857)"/>
              <path id="Tracé_6512" data-name="Tracé 6512" class="cls-4" d="M383.519,70.641V49.25H387.8V70.641Z" transform="translate(-263.293 -44.049)"/>
              <path id="Tracé_6513" data-name="Tracé 6513" class="cls-4" d="M301.894,47.671a9.271,9.271,0,0,0-6.61-2.542h-9.289V67.767h4.233V49.16c5.02,0,5.038,0,5.056,0a4.8,4.8,0,0,1,5.008,5.132V67.768h4.237V54.416A9.245,9.245,0,0,0,301.894,47.671Z" transform="translate(-198.721 -41.32)"/>
            </g>
          </g>
          <path id="Tracé_6514" data-name="Tracé 6514" class="cls-5" d="M205.117,49.466H24.743A24.733,24.733,0,1,1,24.743,0H205.072a24.733,24.733,0,1,1,.046,49.466Z" transform="translate(-0.01 0)"/>
          <path id="Tracé_6515" data-name="Tracé 6515" class="cls-4" d="M563.642,34.214H551.33V27.7a9.977,9.977,0,0,0-5.291,8.833l-.012,7.707a10.091,10.091,0,0,0,9.974,9.9h7.691a9.965,9.965,0,1,0-.05-19.93Zm0,14.644H551.33V39.5h12.312a4.68,4.68,0,1,1,0,9.36Z" transform="translate(-361.537 -18.341)"/>
        </g>
      </g>
    </g>
  </g>
</svg>
