<svg xmlns="http://www.w3.org/2000/svg" viewBox="0 0 312 311.411">
  <defs>
    <style>
      .cls-1 {
        fill: #ff5c00;
      }

      .cls-2, .cls-3 {
        fill: #fff;
      }

      .cls-2 {
        font-size: 22px;
        font-family: SegoeUI-Bold, Segoe UI;
        font-weight: 700;
      }
    </style>
  </defs>
  <g id="Groupe_5763" data-name="Groupe 5763" transform="translate(-460 -1692)">
    <path id="Tracé_6679" data-name="Tracé 6679" class="cls-1" d="M0,0H312V311.411H0Z" transform="translate(460 1692)"/>
    <text id="Des_garanties_exclusives" data-name="Des garanties
exclusives" class="cls-2" transform="translate(616 1805)"><tspan x="-69.813" y="0">Des garanties</tspan><tspan x="-51.509" y="30">exclusives</tspan></text>
    <g id="Extention_5_ans" data-name="Extention 5 ans" transform="translate(663.898 1891.375)">
      <g id="Groupe_5715" data-name="Groupe 5715" transform="translate(-35.899 -32.382)">
        <g id="Groupe_5713" data-name="Groupe 5713" transform="translate(-0.003 0.011)">
          <path id="Tracé_6720" data-name="Tracé 6720" class="cls-3" d="M27.493,45.785l.012-1.161V43.353a4.828,4.828,0,0,0-.354-2,2.292,2.292,0,0,0-1.263-1.174,6.214,6.214,0,0,0-2.3-.35,5.869,5.869,0,0,0-2.189.36,3.094,3.094,0,0,0-1.343.954,2.052,2.052,0,0,0-.447,1.239.992.992,0,0,0,.346.775,1.153,1.153,0,0,0,.784.292.88.88,0,0,0,.71-.234c.09-.108.234-.316.431-.619a1.734,1.734,0,0,1,.62-.6,2.374,2.374,0,0,1,1.1-.194c.535,0,.9.1,1.042.294a1.763,1.763,0,0,1,.274.9q-.554.155-1.036.271c-.38.09-.834.19-1.365.3s-.876.18-1.009.211a3.033,3.033,0,0,0-1.651.9,2.4,2.4,0,0,0-.616,1.654,2.518,2.518,0,0,0,.372,1.327,2.605,2.605,0,0,0,1.052.969,3.322,3.322,0,0,0,1.552.352,4.43,4.43,0,0,0,1.712-.319,6.548,6.548,0,0,0,1.328-.768,4.243,4.243,0,0,0,.569.709,1.183,1.183,0,0,0,.819.378,1.281,1.281,0,0,0,.862-.331,1.028,1.028,0,0,0,.392-.783,3.529,3.529,0,0,0-.208-.911A3.978,3.978,0,0,1,27.493,45.785Zm-2.57-.981a2.993,2.993,0,0,1-.256,1.423,1.6,1.6,0,0,1-.681.614,1.726,1.726,0,0,1-1.836-.024.831.831,0,0,1-.285-.637.653.653,0,0,1,.223-.537,1.43,1.43,0,0,1,.555-.3c.227-.059.634-.152,1.225-.278.424-.091.773-.177,1.055-.265Z"/>
          <path id="Tracé_6721" data-name="Tracé 6721" class="cls-3" d="M36.816,41.383a2.577,2.577,0,0,0-1.092-1.145,3.675,3.675,0,0,0-3.269-.022,3.606,3.606,0,0,0-.9.675,1.4,1.4,0,0,0-.13-.383,1.187,1.187,0,0,0-.458-.5,1.24,1.24,0,0,0-.633-.166,1.161,1.161,0,0,0-.911.385A1.579,1.579,0,0,0,29.1,41.3v6.14a1.646,1.646,0,0,0,.358,1.123,1.211,1.211,0,0,0,.943.419,1.259,1.259,0,0,0,.958-.4,1.622,1.622,0,0,0,.366-1.139V44.778a6.559,6.559,0,0,1,.14-1.688,1.69,1.69,0,0,1,.6-.814,1.471,1.471,0,0,1,.889-.292.956.956,0,0,1,.942.423A3.317,3.317,0,0,1,34.56,43.9v3.54a1.646,1.646,0,0,0,.358,1.123,1.227,1.227,0,0,0,.958.419,1.214,1.214,0,0,0,.945-.41,1.652,1.652,0,0,0,.355-1.132V43.485a9.168,9.168,0,0,0-.063-1.186,2.714,2.714,0,0,0-.3-.916Z"/>
          <path id="Tracé_6722" data-name="Tracé 6722" class="cls-3" d="M45.768,44.769a2.959,2.959,0,0,0-1.036-.865,7.285,7.285,0,0,0-1.674-.6c-.55-.134-.981-.246-1.3-.34a2.069,2.069,0,0,1-.673-.312A.414.414,0,0,1,40.9,42.3c0-.1.027-.246.268-.4a1.5,1.5,0,0,1,.83-.2,1.563,1.563,0,0,1,.763.153,1.709,1.709,0,0,1,.5.437,3.862,3.862,0,0,0,.563.6,1.1,1.1,0,0,0,.715.243,1.216,1.216,0,0,0,.869-.3,1.038,1.038,0,0,0,.323-.781,1.5,1.5,0,0,0-.271-.822,2.532,2.532,0,0,0-.74-.709,3.976,3.976,0,0,0-1.172-.493A6.2,6.2,0,0,0,42,39.842a4.582,4.582,0,0,0-1.9.361,2.875,2.875,0,0,0-1.229.994,2.391,2.391,0,0,0-.424,1.347,2.06,2.06,0,0,0,.472,1.367,3.2,3.2,0,0,0,1.193.858,11.868,11.868,0,0,0,1.828.586,5.019,5.019,0,0,1,1.325.461.639.639,0,0,1,.3.6c0,.058,0,.234-.3.444a1.559,1.559,0,0,1-.9.239,2.144,2.144,0,0,1-1.111-.243,2.1,2.1,0,0,1-.694-.756,2.014,2.014,0,0,0-.392-.523.975.975,0,0,0-.683-.229,1.1,1.1,0,0,0-.807.322,1.058,1.058,0,0,0-.323.776,2.022,2.022,0,0,0,.438,1.2,3.111,3.111,0,0,0,1.31.957,5.234,5.234,0,0,0,2.061.371,5.959,5.959,0,0,0,2.126-.34,2.714,2.714,0,0,0,1.853-2.689,2.01,2.01,0,0,0-.375-1.176Z"/>
        </g>
        <g id="Groupe_5714" data-name="Groupe 5714" transform="translate(-0.003 0.011)">
          <path id="Tracé_6723" data-name="Tracé 6723" class="cls-3" d="M62.48,33.8A2.513,2.513,0,1,0,65,36.311,2.513,2.513,0,0,0,62.48,33.8Z"/>
          <path id="Tracé_6724" data-name="Tracé 6724" class="cls-3" d="M71.229,15.618a2,2,0,0,0-2.828-.033l-5.659,5.531a32.379,32.379,0,1,0,.1,22.25,2,2,0,1,0-3.762-1.357,28.378,28.378,0,1,1,.793-16.687,2,2,0,0,0,3.34.933L71.2,18.446A2,2,0,0,0,71.229,15.618Z"/>
        </g>
        <path id="Tracé_6725" data-name="Tracé 6725" class="cls-3" d="M31.138,25.219H26.385V20.466a2,2,0,0,0-4,0v4.753H17.631a2,2,0,0,0,0,4h4.754v4.753a2,2,0,0,0,4,0V29.219h4.753a2,2,0,0,0,0-4Z" transform="translate(-0.003 0.011)"/>
        <path id="Tracé_6726" data-name="Tracé 6726" class="cls-3" d="M47.1,27.51a6.083,6.083,0,0,0-3.251-3.31,5.94,5.94,0,0,0-4.452-.1l.311-1.765h4.9a2.692,2.692,0,0,0,1.785-.549,1.963,1.963,0,0,0,.71-1.552c0-.642-.25-2.135-2.565-2.135H38.391a2.661,2.661,0,0,0-1.98.681,3.337,3.337,0,0,0-.807,1.848L34.625,26.2a6.353,6.353,0,0,0-.139.92,2,2,0,0,0,.681,1.485c.827.772,1.89.924,3.308-.147a12.34,12.34,0,0,1,1.16-.8,2.366,2.366,0,0,1,1.06-.146,2.112,2.112,0,0,1,1.1.286,2.006,2.006,0,0,1,.768.87,3.514,3.514,0,0,1,.317,1.573,3.746,3.746,0,0,1-.3,1.543,2.275,2.275,0,0,1-.783.971,2.191,2.191,0,0,1-2.474-.1,3.2,3.2,0,0,1-1.008-1.3,2.258,2.258,0,0,0-2.145-1.587,2.093,2.093,0,0,0-2.077,2.019,4.442,4.442,0,0,0,.633,2.1,5.532,5.532,0,0,0,2.114,2.05,7.337,7.337,0,0,0,3.764.873,7.289,7.289,0,0,0,3.66-.913,6.349,6.349,0,0,0,2.465-2.5,7.065,7.065,0,0,0,.849-3.433A6.406,6.406,0,0,0,47.1,27.51Z" transform="translate(-0.003 0.011)"/>
      </g>
    </g>
    <g id="Extention_3_ans" data-name="Extention 3 ans" transform="translate(567.899 1891.375)">
      <g id="Groupe_5718" data-name="Groupe 5718" transform="translate(-35.899 -32.382)">
        <g id="Groupe_5716" data-name="Groupe 5716" transform="translate(-0.002 0.011)">
          <path id="Tracé_6727" data-name="Tracé 6727" class="cls-3" d="M27.244,45.785q.007-.64.011-1.161t0-1.271a4.852,4.852,0,0,0-.354-2,2.3,2.3,0,0,0-1.264-1.173,6.214,6.214,0,0,0-2.3-.35,5.876,5.876,0,0,0-2.189.36,3.1,3.1,0,0,0-1.342.953,2.048,2.048,0,0,0-.447,1.24.989.989,0,0,0,.346.775,1.153,1.153,0,0,0,.784.292.884.884,0,0,0,.71-.234c.088-.106.229-.309.43-.619a1.736,1.736,0,0,1,.617-.6,2.367,2.367,0,0,1,1.1-.194c.536,0,.9.1,1.043.294a1.766,1.766,0,0,1,.273.9q-.552.155-1.035.271-.57.135-1.366.3c-.531.11-.875.18-1.009.211a3.03,3.03,0,0,0-1.65.9,2.4,2.4,0,0,0-.616,1.654,2.519,2.519,0,0,0,.371,1.327,2.605,2.605,0,0,0,1.052.969,3.328,3.328,0,0,0,1.552.352,4.43,4.43,0,0,0,1.712-.319A6.594,6.594,0,0,0,25,47.9a4.211,4.211,0,0,0,.568.709,1.183,1.183,0,0,0,.82.378,1.285,1.285,0,0,0,.861-.33,1.027,1.027,0,0,0,.393-.784,3.533,3.533,0,0,0-.209-.91A4.029,4.029,0,0,1,27.244,45.785ZM24.673,44.8a3.007,3.007,0,0,1-.255,1.423,1.611,1.611,0,0,1-.681.614,1.726,1.726,0,0,1-1.837-.024.831.831,0,0,1-.285-.637.655.655,0,0,1,.223-.537,1.427,1.427,0,0,1,.556-.3c.226-.059.635-.152,1.223-.278A10.861,10.861,0,0,0,24.673,44.8Z"/>
          <path id="Tracé_6728" data-name="Tracé 6728" class="cls-3" d="M36.567,41.383a2.587,2.587,0,0,0-1.092-1.145,3.675,3.675,0,0,0-3.269-.022,3.588,3.588,0,0,0-.895.675,1.468,1.468,0,0,0-.13-.384,1.2,1.2,0,0,0-.459-.5,1.234,1.234,0,0,0-.632-.166,1.156,1.156,0,0,0-.91.384,1.572,1.572,0,0,0-.328,1.072V47.44a1.646,1.646,0,0,0,.358,1.123,1.209,1.209,0,0,0,.942.419,1.258,1.258,0,0,0,.957-.4,1.617,1.617,0,0,0,.367-1.14V44.778a6.294,6.294,0,0,1,.14-1.688,1.684,1.684,0,0,1,.6-.814,1.471,1.471,0,0,1,.889-.292.957.957,0,0,1,.942.423,3.326,3.326,0,0,1,.264,1.491V47.44a1.646,1.646,0,0,0,.358,1.123,1.225,1.225,0,0,0,.957.419,1.212,1.212,0,0,0,.946-.411,1.646,1.646,0,0,0,.355-1.131V43.485a9.077,9.077,0,0,0-.064-1.186,2.72,2.72,0,0,0-.3-.916Z"/>
          <path id="Tracé_6729" data-name="Tracé 6729" class="cls-3" d="M45.519,44.77a2.943,2.943,0,0,0-1.036-.866,7.271,7.271,0,0,0-1.675-.6q-.823-.2-1.3-.34a2.055,2.055,0,0,1-.674-.312.414.414,0,0,1-.183-.351c0-.1.027-.246.268-.4a1.5,1.5,0,0,1,.822-.2,1.563,1.563,0,0,1,.763.153,1.686,1.686,0,0,1,.5.437,3.948,3.948,0,0,0,.564.6,1.1,1.1,0,0,0,.715.243,1.208,1.208,0,0,0,.868-.3,1.038,1.038,0,0,0,.323-.781,1.5,1.5,0,0,0-.271-.822,2.524,2.524,0,0,0-.741-.709,3.976,3.976,0,0,0-1.172-.493,6.2,6.2,0,0,0-1.546-.179,4.58,4.58,0,0,0-1.9.361,2.875,2.875,0,0,0-1.229.994,2.391,2.391,0,0,0-.424,1.347,2.053,2.053,0,0,0,.472,1.367,3.188,3.188,0,0,0,1.192.858,11.937,11.937,0,0,0,1.828.586,5.05,5.05,0,0,1,1.325.461.639.639,0,0,1,.3.6c0,.058,0,.235-.3.444a1.572,1.572,0,0,1-.9.239,2.138,2.138,0,0,1-1.1-.241,2.085,2.085,0,0,1-.694-.757,2.076,2.076,0,0,0-.393-.522.975.975,0,0,0-.683-.229,1.1,1.1,0,0,0-.806.322,1.057,1.057,0,0,0-.324.776,2.015,2.015,0,0,0,.438,1.2,3.109,3.109,0,0,0,1.31.957,5.227,5.227,0,0,0,2.061.371,5.945,5.945,0,0,0,2.125-.34,2.714,2.714,0,0,0,1.853-2.689,2.011,2.011,0,0,0-.368-1.18Z"/>
        </g>
        <g id="Groupe_5717" data-name="Groupe 5717" transform="translate(-0.002 0.011)">
          <path id="Tracé_6730" data-name="Tracé 6730" class="cls-3" d="M62.48,33.8A2.513,2.513,0,1,0,65,36.311,2.513,2.513,0,0,0,62.48,33.8Z"/>
          <path id="Tracé_6731" data-name="Tracé 6731" class="cls-3" d="M71.229,15.618a2,2,0,0,0-2.828-.033l-5.66,5.531a32.379,32.379,0,1,0,.095,22.25,2,2,0,1,0-3.762-1.357,28.376,28.376,0,1,1,.794-16.687,2,2,0,0,0,3.142,1.1,1.916,1.916,0,0,0,.2-.169l7.99-7.807A2,2,0,0,0,71.229,15.618Z"/>
        </g>
        <path id="Tracé_6732" data-name="Tracé 6732" class="cls-3" d="M31.388,25.219H26.635V20.466a2,2,0,0,0-4,0v4.753H17.882a2,2,0,1,0,0,4h4.753v4.753a2,2,0,0,0,4,0V29.219h4.753a2,2,0,0,0,0-4Z" transform="translate(-0.002 0.011)"/>
        <path id="Tracé_6733" data-name="Tracé 6733" class="cls-3" d="M46.283,28.668a5.05,5.05,0,0,0-1.1-1.634,6.474,6.474,0,0,0-.839-.709,6.668,6.668,0,0,0,.865-1.113,4.526,4.526,0,0,0,.615-2.386,4.707,4.707,0,0,0-.416-1.963,4.607,4.607,0,0,0-1.234-1.612,5.588,5.588,0,0,0-1.867-1.03,8.135,8.135,0,0,0-4.881.063,6.147,6.147,0,0,0-1.993,1.11A5.386,5.386,0,0,0,34.2,20.876a3.4,3.4,0,0,0-.46,1.636,2.1,2.1,0,0,0,.618,1.546,2.165,2.165,0,0,0,2.388.381,1.577,1.577,0,0,0,.794-.766c.13-.3.272-.613.429-.949a3.21,3.21,0,0,1,.408-.68,1.157,1.157,0,0,1,.443-.311,2.3,2.3,0,0,1,.872-.136,1.462,1.462,0,0,1,1.122.414,1.4,1.4,0,0,1,.409,1.023,1.416,1.416,0,0,1-.5,1.222,2.087,2.087,0,0,1-1.372.461h-.478a2.642,2.642,0,0,0-1.72.514,1.854,1.854,0,0,0-.694,1.481,1.886,1.886,0,0,0,.592,1.443,2.136,2.136,0,0,0,1.5.518c.1,0,.337-.016.7-.05.294-.028.511-.044.65-.044a2.011,2.011,0,0,1,1.531.544,2.6,2.6,0,0,1,.213,2.836,2.144,2.144,0,0,1-.82.788,2.179,2.179,0,0,1-1.04.268,1.738,1.738,0,0,1-1.387-.53,7.146,7.146,0,0,1-1.152-2.156,1.64,1.64,0,0,0-.7-.845,1.9,1.9,0,0,0-1.03-.31,2.255,2.255,0,0,0-1.6.619,2.189,2.189,0,0,0-.671,1.633,4.034,4.034,0,0,0,.434,1.637,6.461,6.461,0,0,0,3.277,3.177,6.76,6.76,0,0,0,2.812.568,7.728,7.728,0,0,0,2.777-.486,6.74,6.74,0,0,0,2.2-1.363,6,6,0,0,0,1.428-2.015,5.907,5.907,0,0,0,.485-2.344,5.042,5.042,0,0,0-.375-1.932Z" transform="translate(-0.002 0.011)"/>
      </g>
    </g>
  </g>
</svg>
