<svg xmlns="http://www.w3.org/2000/svg" viewBox="0 0 283.667 197.994">
  <defs>
    <style>
      .cls-1 {
        fill: #fff;
      }
    </style>
  </defs>
  <g id="Bbloc" transform="translate(-996.834 -94.003)">
    <path id="Tracé_19" data-name="Tracé 19" class="cls-1" d="M1162.926,264.227v.021h-36.853a64.15,64.15,0,0,1-64.149-64.153V150.552a64.14,64.14,0,0,1,33.836-56.545v41.944h67.166v.02a64.135,64.135,0,0,1,0,128.256M1181.5,94h-85.669a99,99,0,1,0,0,197.994H1181.5A99,99,0,0,0,1181.5,94"/>
    <path id="Tracé_20" data-name="Tracé 20" class="cls-1" d="M1161.988,169.941h-65.96V200.1a30.161,30.161,0,0,0,30.161,30.153h35.8a30.158,30.158,0,1,0,0-60.315"/>
  </g>
</svg>
