<svg xmlns="http://www.w3.org/2000/svg" viewBox="0 0 75.914 54.643">
  <defs>
    <style>
      .cls-1 {
        fill: #606060;
      }

      .cls-1, .cls-2 {
        stroke: #606060;
      }

      .cls-2 {
        fill: none;
        stroke-linecap: round;
        stroke-width: 5px;
      }
    </style>
  </defs>
  <g id="Groupe_5666" data-name="Groupe 5666" transform="translate(-620.5 -3049.5)">
    <g id="Groupe_4131" data-name="Groupe 4131" transform="translate(621 3050)">
      <path id="Tracé_6269" data-name="Tracé 6269" class="cls-1" d="M47.88,53.643H27.028A26.818,26.818,0,0,1,13.056,3.806,2.244,2.244,0,0,1,15.35,7.663,22.348,22.348,0,0,0,27.028,49.186H47.88a22.507,22.507,0,0,0,16-6.673,22.056,22.056,0,0,0,6.543-15.692A22.354,22.354,0,0,0,48.089,4.535H32.554A11.926,11.926,0,0,0,20.642,16v9.775A13.7,13.7,0,0,0,34.326,39.464h9.123c7.429-.1,13.476-4.692,13.476-12.121S50.878,15.066,43.449,14.962H29.426a2.242,2.242,0,0,1,0-4.483l16.317.182c8.836,1.225,15.692,7.559,15.692,16.682S54.579,42.565,45.743,43.764l-11.391.182A18.2,18.2,0,0,1,16.184,25.779V15.848A16.381,16.381,0,0,1,32.554,0H48.089a26.822,26.822,0,0,1-.209,53.643Z" transform="translate(0.003)"/>
    </g>
    <line id="Ligne_1263" data-name="Ligne 1263" class="cls-2" x2="13.929" transform="translate(652.728 3077.085)"/>
  </g>
</svg>
