<?xml version="1.0" encoding="utf-8"?>
<!-- Generator: Adobe Illustrator 22.1.0, SVG Export Plug-In . SVG Version: 6.00 Build 0)  -->
<svg version="1.1" id="Calque_1" xmlns="http://www.w3.org/2000/svg" xmlns:xlink="http://www.w3.org/1999/xlink" x="0px" y="0px"
	 viewBox="0 0 19.4 19.1" style="enable-background:new 0 0 19.4 19.1;" xml:space="preserve">
<style type="text/css">
	.st0{fill:#FFFFFF;}
</style>
<path class="st0" d="M16.4,3.3h-1.9C13.8,1.4,11.9,0,9.7,0S5.6,1.4,4.8,3.3H2.9c-0.2,0-0.4,0-0.6,0.1C0.8,3.7-0.3,5.2,0.1,6.8l2,10
	c0.3,1.4,1.5,2.3,2.8,2.3h9.5c1.4,0,2.6-1,2.9-2.3l2-10c0-0.2,0.1-0.4,0.1-0.6C19.4,4.6,18.1,3.3,16.4,3.3z M9.7,1.2L9.7,1.2
	c1.5,0,2.9,0.9,3.6,2.1H6.1C6.8,2,8.1,1.2,9.7,1.2z M18.2,6.5l-2,10c-0.2,0.8-0.9,1.4-1.7,1.4H4.9c-0.8,0-1.5-0.6-1.7-1.4l-2-10
	c-0.1-0.5,0-1,0.4-1.4C1.9,4.7,2.4,4.5,3,4.5h13.5c0.1,0,0.2,0,0.3,0C17.7,4.7,18.4,5.6,18.2,6.5z"/>
</svg>
