<?xml version="1.0" encoding="utf-8"?>
<!-- Generator: Adobe Illustrator 22.1.0, SVG Export Plug-In . SVG Version: 6.00 Build 0)  -->
<svg version="1.1" width="137" height="112" xmlns="http://www.w3.org/2000/svg" xmlns:xlink="http://www.w3.org/1999/xlink" x="0px" y="0px"
	 viewBox="0 0 137 112" style="enable-background:new 0 0 137 112;" xml:space="preserve">
<style type="text/css">
	.st0{fill:#FD5300;}
</style>
<g transform="translate(0.002)">
	<path class="st0" d="M108.4,39.9c-0.9-1.4-2.8-1.8-4.2-0.9c-1.4,0.8-1.8,2.6-1,4c0,0,0.1,0.1,0.1,0.1c3.3,5.2,5.4,11.2,6.1,17.3
		c0,0.3-0.1,0.6,0,0.9c0.8,9.5-1.8,19-7.3,26.8c-13,18.7-38.7,23.3-57.3,10.3c-9-6.2-15.1-15.8-17-26.6c-2-10.7,0.5-21.8,6.9-30.7
		C47.7,22.6,73.3,18,92,31c0.2,0.2,0.5,0.3,0.7,0.3c0.4,0.1,0.9,0.2,1.3,0.1c0.4,0,0.9-0.1,1.2-0.4c0.1-0.1,0.4-0.3,0.6-0.4
		L107.7,19c1.1-1.2,1-3.1-0.1-4.2c-1.1-1.1-2.9-1.1-4,0l-10.1,9.8C72,11.6,44.1,17.3,29.7,37.8C14.8,59.1,20,88.4,41.3,103.3
		c0.1,0,0.1,0.1,0.2,0.1c21.3,14.9,50.7,9.7,65.6-11.6c0,0,0,0,0,0c4-5.8,6.7-12.4,7.9-19.4c0.2-0.4,0.3-0.8,0.4-1.2
		C116.8,60.3,114.4,49.2,108.4,39.9z"/>
	<path class="st0" d="M51.5,70c-1.2,0-2.2,1-2.2,2.2s1,2.2,2.2,2.2h11.3c1.2,0,2.2-1,2.2-2.2S64,70,62.8,70l0,0H60V55
		c0-1.6-1.3-3-3-3c-0.6,0-1.3,0.2-1.8,0.6c-1.4,1-3,1.6-4.6,1.9c-1.1,0.3-1.7,1.3-1.6,2.4c0.2,1.2,1.3,2,2.5,1.8
		c1.1-0.2,2.1-0.5,3.1-0.9v12.4h-3.1V70z"/>
	<path class="st0" d="M85.8,74.6L85.8,74.6c1.5,0,2.7-1.2,2.7-2.7c0,0,0,0,0,0V54.7c0-1.5-1.2-2.7-2.7-2.7c0,0,0,0,0,0l0,0
		c-1.5,0-2.7,1.2-2.7,2.7c0,0,0,0,0,0v5.7h-9.2v-5.7c0-1.5-1.1-2.7-2.6-2.7s-2.7,1.1-2.7,2.6c0,0,0,0.1,0,0.1v17.1
		c0,1.5,1.3,2.7,2.7,2.6c1.4,0,2.6-1.2,2.6-2.6v-6.7h9.2v6.7C83.1,73.3,84.2,74.6,85.8,74.6z"/>
	<path class="st0" d="M67.4,11c3,0,5.4-2.4,5.4-5.3c0,0,0,0,0,0c0-3-2.4-5.5-5.4-5.5c-3,0-5.4,2.4-5.4,5.3c0,0,0,0,0,0
		C62,8.5,64.4,10.9,67.4,11z"/>
</g>
</svg>
