<svg xmlns="http://www.w3.org/2000/svg" xmlns:xlink="http://www.w3.org/1999/xlink" version="1.1" width="137" height="112" x="0px" y="0px" viewBox="0 0 106.012 86.879" style="enable-background:new 0 0 137 112;" xml:space="preserve"><defs><style>.a{fill:#fd5300;}</style></defs><g transform="translate(64.006 52.454)"><g transform="translate(-64.006 -52.454)"><path class="a" d="M1.213,41.645a4.582,4.582,0,0,0,3.259,7.713A4.451,4.451,0,0,0,8.92,44.9a4.574,4.574,0,0,0-7.707-3.259Z" transform="translate(0.025 22.506)"/><path class="a" d="M102.42,3.351A11.225,11.225,0,0,0,94.433.041h-.027L30.357.166,11.555,0h-.023A11.322,11.322,0,0,0,.22,11.341L.237,49.42a3.317,3.317,0,0,0,3.315,3.318h0A3.317,3.317,0,0,0,6.867,49.42L6.851,11.336a4.69,4.69,0,0,1,4.656-4.7h.01L30.348,6.8l64.073-.118h.01a4.688,4.688,0,0,1,4.68,4.7l-.023,51.429a4.714,4.714,0,0,1-4.114,4.667c-.083,0-.166-.01-.25-.01l-73.634-.017H13.931a3.318,3.318,0,0,0,0,6.636h3.315a3.28,3.28,0,0,0,.635.061H37.607l-6.279,7.333A3.316,3.316,0,0,0,36.362,85.8L46.03,74.518a3.265,3.265,0,0,0,.254-.365H59.946L69.5,85.31A3.316,3.316,0,0,0,74.537,81l-5.87-6.872H95a1.966,1.966,0,0,0,.244-.01,11.37,11.37,0,0,0,10.47-11.3l.023-51.429a11.274,11.274,0,0,0-3.322-8.033Z" transform="translate(0.271)"/></g></g></svg>