<svg xmlns="http://www.w3.org/2000/svg" viewBox="0 0 74.914 63.183"><defs><style>.a{fill:#3b3b3b;}</style></defs><g transform="translate(0.012)"><g transform="translate(-0.012)"><path class="a" d="M37.446,39.954H37.3A19.831,19.831,0,0,1,17.789,20.07V11.191A6.8,6.8,0,0,0,6.164,6.339,6.279,6.279,0,0,0,4.327,10.9a6.466,6.466,0,0,0,6.442,6.318,2.168,2.168,0,1,1,0,4.336A10.789,10.789,0,0,1-.01,10.985,10.578,10.578,0,0,1,3.067,3.3,11.082,11.082,0,0,1,10.934,0,11.2,11.2,0,0,1,22.125,11.191v8.9a15.473,15.473,0,0,0,15.2,15.548A15.3,15.3,0,0,0,52.746,20.318V6.112a1.652,1.652,0,0,0-.516-1.218,1.714,1.714,0,0,0-1.239-.5l-21.825.227h-.021A2.168,2.168,0,0,1,29.125.289L50.95.062h.062a5.964,5.964,0,0,1,4.254,1.755,6.061,6.061,0,0,1,1.8,4.315V20.318A19.6,19.6,0,0,1,37.446,39.954Z" transform="translate(0.012)"/><path class="a" d="M302.268,24.357a2.168,2.168,0,1,1,0-4.336,6.442,6.442,0,1,0,0-12.884,2.168,2.168,0,1,1,0-4.336,10.778,10.778,0,0,1,0,21.557Z" transform="translate(-238.132 -2.222)"/></g><path class="a" d="M147.844,236.408H137.4a4.861,4.861,0,0,1-4.13-7.433l5.224-8.383h0a4.866,4.866,0,0,1,8.259,0l5.224,8.383a4.861,4.861,0,0,1-4.13,7.433Zm-5.224-13.814a.5.5,0,0,0-.454.248h0l-5.224,8.4a.52.52,0,0,0,.454.805h10.448a.527.527,0,0,0,.475-.268.505.505,0,0,0-.021-.537l-5.224-8.383A.545.545,0,0,0,142.62,222.595Zm-2.292-.888Z" transform="translate(-105.174 -173.225)"/></g></svg>