<svg xmlns="http://www.w3.org/2000/svg" viewBox="0 0 20.4 32.028"><defs><style>.a{fill:#fff;}</style></defs><path class="a" d="M18.9,32.028a1.475,1.475,0,0,1-.981-.361l-7.7-6.535-7.7,6.535a1.532,1.532,0,0,1-1.616.216,1.509,1.509,0,0,1-.88-1.371V8.483a1.493,1.493,0,0,1,1.5-1.515A1.515,1.515,0,0,1,3.03,8.483v18.77L9.219,22a1.526,1.526,0,0,1,1.962,0l6.189,5.251V3.03H1.515a1.515,1.515,0,0,1,0-3.03h17.37A1.515,1.515,0,0,1,20.4,1.515v29a1.509,1.509,0,0,1-.88,1.371A1.349,1.349,0,0,1,18.9,32.028Z"/></svg>