<svg xmlns="http://www.w3.org/2000/svg" xmlns:xlink="http://www.w3.org/1999/xlink" viewBox="0 0 189.085 163.225"><defs><style>.a{fill:#ccb079;}.b{opacity:0.734;}.c{clip-path:url(#a);}.d{opacity:0.591;}.e{clip-path:url(#b);}</style><clipPath id="a"><path class="a" d="M0,79.674H118.218V-39.01H0Z" transform="translate(0 39.01)"/></clipPath><clipPath id="b"><path class="a" d="M0,51.244H51.043V0H0Z"/></clipPath></defs><g transform="matrix(0.225, 0.974, -0.974, 0.225, 1685.804, -1644.283)"><g class="b" transform="translate(1280.262 1858.953)"><g class="c" transform="translate(0 0)"><g transform="translate(0 48.317)"><path class="a" d="M14.084,11.8c-6.216,8.178,1.655,8.208,3.487,6.769.755-.6.675-2.4-.228-3.216a14.816,14.816,0,0,0-2.13-1.3c3.344-2.863,6.751-4.962,11.394-5.711-1.527,2.3-3.353,3.946-4.506,6.057-1.911,3.5.14,6.444,2.72,6.742,4.688.539,8.516-6.97-.809-5.537,1.908-3.271,3.931-5.814,6.97-7.426.952-.508,2.379-.688,2.276-2.041-.122-1.576-1.506-1.813-2.863-2.087a13.02,13.02,0,0,1-6.252-2.972c-.219-.846.347-.748.642-.916C26.4-.786,27.02-2.094,26.509-3.491c-1.263-3.477-6.909-2.82-6.943.846-.046,4.661,5.306,6.578,6.167,7.9a9.893,9.893,0,0,1-7.539-1.208C16.932,3.3,15.8,2.877,15.989.814c.21-2.26-2.294-3.371-4.363-2.282-4.655,2.461,3.024,6.4,6.626,8.7-5.537,1.229-6.675-.04-13.38-2.2-2.638-.858-.417.091-10.721,6.839-3.517,2.3,2.373,1.947,9.629,5.428.922.441,1.366-.21,1.981-.809A18.523,18.523,0,0,1,14.084,11.8" transform="translate(6.896 5.776)"/></g><g transform="translate(36.095 0)"><path class="a" d="M5.148,13.814c-9-4.95-7.877,2.845-6.182,4.445.7.657,2.477.316,3.146-.7a14.994,14.994,0,0,0,.971-2.3c3.322,2.884,5.9,5.951,7.32,10.432-2.495-1.174-4.4-2.738-6.651-3.569C.013,20.75-2.607,23.215-2.519,25.81c.152,4.713,8.148,7.4,5.358-1.616C6.356,25.6,9.167,27.228,11.212,30c.639.864,1.025,2.251,2.349,1.95,1.539-.35,1.573-1.759,1.646-3.143A13.014,13.014,0,0,1,17.23,22.19c.806-.344.788.234,1,.5,1.174,1.46,2.559,1.88,3.864,1.174,3.255-1.762,1.777-7.247-1.856-6.748-4.615.642-5.726,6.213-6.906,7.265a9.907,9.907,0,0,1,.085-7.633c.557-1.363.806-2.543,2.875-2.659,2.264-.128,3-2.766,1.612-4.649-3.112-4.247-5.872,3.928-7.633,7.831-2.026-5.3-.943-6.611.216-13.56.456-2.735-.155-.4-8.339-9.6C-.641-9.035.569-3.257-1.807,4.428c-.3.98.408,1.323,1.089,1.841a18.494,18.494,0,0,1,5.866,7.545" transform="translate(2.521 6.764)"/></g><g transform="translate(76.858 19.654)"><path class="a" d="M11.3,6.588C13.76-3.388,6.52-.288,5.409,1.759c-.453.849.335,2.473,1.488,2.86a15.455,15.455,0,0,0,2.473.347c-1.932,3.952-4.232,7.232-8.2,9.766.49-2.717,1.512-4.956,1.734-7.35C3.273,3.414.216,1.519-2.27,2.274-6.782,3.637-7.317,12.052.672,7.032c-.453,3.76-1.3,6.9-3.447,9.587-.675.843-1.911,1.573-1.278,2.775.733,1.4,2.1,1.065,3.459.779a12.969,12.969,0,0,1,6.915.249c.539.691-.021.821-.225,1.1-1.107,1.509-1.156,2.96-.137,4.037C8.5,28.243,13.42,25.4,12,22.019c-1.81-4.293-7.478-3.931-8.8-4.8a9.906,9.906,0,0,1,7.4-1.886c1.46.186,2.665.119,3.31,2.09.7,2.157,3.441,2.184,4.9.362,3.3-4.1-5.309-4.667-9.532-5.358C13.876,9.1,15.425,9.816,22.437,9.14c2.759-.262.347-.253,7.125-10.536,2.318-3.5-2.951-.843-10.989-1.156-1.025-.043-1.174.73-1.5,1.527A18.474,18.474,0,0,1,11.3,6.588" transform="translate(5.531 3.225)"/></g><g transform="translate(81.516 61.329)"><path class="a" d="M13.035,10.279c9.952-2.546,3.8-7.46,1.473-7.469-.961,0-2.026,1.46-1.819,2.662a15.5,15.5,0,0,0,.864,2.343c-4.4.164-8.376-.31-12.477-2.607C3.7,4.355,6.153,4.2,8.367,3.26c3.672-1.552,3.894-5.142,2.057-6.976-3.334-3.334-11,.173-2.8,4.84C4.093,2.506.932,3.242-2.457,2.615c-1.059-.192-2.291-.937-3.048.189-.885,1.308.055,2.355.946,3.414A12.992,12.992,0,0,1-1.508,12.43c-.353.8-.736.368-1.071.319-1.856-.259-3.155.38-3.623,1.789-1.168,3.511,3.663,6.5,5.969,3.651C2.7,14.566-.3,9.74-.163,8.168A9.9,9.9,0,0,1,5,13.8c.523,1.372,1.153,2.4-.277,3.9-1.567,1.637-.3,4.068,2,4.494,5.178.971,1.6-6.885.219-10.934,5.105,2.48,5.209,4.18,9.115,10.04,1.536,2.309.386.189,12.647,1.3,4.189.389-.648-3-4.171-10.232-.447-.919-1.2-.688-2.054-.6a18.523,18.523,0,0,1-9.437-1.491" transform="translate(6.382 5.033)"/></g><g transform="translate(42.399 78.175)"><path class="a" d="M9.688,13.458c6.054,8.3,8.339.767,7.481-1.4-.35-.888-2.105-1.336-3.143-.7a15.415,15.415,0,0,0-1.856,1.667C10.388,9,9.356,5.131,9.968.47c1.765,2.121,2.82,4.341,4.512,6.054,2.8,2.832,6.219,1.713,7.241-.675,1.862-4.335-4.238-10.152-5.534-.806C13.6,2.274,11.739-.394,11.066-3.771c-.213-1.056.024-2.473-1.3-2.762-1.542-.338-2.169.925-2.82,2.148A13.011,13.011,0,0,1,2.3.747C1.428.716,1.69.2,1.61-.129,1.166-1.949.089-2.922-1.4-2.834c-3.69.216-4.682,5.811-1.18,6.9C1.875,5.444,5.246.868,6.758.418A9.885,9.885,0,0,1,3.442,7.294c-1.083,1-1.8,1.962-3.73,1.187-2.1-.846-3.888,1.232-3.432,3.526C-2.7,17.17,3.266,10.942,6.515,8.155,6.1,13.811,4.559,14.541.567,20.343c-1.576,2.279-.033.426,3.477,12.23C5.234,36.6,6.588,30.857,12,24.906c.691-.758.195-1.369-.2-2.127a18.514,18.514,0,0,1-2.111-9.322" transform="translate(4.743 6.589)"/></g><g transform="translate(33.389 24.937)"><path class="a" d="M3.1,33.009c2.1-.411,7.013-13.037,7.618-14.673a2.345,2.345,0,0,0-.581-2.461c-1.807-2.321-3.623-4.64-5.327-7.034a4.415,4.415,0,0,0-3.341-2.2c-2.7-.608-3.362-1.652-2.8-4.4.66-3.277,5-3.024,6.167-.73.751,1.463.4.389,12.112.265,4.028-.043,4.037-1.6,12.5-10.965a3.621,3.621,0,0,0,1.168-3.255,3.835,3.835,0,0,1,2.169-3.5,4.525,4.525,0,0,1,4.478,1.168,2.72,2.72,0,0,1,.268,3.6,3.932,3.932,0,0,0-.469,3.03c3.328,20.64-.7,13.125,13.968,18.626a4.57,4.57,0,0,0,2.413.319,6.136,6.136,0,0,1,3.283.578,4.029,4.029,0,0,1,2.111,4.515,3.666,3.666,0,0,1-3.9,2.638,5.945,5.945,0,0,0-4.621,1.05c-12.291,7.959-6.733,1.841-10.046,18.972-.517,2.7.024,3.669.572,4.381a3.393,3.393,0,1,1-4.986,4.466,2.774,2.774,0,0,1-.621-2.084c.03-2.486-4.527-4.91-9.915-12.824-.736-1.08-1.883-1.372-3.432-.952C1.7,37.052,10.294,36.647,5.192,39.815a2.482,2.482,0,0,1-2.808.006C.355,38.333.114,33.593,3.1,33.009M20.3,24.1c9.371-4.168,5.063-6.5,11.969,3.207a.914.914,0,0,0,1.065.392c-.14-2.556,1.263-5.056.152-7.795-.359-.879.572-1.5,1.536-1.725,2.443-.575,4.138-2.413,6.663-3.541-1.436-.818-2.543-.432-3.529-.742-6.526-2.063-5.473,1.457-6.94-8.817-1.549.432-2.318,2.032-3.182,3.386C26.124,11.453,25,10.51,17.556,9.3c5.342,7.98,5.382,5.126,1.305,13.557a1.906,1.906,0,0,0-.338,1.412c.636.581,1.247.067,1.774-.164" transform="translate(1.517 16.162)"/></g></g></g><g class="d" transform="translate(1261.069 1950.646) rotate(40)"><g class="e"><g transform="translate(0 20.862)"><path class="a" d="M9.059,7.588c-2.684,3.531.715,3.544,1.505,2.923a1.041,1.041,0,0,0-.1-1.388,6.4,6.4,0,0,0-.92-.56A9.654,9.654,0,0,1,14.465,6.1c-.659.992-1.448,1.7-1.945,2.615a1.84,1.84,0,0,0,1.174,2.911c2.024.233,3.677-3.009-.349-2.391a7.769,7.769,0,0,1,3.009-3.207c.411-.219,1.027-.3.983-.881-.053-.68-.65-.783-1.236-.9A5.622,5.622,0,0,1,13.4,2.96c-.095-.365.15-.323.277-.4A1.277,1.277,0,0,0,14.423.987c-.545-1.5-2.983-1.218-3,.365-.02,2.012,2.291,2.84,2.663,3.41a4.271,4.271,0,0,1-3.255-.522c-.545-.323-1.035-.5-.952-1.4C9.972,1.87,8.89,1.39,8,1.86,5.987,2.923,9.3,4.622,10.858,5.619c-2.391.531-2.882-.017-5.777-.951C3.942,4.3,4.9,4.707.452,7.621c-1.519.993,1.025.841,4.158,2.343.4.19.59-.091.855-.349A8,8,0,0,1,9.059,7.588"/></g><g transform="translate(15.585 0)"><path class="a" d="M3.311,8.885C-.576,6.747-.09,10.113.642,10.8A1.04,1.04,0,0,0,2,10.5a6.474,6.474,0,0,0,.419-.992,9.638,9.638,0,0,1,3.161,4.5c-1.077-.507-1.9-1.182-2.872-1.541A1.841,1.841,0,0,0,0,14.064c.066,2.035,3.518,3.193,2.313-.7a7.767,7.767,0,0,1,3.615,2.506c.276.373.443.972,1.014.842.665-.151.679-.759.711-1.357A5.619,5.619,0,0,1,8.528,12.5c.348-.148.34.1.432.215a1.276,1.276,0,0,0,1.668.507c1.406-.761.767-3.129-.8-2.914-1.993.277-2.472,2.682-2.982,3.137a4.278,4.278,0,0,1,.037-3.3c.24-.589.348-1.1,1.241-1.148C9.1,8.948,9.417,7.809,8.819,7c-1.344-1.834-2.535,1.7-3.3,3.381-.875-2.287-.407-2.854.093-5.855.2-1.181-.067-.173-3.6-4.144C.811-.981,1.334,1.514.308,4.832c-.13.423.176.571.47.795A7.985,7.985,0,0,1,3.311,8.885"/></g><g transform="translate(33.185 8.486)"><path class="a" d="M7.265,4.237C8.329-.07,5.2,1.268,4.724,2.152a1.041,1.041,0,0,0,.642,1.235,6.673,6.673,0,0,0,1.068.15A9.677,9.677,0,0,1,2.895,7.754c.211-1.173.653-2.14.749-3.174C3.8,2.867,2.481,2.049,1.408,2.374-.54,2.963-.771,6.6,2.678,4.429A7.773,7.773,0,0,1,1.19,8.568c-.292.364-.825.679-.552,1.2.317.6.906.46,1.494.336a5.6,5.6,0,0,1,2.986.108c.233.3-.009.355-.1.473a1.276,1.276,0,0,0-.059,1.743c1.1,1.161,3.221-.067,2.608-1.526C6.787,9.046,4.34,9.2,3.77,8.828a4.277,4.277,0,0,1,3.195-.814c.631.08,1.151.051,1.429.9a1.189,1.189,0,0,0,2.118.156C11.937,7.3,8.219,7.057,6.4,6.759c1.984-1.437,2.652-1.128,5.68-1.42,1.191-.113.15-.109,3.076-4.549,1-1.512-1.274-.364-4.745-.5C9.965.273,9.9.606,9.76.95A7.977,7.977,0,0,1,7.265,4.237"/></g><g transform="translate(35.196 26.48)"><path class="a" d="M8.383,6.611c4.3-1.1,1.642-3.221.636-3.225-.415,0-.875.631-.786,1.149a6.691,6.691,0,0,0,.373,1.011A9.667,9.667,0,0,1,3.22,4.421c1.132-.368,2.192-.436,3.149-.841A1.84,1.84,0,0,0,7.256.569c-1.44-1.44-4.75.075-1.21,2.09A7.752,7.752,0,0,1,1.695,3.3c-.457-.083-.989-.4-1.316.081C0,3.948.4,4.4.787,4.858A5.61,5.61,0,0,1,2.1,7.54c-.152.345-.318.159-.462.138A1.278,1.278,0,0,0,.077,8.45c-.5,1.516,1.582,2.807,2.577,1.576,1.265-1.565-.03-3.648.03-4.327A4.277,4.277,0,0,1,4.913,8.131c.226.592.5,1.038-.12,1.685-.677.707-.129,1.756.862,1.94,2.236.419.692-2.973.095-4.721C7.954,8.106,8,8.84,9.685,11.37c.663,1,.167.081,5.461.561,1.809.168-.28-1.294-1.8-4.418-.193-.4-.519-.3-.887-.259a8,8,0,0,1-4.075-.644"/></g><g transform="translate(18.307 33.754)"><path class="a" d="M6.231,8.656c2.614,3.585,3.6.331,3.23-.606a1.04,1.04,0,0,0-1.357-.3,6.656,6.656,0,0,0-.8.72,9.666,9.666,0,0,1-.951-5.42C7.114,3.964,7.57,4.922,8.3,5.662a1.84,1.84,0,0,0,3.126-.292C12.23,3.5,9.6.987,9.037,5.022A7.769,7.769,0,0,1,6.826,1.217C6.734.761,6.837.149,6.264.024c-.666-.146-.937.4-1.218.927a5.618,5.618,0,0,1-2,2.216c-.378-.013-.265-.236-.3-.378C2.552,2,2.087,1.583,1.446,1.621-.148,1.715-.576,4.13.936,4.6c1.922.6,3.377-1.379,4.03-1.574A4.268,4.268,0,0,1,3.534,5.994c-.468.431-.779.847-1.61.512C1.017,6.141.245,7.039.442,8.029c.439,2.229,3.016-.46,4.419-1.663-.177,2.442-.845,2.757-2.568,5.262-.68.984-.014.184,1.5,5.281.514,1.741,1.1-.741,3.435-3.31.3-.327.084-.591-.087-.918a7.994,7.994,0,0,1-.912-4.025"/></g><g transform="translate(14.416 10.767)"><path class="a" d="M1.993,21.23c.905-.177,3.028-5.629,3.289-6.336a1.012,1.012,0,0,0-.251-1.063c-.78-1-1.565-2-2.3-3.037a1.906,1.906,0,0,0-1.442-.95C.124,9.583-.163,9.132.079,7.945a1.445,1.445,0,0,1,2.663-.315c.324.632.175.168,5.23.114,1.739-.018,1.743-.691,5.4-4.734a1.563,1.563,0,0,0,.5-1.406A1.656,1.656,0,0,1,14.807.092a1.954,1.954,0,0,1,1.934.5,1.174,1.174,0,0,1,.116,1.554,1.7,1.7,0,0,0-.2,1.308c1.437,8.912-.3,5.667,6.031,8.042a1.973,1.973,0,0,0,1.042.138,2.649,2.649,0,0,1,1.417.25,1.739,1.739,0,0,1,.912,1.949,1.583,1.583,0,0,1-1.685,1.139,2.567,2.567,0,0,0-2,.453c-5.307,3.436-2.907.795-4.338,8.192-.223,1.164.011,1.584.247,1.892a1.465,1.465,0,1,1-2.153,1.928,1.2,1.2,0,0,1-.268-.9c.013-1.073-1.955-2.12-4.281-5.537a1.227,1.227,0,0,0-1.482-.411c-8.712,2.383-5,2.208-7.2,3.576a1.072,1.072,0,0,1-1.212,0c-.876-.642-.98-2.689.309-2.941m7.426-3.845c4.046-1.8,2.186-2.809,5.168,1.385a.4.4,0,0,0,.46.169c-.06-1.1.545-2.183.066-3.365-.155-.38.247-.646.663-.745,1.055-.248,1.787-1.042,2.877-1.529-.62-.353-1.1-.187-1.524-.321-2.818-.891-2.363.629-3-3.807-.669.187-1,.877-1.374,1.462-.824,1.289-1.307.881-4.523.359,2.307,3.446,2.324,2.213.564,5.853a.823.823,0,0,0-.146.61c.275.251.539.029.766-.071"/></g></g></g></g></svg>