<svg xmlns="http://www.w3.org/2000/svg" viewBox="0 0 19.949 34.002"><defs><style>.a{fill:#fff;}</style></defs><path class="a" d="M18.818,3.948A8.128,8.128,0,0,0,15.442,1.07,12.042,12.042,0,0,0,10.258,0,11.235,11.235,0,0,0,4.741,1.291,9.6,9.6,0,0,0,1.181,4.5,7.231,7.231,0,0,0,0,8.247,1.916,1.916,0,0,0,.609,9.575,1.979,1.979,0,0,0,2.1,10.2c.646,0,1.55-.2,2.066-1.9V8.284A10.36,10.36,0,0,1,6.217,4.5a5.285,5.285,0,0,1,4.022-1.421,5.385,5.385,0,0,1,3.8,1.384,4.543,4.543,0,0,1,1.513,3.45,3.916,3.916,0,0,1-.517,1.993,7.139,7.139,0,0,1-1.162,1.531c-.424.424-1.089,1.033-2.029,1.845-1.015.9-1.845,1.679-2.435,2.325a6.841,6.841,0,0,0-1.845,4.944A2.149,2.149,0,0,0,8.1,22.195a1.879,1.879,0,0,0,1.365.517,1.658,1.658,0,0,0,1.826-1.624v-.037c.166-.72.277-1.218.369-1.513a5.385,5.385,0,0,1,.387-.978,5.507,5.507,0,0,1,.756-1.07,15.487,15.487,0,0,1,1.236-1.236c1.753-1.568,2.97-2.694,3.635-3.339a8.592,8.592,0,0,0,1.624-2.2,6.11,6.11,0,0,0,.646-2.86A6.426,6.426,0,0,0,18.818,3.948Z" transform="translate(0 0)"/><path class="a" d="M41.628,157.5a2.491,2.491,0,0,0-1.808.72,2.366,2.366,0,0,0-.72,1.753,2.244,2.244,0,0,0,.72,1.808,2.67,2.67,0,0,0,1.808.664,2.6,2.6,0,0,0,1.753-.664,2.27,2.27,0,0,0,.72-1.808,2.422,2.422,0,0,0-.7-1.753A2.338,2.338,0,0,0,41.628,157.5Z" transform="translate(-31.886 -128.442)"/></svg>