<?xml version="1.0" encoding="utf-8"?>
<!-- Generator: Adobe Illustrator 23.0.0, SVG Export Plug-In . SVG Version: 6.00 Build 0)  -->
<svg width="65" height="65" version="1.1" id="Calque_1" xmlns="http://www.w3.org/2000/svg" xmlns:xlink="http://www.w3.org/1999/xlink" x="0px" y="0px"
	 viewBox="0 0 65 65" style="enable-background:new 0 0 65 65;" xml:space="preserve">
<g transform="translate(1.027 1.151)">
	<path style="fill:none;stroke:#FFFFFF;stroke-width:2;stroke-linecap:round;stroke-miterlimit:10;" d="M18.5,27.5c0.3,3.6,0.3,7.2-0.1,10.8c-0.2,1.7-1.1,3.3-2.5,4.3l-12,8.7c-0.5,0.3-0.6,1-0.2,1.5
		c0.2,0.3,0.5,0.5,0.9,0.4L19.9,53c2,0,4-0.8,5.5-2.1l8.3-7.4c0,0,1.9-2.9,4.7-3.7c0.8-0.2,1.6-0.6,2.3-1.1l18-13.6
		c0.9-0.6,1-1.8,0.4-2.7c-0.1-0.1-0.2-0.2-0.3-0.3l-3.7-3.3c-0.6-0.5-1.4-0.8-2.2-0.8l0,0c-0.1,0-0.1,0-0.2-0.1l-6.6-7
		c-1.3-1.4-3.5-1.8-5.2-0.9c-1.1,0.6-2.1,1.8-2.1,4.1c0,3.9-7,5.7-11.2,6.4c-1.7,0.3-3.5-0.3-4.7-1.5c-0.7-0.7-1.5-1.3-2.3-1.7
		c-1.1-0.5-2.4-0.1-3,1c-0.1,0.3-0.2,0.6-0.2,0.9c0,0.9,0.1,1.8,0.5,2.6"/>
	<line style="fill:none;stroke:#FFFFFF;stroke-width:2;stroke-linecap:round;stroke-miterlimit:10;" x1="21.4" y1="37.8" x2="25.7" y2="38.1"/>
	<line style="fill:none;stroke:#FFFFFF;stroke-width:2;stroke-linecap:round;stroke-miterlimit:10;" x1="21.4" y1="34.3" x2="25.7" y2="34.6"/>
	<line style="fill:none;stroke:#FFFFFF;stroke-width:2;stroke-linecap:round;stroke-miterlimit:10;" x1="21.4" y1="30.9" x2="25.7" y2="31.3"/>
	<circle style="fill:#FFFFFF;stroke:#FFFFFF;" cx="28.8" cy="31.2" r="0.7"/>
	<circle style="fill:#FFFFFF;stroke:#FFFFFF;" cx="28.8" cy="34.5" r="0.7"/>
	<circle style="fill:#FFFFFF;stroke:#FFFFFF;" cx="28.8" cy="38.4" r="0.7"/>
	<line style="fill:none;stroke:#FFFFFF;stroke-width:2;stroke-linecap:round;stroke-miterlimit:10;" x1="56.2" y1="22.7" x2="38.8" y2="36.2"/>
</g>
</svg>
