<?xml version="1.0" encoding="utf-8"?>
<!-- Generator: Adobe Illustrator 23.0.0, SVG Export Plug-In . SVG Version: 6.00 Build 0)  -->
<svg width="65" height="65" version="1.1" id="Calque_1" xmlns="http://www.w3.org/2000/svg" xmlns:xlink="http://www.w3.org/1999/xlink" x="0px" y="0px"
	 viewBox="0 0 65 65" style="enable-background:new 0 0 65 65;" xml:space="preserve">
<g>
	<path style="fill:#FFFFFF;" d="M41.5,10H23.5c-3,0-5.4,2.4-5.5,5.4v18.8c0,0.8,0.6,1.4,1.4,1.4c0.8,0,1.4-0.6,1.4-1.4c0,0,0,0,0,0V15.4
		c0-1.5,1.2-2.7,2.7-2.7h18.1c1.5,0,2.7,1.2,2.7,2.7v34.1c0,1.5-1.2,2.7-2.7,2.7H23.5c-1.5,0-2.7-1.2-2.7-2.7v-6h17.7
		c0.8,0,1.4-0.6,1.4-1.4c0-0.8-0.6-1.4-1.4-1.4c0,0,0,0,0,0h-19c-0.8,0-1.4,0.6-1.4,1.4c0,0,0,0,0,0v7.3c0,3,2.5,5.4,5.5,5.4h18.1
		c3,0,5.4-2.4,5.5-5.4V15.4C47,12.4,44.5,10,41.5,10z"/>
	<path style="fill:#FFFFFF;" d="M30.6,47.9c0,1,0.8,1.9,1.9,1.9c1,0,1.9-0.8,1.9-1.9S33.6,46,32.5,46c0,0,0,0,0,0C31.5,46,30.6,46.9,30.6,47.9
		z"/>
</g>
</svg>
