<?xml version="1.0" encoding="utf-8"?>
<!-- Generator: Adobe Illustrator 23.0.0, SVG Export Plug-In . SVG Version: 6.00 Build 0)  -->
<svg width="65" height="65" version="1.1" id="Calque_1" xmlns="http://www.w3.org/2000/svg" xmlns:xlink="http://www.w3.org/1999/xlink" x="0px" y="0px"
	 viewBox="0 0 65 65" style="enable-background:new 0 0 65 65;" xml:space="preserve">
<g transform="translate(0)">
	<path style="fill:#FFFFFF;" d="M53.2,52.7h-7.9V19.5c-0.1-5.5-4.6-9.9-10.2-9.8c-5.3,0.1-9.6,4.3-9.8,9.6v2.5C21.7,22,17,22.9,13.8,26
		c-2.3,2.4-3.5,5.7-3.3,9v9.6c0,2.2,1.8,3.9,4,3.9h7.6c2.1,3.6,6.7,4.8,10.3,2.7c3.6-2.1,4.8-6.7,2.7-10.3c-0.8-1.4-2-2.5-3.5-3.1
		v-8.2c0-0.7-0.6-1.3-1.3-1.3c-0.7,0-1.3,0.6-1.3,1.3c0,0,0,0,0,0v9.1c0,0.6,0.4,1.1,0.9,1.2c2.6,0.8,4.1,3.5,3.3,6.2
		c-0.8,2.6-3.5,4.1-6.2,3.3c-1.4-0.4-2.5-1.4-3.1-2.7c-0.2-0.5-0.7-0.8-1.2-0.8h-8.3c-0.8,0-1.4-0.6-1.4-1.3V35
		c-0.2-2.6,0.8-5.2,2.6-7.1c3.8-3.8,11.1-3.6,13.8-3.6c0.3,0,0.6,0,0.8,0c0.7,0,1.3-0.6,1.3-1.3c0-0.7-0.6-1.3-1.3-1.3
		c-0.2,0-0.4,0-0.7,0c-0.4,0-1,0-1.6,0v-2.3c0.2-4.1,3.7-7.3,7.8-7.1c3.9,0.2,7,3.3,7.1,7.2v33.2H38c-0.7,0-1.3,0.6-1.3,1.3
		c0,0.7,0.6,1.3,1.3,1.3l0,0h15.2c0.7,0,1.3-0.6,1.3-1.3C54.5,53.3,53.9,52.7,53.2,52.7z"/>
	<path style="fill:#FFFFFF;" d="M26.8,45.1c0,1.1,0.9,2.1,2.1,2.1c1.1,0,2.1-0.9,2.1-2.1S30,43.1,28.9,43c0,0,0,0,0,0
		C27.7,43,26.8,44,26.8,45.1L26.8,45.1z"/>
</g>
</svg>
