<?xml version="1.0" encoding="utf-8"?>
<!-- Generator: Adobe Illustrator 23.0.0, SVG Export Plug-In . SVG Version: 6.00 Build 0)  -->
<svg width="65" height="65" version="1.1" xmlns="http://www.w3.org/2000/svg" xmlns:xlink="http://www.w3.org/1999/xlink" x="0px" y="0px"
	 viewBox="0 0 65 65" style="enable-background:new 0 0 65 65;" xml:space="preserve">
<g transform="translate(0 0)">
	<path class="blankfill" d="M9.5,43.4c-0.6,0.7-0.6,1.8,0.1,2.4c0.3,0.3,0.7,0.4,1.1,0.4c0.9,0,1.6-0.7,1.6-1.6c0-0.9-0.8-1.7-1.7-1.7
		C10.2,43,9.8,43.1,9.5,43.4z"/>
	<path class="blankfill" d="M54.5,14.7c-0.9-0.9-2.2-1.5-3.5-1.5h0l-28.4,0.1l-8.3-0.1h0c-2.8,0-5,2.3-5,5c0,0,0,0,0,0l0,16.9
		c0,0.8,0.7,1.5,1.5,1.5c0,0,0,0,0,0l0,0c0.8,0,1.5-0.7,1.5-1.5c0,0,0,0,0,0l0-16.9c0-1.1,0.9-2.1,2.1-2.1l0,0l8.4,0.1L51,16.2l0,0
		c1.1,0,2.1,0.9,2.1,2.1l0,22.8c0,1.1-0.8,1.9-1.8,2.1c0,0-0.1,0-0.1,0l-32.7,0h-3.2c-0.8,0-1.5,0.7-1.5,1.5s0.7,1.5,1.5,1.5h1.5
		c0.1,0,0.2,0,0.3,0h8.8L23,49.4c-0.5,0.6-0.4,1.6,0.2,2.1c0.6,0.5,1.5,0.4,2-0.2l4.3-5c0-0.1,0.1-0.1,0.1-0.2h6.1l4.2,4.9
		c0.5,0.6,1.5,0.7,2.1,0.1c0.6-0.5,0.7-1.4,0.2-2l-2.6-3h11.7c0,0,0.1,0,0.1,0c2.6-0.2,4.6-2.4,4.6-5l0-22.8
		C56,16.9,55.5,15.7,54.5,14.7z"/>
</g>
</svg>
