<?xml version="1.0" encoding="utf-8"?> <svg width="65" height="65" version="1.1" xmlns="http://www.w3.org/2000/svg" xmlns:xlink="http://www.w3.org/1999/xlink" x="0px" y="0px" viewBox="0 0 65 65" style="enable-background:new 0 0 65 65;" xml:space="preserve"> <g transform="translate(42.3 45.435)"> <g transform="translate(-42.3 -45.435)"> <g transform="translate(1.308 10.454)"> <path class="blankfill" d="M16.6,36.7c-0.5,0-1-0.4-1-1l-0.6-22.5c0-0.5,0.4-1,1-1c0,0,0,0,0,0h0c0.5,0,1,0.4,1,1l0.6,22.5 C17.7,36.2,17.2,36.7,16.6,36.7C16.7,36.7,16.7,36.7,16.6,36.7L16.6,36.7z"/> <path class="blankfill" d="M46.4,33.1L46.4,33.1c-0.6,0-1-0.5-1-1c0,0,0,0,0,0L46,10.8c0-0.5,0.5-1,1-1h0c0.5,0,1,0.5,1,1c0,0,0,0,0,0 l-0.6,21.3C47.4,32.7,47,33.1,46.4,33.1z"/> <path style="fill:none;stroke:#FFFFFF;stroke-width:4;stroke-linecap:round;stroke-linejoin:round;" d="M16.6,35.7"/> <path class="blankfill" d="M47,42.8H15.5c-2.2,0-4.1-1.8-4.1-4.1c0-2.2,1.8-4.1,4.1-4.1h1.1c0.5,0,1,0.4,1,1s-0.4,1-1,1h-1.1 c-1.1,0-2.1,1-2,2.1c0,1.1,0.9,2,2,2H47c1.1,0,2.1-0.9,2.1-2c0-1.1-0.9-2.1-2-2.1c0,0-0.1,0-0.1,0H19.5c-0.5,0-1-0.4-1-1 s0.4-1,1-1H47c2.2,0,4.1,1.8,4.1,4.1C51,41,49.2,42.8,47,42.8z"/> <path style="fill:none;stroke:#FFFFFF;stroke-width:4;stroke-linecap:round;stroke-linejoin:round;" d="M15.3,44.6"/> </g> <path class="blankfill" d="M18.4,16.5c0.3,0.5,0.9,0.6,1.3,0.4c0.5-0.3,0.6-0.9,0.4-1.3c-0.3-0.5-0.9-0.6-1.3-0.4 C18.3,15.5,18.2,16.1,18.4,16.5C18.4,16.5,18.4,16.5,18.4,16.5"/> <path class="blankfill" d="M21.4,16.5c0.3,0.5,0.9,0.6,1.3,0.4c0.5-0.3,0.6-0.9,0.4-1.3c-0.3-0.5-0.9-0.6-1.3-0.4 C21.3,15.5,21.1,16.1,21.4,16.5C21.4,16.5,21.4,16.5,21.4,16.5"/> <path class="blankfill" d="M24.4,16.5c0.3,0.5,0.9,0.6,1.3,0.4c0.5-0.3,0.6-0.9,0.4-1.3c-0.3-0.5-0.9-0.6-1.3-0.4 C24.3,15.5,24.1,16.1,24.4,16.5C24.4,16.5,24.4,16.5,24.4,16.5"/> <path class="blankfill" d="M36.1,28.5H29c-0.2,0-0.4-0.1-0.5-0.2c-0.8-0.5-1.3-1.9-1.5-3h-0.7c-0.3,0-0.5-0.1-0.7-0.3 c-0.2-0.2-0.5-0.5-0.6-0.8l-0.1-0.2c-0.3-0.5-0.1-1.1,0.4-1.3s1.1-0.1,1.3,0.4l0,0l0.1,0.2c0,0,0,0.1,0,0.1h1c0.5,0,0.9,0.3,1,0.8 c0.1,0.8,0.4,1.6,0.7,2.4h6.3c0.3-0.8,0.6-1.5,0.7-2.4c0.1-0.5,0.5-0.8,1-0.8h1c0.3-0.4,0.5-0.8,0.8-1.3H17.3 c-3.2,0-5.8-2.6-5.8-5.8v-0.5c0-3.2,2.6-5.8,5.8-5.8h30.4c3.2,0,5.8,2.6,5.8,5.8v0.5c0,3.2-2.6,5.8-5.8,5.8h-3.6c-0.5,0-1-0.4-1-1 c0-0.5,0.4-1,1-1h3.6c2.1,0,3.8-1.7,3.8-3.8v-0.5c0-2.1-1.7-3.8-3.8-3.8H17.3c-2.1,0-3.8,1.7-3.8,3.8v0.5c0,2.1,1.7,3.8,3.8,3.8 h23.4c0.5,0,1,0.4,1,1c0,0.1,0,0.2,0,0.3c-0.4,1.3-1.1,2.6-1.9,3.7c-0.2,0.2-0.5,0.3-0.7,0.3h-0.7c-0.3,1.1-0.8,2.5-1.5,3 C36.5,28.4,36.3,28.5,36.1,28.5z"/> <path class="blankfill" d="M36,44.5h-6.8c-0.5,0-1-0.4-1-0.9l-0.8-11.5c0-0.5,0.4-1,0.9-1.1s1,0.4,1.1,0.9l0.7,10.6H35L35.8,32 c0-0.5,0.5-1,1.1-0.9s1,0.5,0.9,1.1L37,43.6C36.9,44.1,36.5,44.6,36,44.5z"/> </g> </g> </svg>