<?xml version="1.0" encoding="utf-8"?> <svg width="65" height="65" version="1.1" xmlns="http://www.w3.org/2000/svg" xmlns:xlink="http://www.w3.org/1999/xlink" x="0px" y="0px" viewBox="0 0 65 65" style="enable-background:new 0 0 65 65;" xml:space="preserve"> <g transform="translate(0 0)"> <path class="blankfill" d="M32.5,40.8c-4.6,0-8.4-3.7-8.4-8.3c0-4.6,3.7-8.4,8.3-8.4s8.4,3.7,8.4,8.3c0,0,0,0.1,0,0.1 C40.8,37,37.1,40.8,32.5,40.8z M32.5,26.5c-3.3,0-6,2.6-6.1,5.9c0,3.3,2.6,6,5.9,6.1s6-2.6,6.1-5.9c0,0,0-0.1,0-0.1 C38.4,29.2,35.8,26.5,32.5,26.5z"/> <path class="blankfill" d="M51.2,47.5H13.8c-2,0-3.6-1.6-3.6-3.7V21.2c0-2,1.6-3.6,3.6-3.7l31.3,0c0.6,0,1.2,0.5,1.2,1.2 s-0.5,1.2-1.2,1.2H13.8c-0.7,0-1.3,0.6-1.3,1.3v22.7c0,0.7,0.6,1.3,1.3,1.3c0,0,0,0,0,0h37.4c0.3,0,0.7-0.1,0.9-0.4 c0.2-0.3,0.4-0.6,0.4-0.9l-0.1-22.8c0-0.7-0.6-1.3-1.3-1.3c-0.6,0-1.2-0.5-1.2-1.2c0-0.6,0.5-1.2,1.2-1.2c2,0,3.6,1.6,3.6,3.6 l0.1,22.8c0,1-0.4,1.9-1.1,2.6C53.1,47.2,52.2,47.5,51.2,47.5L51.2,47.5z"/> <path class="blankfill" d="M47.9,26c0.9,0,1.6-0.7,1.6-1.6s-0.7-1.6-1.6-1.6s-1.6,0.7-1.6,1.6c0,0,0,0,0,0C46.3,25.3,47,26,47.9,26"/> </g> </svg>