<?xml version="1.0" encoding="utf-8"?>
<!-- Generator: Adobe Illustrator 23.0.0, SVG Export Plug-In . SVG Version: 6.00 Build 0)  -->
<svg width="65" height="65" version="1.1" id="Calque_1" xmlns="http://www.w3.org/2000/svg" xmlns:xlink="http://www.w3.org/1999/xlink" x="0px" y="0px"
	 viewBox="0 0 65 65" style="enable-background:new 0 0 65 65;" xml:space="preserve">
<g transform="translate(0 0)">
	<path style="fill:#FFFFFF;" d="M51.3,27.7c-0.4-1.1-1.3-1.9-2.5-2.1l-9.4-1.4l-4.1-8.9c-0.7-1.5-2.6-2.2-4.1-1.5c-0.7,0.3-1.2,0.8-1.5,1.5
		l-4.1,8.9l-9.4,1.4c-1.7,0.3-2.8,1.8-2.6,3.5c0.1,0.6,0.4,1.2,0.8,1.7l4.6,4.9l0.1,0.1c0.1,0.1,0.1,0.3,0,0.4l-2.5,2.5
		c-0.5,0.5-0.4,1.2,0,1.7c0.5,0.4,1.2,0.4,1.6,0l2.5-2.5c1-1,1-2.7,0-3.7l-4.7-5.1c-0.3-0.3-0.3-0.7,0-1c0.1-0.1,0.2-0.2,0.4-0.2
		l10.1-1.5c0.4-0.1,0.7-0.3,0.9-0.7l4.4-9.4c0.2-0.4,0.6-0.5,1-0.3c0.1,0.1,0.3,0.2,0.3,0.3l4.4,9.4c0.2,0.4,0.5,0.6,0.9,0.7
		l10.1,1.5c0.4,0.1,0.7,0.4,0.6,0.8c0,0.1-0.1,0.3-0.2,0.4l-7.3,7.6c-0.3,0.3-0.4,0.6-0.3,1L43,48.3c0.1,0.4-0.2,0.8-0.6,0.8
		c-0.2,0-0.3,0-0.5-0.1l-8.8-4.9c-0.4-0.2-0.8-0.2-1.2,0L23.1,49c-0.3,0.2-0.8,0.1-1-0.3C22,48.6,22,48.5,22,48.3l0.7-4.1l0.1-0.4
		c0.1-0.9-0.5-1.8-1.4-2c-0.5-0.1-1.1,0.1-1.5,0.5l-5,5c-0.5,0.4-0.5,1.2-0.1,1.7c0.4,0.5,1.2,0.5,1.7,0.1c0,0,0,0,0.1-0.1l3.5-3.5
		l-0.4,2.4c-0.3,1.7,0.9,3.3,2.5,3.6c0.7,0.1,1.4,0,2-0.4l8.3-4.6l8.3,4.6c1.5,0.8,3.4,0.3,4.2-1.2c0.3-0.6,0.5-1.3,0.3-2l-1.6-10
		l6.9-7.1C51.4,30,51.7,28.8,51.3,27.7z"/>
	<path style="fill:#FFFFFF;" d="M15.8,42.8c0.5-0.4,0.6-1.1,0.3-1.6c-0.4-0.5-1.1-0.6-1.6-0.3c-0.5,0.4-0.6,1.1-0.3,1.6c0,0,0,0,0,0
		C14.6,43.1,15.3,43.2,15.8,42.8z"/>
</g>
</svg>
