<?xml version="1.0" encoding="utf-8"?>
<!-- Generator: Adobe Illustrator 23.0.0, SVG Export Plug-In . SVG Version: 6.00 Build 0)  -->
<svg width="65" height="65" version="1.1" xmlns="http://www.w3.org/2000/svg" xmlns:xlink="http://www.w3.org/1999/xlink" x="0px" y="0px"
	 viewBox="0 0 65 65" style="enable-background:new 0 0 65 65;" xml:space="preserve">
<g transform="translate(1.25 3.612)">
	<path style="fill:none;stroke:#FFFFFF;stroke-width:2.5;stroke-linecap:round;stroke-linejoin:round;stroke-miterlimit:10;" d="M36.9,48.1h7.2V9.7H18.4v38.4h12.8v-4.5"/>
	<circle style="fill:none;stroke:#FFFFFF;stroke-width:2.5;stroke-linecap:round;stroke-linejoin:round;stroke-miterlimit:10;" cx="31.2" cy="19.1" r="4.5"/>
	<g transform="translate(4.797 16.435)">
		<path style="fill:none;stroke:#FFFFFF;stroke-width:2.5;stroke-linecap:round;stroke-linejoin:round;stroke-miterlimit:10;" d="M26.5,27.4c4.6,0,8.4-3.8,8.3-8.4c0-4.6-3.8-8.4-8.4-8.3c-4.6,0-8.4,3.8-8.3,8.4c0,3.3,1.9,6.2,4.9,7.6"/>
	</g>
	<path class="blankfill" d="M31.2,18.2c-0.5,0-0.9,0.4-0.9,0.9c0,0.5,0.4,0.9,0.9,0.9s0.9-0.4,0.9-0.9l0,0C32.2,18.6,31.8,18.2,31.2,18.2
		C31.3,18.2,31.3,18.2,31.2,18.2"/>
</g>
</svg>
