<?xml version="1.0" encoding="utf-8"?>
<svg width="65" height="65" version="1.1" xmlns="http://www.w3.org/2000/svg" xmlns:xlink="http://www.w3.org/1999/xlink" x="0px" y="0px"
	 viewBox="0 0 65 65" style="enable-background:new 0 0 65 65;" xml:space="preserve">
<g transform="translate(1.25 1.25)">
	<path style="fill:none;stroke:#FFFFFF;stroke-width:2.5;stroke-linecap:round;stroke-linejoin:round;stroke-miterlimit:10;" d="M32.7,14.9H19.4c-2.4,0-4.4,2-4.4,4.4l0,0v23.8c0,2.4,2,4.4,4.4,4.4l0,0h23.8c2.4,0,4.4-2,4.4-4.4l0,0V19.5
		c0-2.4-2-4.4-4.4-4.4l0,0h-4.2"/>
	<circle class="blankfill" cx="25.6" cy="22.5" r="2.2"/>
	<circle class="blankfill" cx="37.5" cy="22.5" r="2.2"/>
	<circle class="blankfill" cx="25.6" cy="31.3" r="2.2"/>
	<circle class="blankfill" cx="37.5" cy="31.3" r="2.2"/>
	<circle class="blankfill" cx="25.6" cy="40.1" r="2.2"/>
	<circle class="blankfill" cx="37.5" cy="40.1" r="2.2"/>
</g>
</svg>
