<?xml version="1.0" encoding="utf-8"?>
<!-- Generator: Adobe Illustrator 23.0.0, SVG Export Plug-In . SVG Version: 6.00 Build 0)  -->
<svg width="65" height="65" version="1.1" id="Calque_1" xmlns="http://www.w3.org/2000/svg" xmlns:xlink="http://www.w3.org/1999/xlink" x="0px" y="0px"
	 viewBox="0 0 65 65" style="enable-background:new 0 0 65 65;" xml:space="preserve">
<g transform="translate(28.843 33.631)">
	<g transform="translate(-28.843 -33.631)">
		<path style="fill:#FFFFFF;" d="M30.6,42.3c0,1.1,0.9,2,2,2c1.1,0,2-0.9,2-2c0-1.1-0.9-2-2-2c0,0,0,0,0,0C31.4,40.3,30.6,41.2,30.6,42.3z"/>
		<path style="fill:#FFFFFF;" d="M51,29.4c0-0.9-0.4-1.7-1-2.3l-1.6-1.4v-8.9c0-1.1-0.9-1.9-1.9-1.9h-5.3c-1.1,0-1.9,0.9-1.9,1.9v2.7
			c0,0.7,0.6,1.3,1.3,1.3c0.7,0,1.3-0.6,1.3-1.3v-2.1h4v8.8c0,0.4,0.2,0.7,0.4,1l2,1.8c0.1,0.1,0.2,0.3,0.2,0.4l0,16.5
			c0,3.1-2.5,5.6-5.6,5.6c0,0,0,0,0,0h0l-20.7,0c-3.1,0-5.6-2.5-5.6-5.6V29.4c0-0.1,0.1-0.3,0.2-0.4L32,13.7c0.2-0.2,0.6-0.2,0.8,0
			l1.5,1.5c0.5,0.5,1.3,0.5,1.8,0c0.5-0.5,0.5-1.3,0-1.8l-1.5-1.5c-1.2-1.2-3.2-1.2-4.4,0L14.9,27.1c-0.6,0.6-0.9,1.4-0.9,2.2v16.5
			c0,4.5,3.7,8.1,8.2,8.1l20.7,0h0c4.5,0,8.2-3.7,8.2-8.2c0,0,0,0,0,0L51,29.4z"/>
		<path style="fill:#FFFFFF;" d="M37.2,38.1c0.5,0.5,1.3,0.6,1.8,0.1s0.6-1.3,0.1-1.8c-3.2-3.7-8.8-4.1-12.5-0.8c-0.3,0.3-0.6,0.5-0.8,0.8
			c-0.5,0.5-0.4,1.3,0.1,1.8s1.3,0.4,1.8-0.1l0,0c2.3-2.6,6.3-2.9,8.9-0.6C36.8,37.6,37,37.8,37.2,38.1L37.2,38.1z"/>
		<path style="fill:#FFFFFF;" d="M41,33.3c0.5,0.5,1.3,0.6,1.8,0.1c0.5-0.5,0.6-1.3,0.1-1.8c0,0,0,0,0-0.1c-5.1-5.8-13.9-6.3-19.6-1.3
			c-0.4,0.4-0.9,0.8-1.3,1.3c-0.5,0.5-0.5,1.3,0,1.8c0.5,0.5,1.3,0.5,1.8,0c0,0,0,0,0-0.1c4.1-4.7,11.3-5.2,16-1.1
			C40.3,32.6,40.6,32.9,41,33.3z"/>
	</g>
</g>
</svg>
