<?xml version="1.0" encoding="utf-8"?> <svg width="65" height="65" version="1.1" xmlns="http://www.w3.org/2000/svg" xmlns:xlink="http://www.w3.org/1999/xlink" x="0px" y="0px" viewBox="0 0 65 65" style="enable-background:new 0 0 65 65;" xml:space="preserve"> <g transform="translate(0 0)"> <path class="blankfill" d="M52.7,44.7l-1.1-12.1c-0.1-1.2-0.4-2.3-0.9-3.3c-1.4-3.4-4.7-5.6-8.3-5.9c-0.1,0-0.1,0-0.2,0h-6 c-1.3,0-2.4-1.1-2.4-2.4v-7.4c0-0.7-0.5-1.3-1.2-1.3c-0.7,0-1.3,0.5-1.3,1.2c0,0,0,0,0,0.1V21c0,2.7,2.2,4.9,4.9,5h5.9 c0,0,0.1,0,0.1,0c2.8,0.1,5.2,1.9,6.3,4.4c0.4,0.8,0.6,1.7,0.6,2.5l1.1,12.1c0.1,0.8,0,1.7-0.3,2.5c-0.9,2.3-3.4,3.4-5.7,2.6 c-1.3-0.5-2.3-1.6-2.7-3c0-0.1,0-0.1-0.1-0.2l-1.1-2.2c-0.2-0.4-0.4-0.9-0.6-1.3l-0.1-0.1c0-0.1-0.1-0.2-0.2-0.3 c-2.4-3.8-7.5-4.9-11.3-2.5c-1,0.6-1.8,1.5-2.5,2.5c-0.1,0.1-0.2,0.2-0.2,0.3l-0.1,0.1c-0.2,0.4-0.4,0.8-0.6,1.3l-1.1,2.2 c0,0.1,0,0.1-0.1,0.2c-0.6,1.9-2.3,3.3-4.3,3.3c-1.8,0-3.5-1.2-4.1-2.9c-0.3-0.8-0.4-1.6-0.4-2.5l1.1-12.1c0.1-0.9,0.3-1.7,0.6-2.5 c1.1-2.5,3.5-4.2,6.3-4.4c0,0,0.1,0,0.1,0h3c0.7,0,1.2-0.6,1.2-1.3c0-0.7-0.6-1.2-1.2-1.2h-3.1c-0.1,0-0.1,0-0.2,0 c-3.7,0.2-6.9,2.5-8.3,5.9c-0.5,1.1-0.8,2.2-0.9,3.3l-1.1,12.1c-0.1,1.3,0.1,2.5,0.5,3.7c1.1,2.6,3.6,4.3,6.4,4.4 c3.1,0,5.7-2,6.7-5l1.1-2.2c0,0,0-0.1,0-0.1c0.1-0.3,0.3-0.7,0.5-1c0,0,0-0.1,0.1-0.1l0,0c0,0,0-0.1,0.1-0.1 c1.6-2.7,5.1-3.6,7.8-1.9c0.8,0.5,1.5,1.1,1.9,1.9c0,0,0,0,0.1,0.1l0,0c0,0,0,0.1,0,0.1c0.2,0.3,0.4,0.7,0.5,1c0,0,0,0.1,0,0.1 l1.1,2.2c1.1,3.7,5,5.8,8.6,4.7c2-0.6,3.7-2.1,4.5-4.1C52.7,47.2,52.9,45.9,52.7,44.7L52.7,44.7z"/> <path class="blankfill" d="M41.9,31.7c0.9,0,1.7-0.8,1.7-1.7c0-0.9-0.8-1.7-1.7-1.7c-0.9,0-1.7,0.8-1.7,1.7c0,0,0,0,0,0 C40.2,30.9,41,31.7,41.9,31.7z"/> <path class="blankfill" d="M41.9,38.8c0.9,0,1.7-0.8,1.7-1.7c0-0.9-0.8-1.7-1.7-1.7c-0.9,0-1.7,0.8-1.7,1.7c0,0,0,0,0,0 C40.2,38.1,41,38.8,41.9,38.8z"/> <path class="blankfill" d="M47.3,33.7c0-0.9-0.8-1.7-1.7-1.7c-0.9,0-1.7,0.8-1.7,1.7c0,0.9,0.8,1.7,1.7,1.7S47.3,34.6,47.3,33.7 L47.3,33.7z"/> <path class="blankfill" d="M40,33.7c0-0.9-0.8-1.7-1.7-1.7s-1.7,0.8-1.7,1.7c0,0.9,0.8,1.7,1.7,1.7C39.2,35.4,40,34.6,40,33.7 C40,33.7,40,33.7,40,33.7z"/> <path class="blankfill" d="M24.1,32.4V30c0-0.7-0.5-1.3-1.2-1.3s-1.3,0.5-1.3,1.2c0,0,0,0,0,0.1v2.5h-2.5c-0.7,0-1.3,0.5-1.3,1.2 c0,0.7,0.5,1.3,1.2,1.3c0,0,0,0,0.1,0h2.5v2.5c0,0.7,0.5,1.3,1.2,1.3c0.7,0,1.3-0.5,1.3-1.2c0,0,0,0,0-0.1V35h2.5 c0.7,0,1.3-0.5,1.3-1.2c0-0.7-0.5-1.3-1.2-1.3c0,0,0,0-0.1,0L24.1,32.4z"/> </g> </svg>