<?xml version="1.0" encoding="utf-8"?>
<!-- Generator: Adobe Illustrator 23.0.0, SVG Export Plug-In . SVG Version: 6.00 Build 0)  -->
<svg width="65" height="65" version="1.1" id="Calque_1" xmlns="http://www.w3.org/2000/svg" xmlns:xlink="http://www.w3.org/1999/xlink" x="0px" y="0px"
	 viewBox="0 0 65 65" style="enable-background:new 0 0 65 65;" xml:space="preserve">
<g transform="translate(38.152 33.225)">
	<g transform="translate(-38.153 -33.225)">
		<path style="fill:#FFFFFF;" d="M17.2,20.2c0-1.4-1.2-2.6-2.6-2.6S12,18.7,12,20.2c0,1.4,1.2,2.6,2.6,2.6C16,22.8,17.2,21.6,17.2,20.2
			C17.2,20.2,17.2,20.2,17.2,20.2z"/>
		<path style="fill:#FFFFFF;" d="M13.5,26.5c-0.6,0.6-0.6,1.5,0,2.1c0.6,0.6,1.5,0.6,2.1,0c0.6-0.6,0.6-1.5,0-2.1c0,0,0,0,0,0
			C15.1,25.9,14.1,25.9,13.5,26.5z"/>
		<path style="fill:#FFFFFF;" d="M56.1,16.9c-0.8-0.8-2-1.3-3.1-1.3h0l-25.2,0c-0.7,0-1.3,0.6-1.3,1.3c0,0.7,0.6,1.3,1.3,1.3l0,0l25.2,0l0,0
			c1,0,1.8,0.8,1.8,1.8c0,0,0,0,0,0l0,20.2c0,0.9-0.7,1.7-1.7,1.8l-32.9,0c-0.7,0-1.3,0.6-1.3,1.3v8.2h-8.7V17.9
			c0-2.4,2-4.4,4.4-4.4c2.4,0,4.4,2,4.4,4.4c0,0,0,0,0,0v18c0,0.7,0.6,1.3,1.3,1.3c0.7,0,1.3-0.6,1.3-1.3v-18c0.1-3.9-3-7.1-6.9-7.1
			c-3.9-0.1-7.1,3-7.1,6.9c0,0.1,0,0.2,0,0.2v35c0,0.7,0.6,1.3,1.3,1.3h11.3c0.7,0,1.3-0.6,1.3-1.3v-8.2h9.1l-2.5,2.9
			c-0.5,0.5-0.4,1.4,0.1,1.8s1.4,0.4,1.8-0.1l3.8-4.4c0,0,0.1-0.1,0.1-0.1h5.4l3.8,4.4c0.5,0.5,1.3,0.6,1.8,0.1s0.6-1.3,0.1-1.8l0,0
			l-2.3-2.7l10.4,0c0,0,0.1,0,0.1,0c2.3-0.2,4.1-2.1,4.1-4.4l0-20.2C57.4,18.8,56.9,17.7,56.1,16.9z"/>
	</g>
</g>
</svg>
