<?xml version="1.0" encoding="utf-8"?>
<!-- Generator: Adobe Illustrator 23.0.0, SVG Export Plug-In . SVG Version: 6.00 Build 0)  -->
<svg width="65" height="65" version="1.1" id="Calque_1" xmlns="http://www.w3.org/2000/svg" xmlns:xlink="http://www.w3.org/1999/xlink" x="0px" y="0px"
	 viewBox="0 0 65 65" style="enable-background:new 0 0 65 65;" xml:space="preserve">
<g transform="translate(1.25 0.452)">
	<path style="fill:none;stroke:#FFFFFF;stroke-width:2.5;stroke-linecap:round;stroke-linejoin:round;stroke-miterlimit:10;" d="M20.7,17.5h27.6c3.1,0,5.7,2.5,5.7,5.7v18.5c0,3.1-2.5,5.7-5.7,5.7H14c-3.1,0-5.7-2.5-5.7-5.7V23.2
		c0-1.4,0.5-2.8,1.5-3.8"/>
	<path style="fill:#FFFFFF;" d="M13.4,19c0.6,0,1.1-0.6,1.1-1.2c0,0,0,0,0,0c-0.1-0.6-0.6-1.1-1.2-1.1c-0.6,0-1.1,0.6-1.1,1.2
		C12.2,18.6,12.7,19.1,13.4,19"/>
	<g transform="translate(0.745 0.897)">
		<line style="fill:none;stroke:#FFFFFF;stroke-width:3;stroke-linejoin:round;stroke-miterlimit:10;" x1="36.7" y1="16.7" x2="36.7" y2="45.7"/>
		<line style="fill:none;stroke:#FFFFFF;stroke-width:3;stroke-linejoin:round;stroke-miterlimit:10;" x1="53.4" y1="33.7" x2="8.3" y2="33.7"/>
	</g>
	<line style="fill:none;stroke:#FFFFFF;stroke-width:3;stroke-linecap:round;stroke-linejoin:round;stroke-miterlimit:10;" x1="36.4" y1="33.7" x2="33.2" y2="31.5"/>
	<line style="fill:none;stroke:#FFFFFF;stroke-width:3;stroke-linecap:round;stroke-linejoin:round;stroke-miterlimit:10;" x1="38" y1="34.1" x2="42.5" y2="31.5"/>
	<line style="fill:none;stroke:#FFFFFF;stroke-width:3;stroke-linecap:round;stroke-linejoin:round;stroke-miterlimit:10;" x1="36" y1="33.9" x2="42.6" y2="37.2"/>
	<line style="fill:none;stroke:#FFFFFF;stroke-width:3;stroke-linecap:round;stroke-linejoin:round;stroke-miterlimit:10;" x1="38.4" y1="33.6" x2="33.8" y2="37.5"/>
</g>
</svg>
