<?xml version="1.0" encoding="utf-8"?>
<!-- Generator: Adobe Illustrator 23.0.0, SVG Export Plug-In . SVG Version: 6.00 Build 0)  -->
<svg width="65" height="65" version="1.1" xmlns="http://www.w3.org/2000/svg" xmlns:xlink="http://www.w3.org/1999/xlink" x="0px" y="0px"
	 viewBox="0 0 65 65" style="enable-background:new 0 0 65 65;" xml:space="preserve">
<g transform="translate(0 0)">
	<path class="blankfill" d="M42.4,14.6c-0.5,0-1,0-1.5,0.1c-4.7-3.9-11.6-3.9-16.3,0.1c-7-1.1-13.6,3.7-14.7,10.8
		c-1,6.2,2.7,12.2,8.7,14.2v12c0,0.8,0.6,1.4,1.4,1.4c0,0,0,0,0,0h17.7c0.8,0,1.4-0.6,1.4-1.4s-0.6-1.4-1.4-1.4H21.4V38.7
		c0-0.7-0.5-1.2-1.1-1.4c-5.4-1.3-8.7-6.7-7.4-12.1c1.3-5.3,6.5-8.6,11.8-7.5c0.5,0.1,0.9,0,1.3-0.4c3.8-3.6,9.7-3.6,13.5-0.1
		c0.3,0.3,0.8,0.4,1.2,0.4c5.5-0.9,10.6,2.9,11.5,8.3c0.8,5.2-2.4,10.1-7.5,11.3c-0.6,0.1-1.1,0.7-1.1,1.4v13.1
		c0,0.8,0.6,1.4,1.4,1.4s1.4-0.6,1.4-1.4v-12c6.8-2.2,10.4-9.5,8.2-16.3C52.9,18.2,48,14.7,42.4,14.6L42.4,14.6z"/>
	<path class="blankfill" d="M30.8,44.8c0,1,0.9,1.9,1.9,1.9c1,0,1.9-0.9,1.9-1.9c0-1-0.9-1.9-1.9-1.9c0,0,0,0,0,0
		C31.6,42.9,30.8,43.8,30.8,44.8z"/>
</g>
</svg>
