<?xml version="1.0" encoding="utf-8"?>
<!-- Generator: Adobe Illustrator 23.0.0, SVG Export Plug-In . SVG Version: 6.00 Build 0)  -->
<svg width="65" height="65" version="1.1" id="Calque_1" xmlns="http://www.w3.org/2000/svg" xmlns:xlink="http://www.w3.org/1999/xlink" x="0px" y="0px"
	 viewBox="0 0 65 65" style="enable-background:new 0 0 65 65;" xml:space="preserve">
<g transform="translate(25.696 32.669)">
	<g transform="translate(-25.696 -32.669)">
		<path style="fill:#FFFFFF;" d="M47.8,12.7c-0.8-0.8-1.8-1.2-2.8-1.2h0l-25,0.1c-2.2,0-4,1.8-4,4c0,0.7,0.5,1.3,1.2,1.4
			c0.7,0,1.3-0.5,1.4-1.2c0-0.1,0-0.1,0-0.2c0-0.8,0.7-1.4,1.4-1.4l25-0.1h0c0.4,0,0.8,0.2,1,0.4c0.3,0.3,0.4,0.6,0.4,1v34
			c0,0.8-0.7,1.4-1.4,1.4H20.1c-0.8,0-1.4-0.6-1.4-1.4V22.3c0-0.7-0.7-1.2-1.4-1.2c-0.6,0-1.2,0.6-1.2,1.2v27.3c0,2.2,1.8,4,4,4H45
			c2.2,0,4-1.8,4-4v-34C49,14.4,48.6,13.4,47.8,12.7z"/>
		<path style="fill:#FFFFFF;" d="M32.5,45c5-0.1,9-4.2,9-9.2c-0.1-5-4.2-9-9.2-9c-5,0.1-9,4.1-9,9.1C23.3,40.9,27.4,45,32.5,45
			C32.4,45,32.4,45,32.5,45z M32.5,29.4c3.6,0.1,6.5,3,6.4,6.6s-3,6.5-6.6,6.4c-3.6,0-6.4-2.9-6.4-6.5
			C25.9,32.3,28.8,29.4,32.5,29.4C32.4,29.4,32.4,29.4,32.5,29.4L32.5,29.4z"/>
		<path style="fill:#FFFFFF;" d="M23.6,17.3c-1,0-1.7,0.8-1.7,1.8c0,1,0.8,1.7,1.8,1.7c1,0,1.7-0.8,1.7-1.8C25.4,18.1,24.6,17.3,23.6,17.3
			C23.7,17.3,23.6,17.3,23.6,17.3z"/>
	</g>
</g>
</svg>
