<?xml version="1.0" encoding="utf-8"?> <svg version="1.1" xmlns="http://www.w3.org/2000/svg" xmlns:xlink="http://www.w3.org/1999/xlink" x="0px" y="0px" width="65" height="65" viewBox="0 0 65 65" style="enable-background:new 0 0 65 65;" xml:space="preserve"> <g> <path class="blankfill" d="M52.6,48.2c-0.5-1.1-1.7-1.5-2.8-1c-0.2,0.1-0.4,0.2-0.7,0.3c-8.2,3.5-17.8-0.4-21.3-8.7 c-0.1-0.2-0.2-0.3-0.2-0.5h4.9c1.2,0,2.1-0.9,2.1-2.1c0-1.2-0.9-2.1-2.1-2.1l0,0h-6c-0.1-0.6-0.1-1.1-0.1-1.7s0-1.1,0.1-1.7h6 c1.2,0,2.1-0.9,2.1-2.1c0-1.2-0.9-2.1-2.1-2.1l0,0h-4.9c2.5-6.3,8.5-10.4,15.2-10.4c2.3,0,4.7,0.5,6.8,1.5c1.1,0.5,2.3,0,2.7-1.1 c0.4-1,0-2.2-1-2.7c-2.7-1.2-5.7-1.9-8.6-1.9c-9.1,0-17,5.9-19.6,14.6h-3.9c-1.2,0-2.1,0.9-2.1,2.1c0,1.2,0.9,2.1,2.1,2.1h3.1 c-0.1,0.6-0.1,1.1-0.1,1.7c0,0.6,0,1.1,0.1,1.7h-3.1c-1.2,0-2.1,0.9-2.1,2.1c0,1.2,0.9,2.1,2.1,2.1l0,0h3.9 c3.2,10.8,14.7,17,25.5,13.7c0.7-0.2,1.4-0.5,2.1-0.7c0.2-0.1,0.6-0.2,0.8-0.3C52.7,50.5,53.1,49.2,52.6,48.2z"/> <path class="blankfill" d="M14.2,26.7c-1.2,0-2.1,0.9-2.1,2.1c0,1.2,0.9,2.1,2.1,2.1s2.1-0.9,2.1-2.1C16.3,27.6,15.4,26.7,14.2,26.7 L14.2,26.7z"/> </g> </svg>