<?xml version="1.0" encoding="utf-8"?> <svg width="65" height="65" version="1.1" xmlns="http://www.w3.org/2000/svg" xmlns:xlink="http://www.w3.org/1999/xlink" x="0px" y="0px" viewBox="0 0 65 65" style="enable-background:new 0 0 65 65;" xml:space="preserve"> <g transform="translate(0)"> <path class="blankfill" d="M25.7,28.6c-0.4,0.4-0.4,1,0,1.4c0.4,0.4,1,0.4,1.4,0c0.4-0.4,0.4-1,0-1.4c0,0,0,0,0,0 C26.7,28.3,26.1,28.3,25.7,28.6z"/> <path class="blankfill" d="M34,48.3c-0.5,0.5-0.5,1.3,0,1.7s1.3,0.5,1.7,0c0.5-0.5,0.5-1.3,0-1.7C35.3,47.9,34.5,47.8,34,48.3 C34,48.3,34,48.3,34,48.3z"/> <path class="blankfill" d="M34,31.4c0.7,0.2,1.4,0.4,2.1,0.4c1,0,2-0.3,2.9-0.9c2.5,3.7,7.4,4.6,11.1,2.2c0.8-0.6,1.6-1.3,2.1-2.1 c0.8,0.5,1.7,0.8,2.7,0.7c0.7,0,1.4-0.1,2.1-0.4c0.6-0.2,1-0.9,0.7-1.6c-0.2-0.6-0.9-1-1.6-0.8c0,0-2,0.7-2.9-0.4 c0.2-0.7,0.3-1.4,0.3-2.2c0-4.4-3.6-8-8-8c-4.4,0-8,3.6-8,8c0,0.7,0.1,1.3,0.2,2l0,0c-0.7,1.4-3,0.6-3.1,0.6 c-0.6-0.2-1.3,0.1-1.5,0.7c0,0,0,0.1,0,0.1C33,30.5,33.4,31.1,34,31.4z M45.6,20.9c3.1,0,5.5,2.5,5.5,5.5S48.7,32,45.6,32 c-3.1,0-5.5-2.5-5.5-5.5C40.1,23.4,42.6,21,45.6,20.9L45.6,20.9z"/> <path class="blankfill" d="M45.5,36.1c-4.4,0.1-8.5,2.6-10.6,6.5c-2.3-4.9-7.3-8.1-12.7-8.3c-8,0-14.5,7-14.5,15.6c0,0.7,0.6,1.2,1.2,1.2 c0.7,0,1.2-0.6,1.2-1.2c0,0,0,0,0,0c0-7.3,5.4-13.1,12-13.1c5.1,0.1,9.6,3.5,11.2,8.4c0.1,0.3,0.2,0.6,0.3,0.9 c0.1,0.2,0.1,0.3,0.2,0.5c0.2,0.2,0.4,0.4,0.7,0.4c0.7,0.2,1.3-0.2,1.5-0.8c0,0,0,0,0,0c0.1-0.3,0.1-0.5,0.2-0.8 c1.3-4,4.9-6.7,9.1-6.9c5.4,0,9.8,4.8,9.8,10.7c0,0.7,0.6,1.2,1.2,1.2s1.2-0.6,1.2-1.2C57.8,42.1,52.3,36.1,45.5,36.1z"/> <path class="blankfill" d="M12.9,22.9c0.2,3.6,2.5,6.7,6,7.9c1,0.3,2,0.5,3,0.5c0.5,0,1.1,0,1.6-0.1c0.7-0.1,1.1-0.8,1-1.4 s-0.8-1.1-1.4-1c-1.1,0.2-2.3,0.1-3.4-0.2c-1.6-0.6-3-1.8-3.7-3.4c-0.3-0.7-0.5-1.5-0.6-2.2h13c-0.1,0.6-0.2,1.2-0.4,1.8 c-0.2,0.7,0.1,1.4,0.7,1.6c0.7,0.2,1.4-0.1,1.6-0.7c0.6-1.7,0.7-3.6,0.2-5.4c-0.8-3.1-3.3-5.5-6.5-6.2h-0.1 c-0.2-0.1-0.5-0.1-0.7-0.1c-0.1,0-0.2-0.1-0.4-0.1s-0.3-0.1-0.4-0.1h-1.2c-4.2,0.2-7.6,3-8.3,6.7H8.3c-0.7,0-1.2,0.6-1.2,1.2 c0,0.7,0.6,1.2,1.2,1.2L12.9,22.9L12.9,22.9z M15.8,20.4c0.9-2.4,3.2-4.1,5.8-4.2h0.7c0.1,0,0.3,0,0.4,0.1h0.1 c0.4,0.1,0.8,0.2,1.2,0.3c1.6,0.6,3,1.8,3.7,3.4c0.1,0.2,0.1,0.3,0.2,0.5L15.8,20.4L15.8,20.4z"/> </g> </svg>