<?xml version="1.0" encoding="utf-8"?> <svg width="65" height="65" version="1.1" xmlns="http://www.w3.org/2000/svg" xmlns:xlink="http://www.w3.org/1999/xlink" x="0px" y="0px" viewBox="0 0 65 65" style="enable-background:new 0 0 65 65;" xml:space="preserve"> <g> <path class="blankfill" d="M15.6,52.1c-0.7,0.7-0.7,1.8,0,2.5c0.7,0.7,1.8,0.7,2.5,0c0.7-0.7,0.7-1.8,0-2.5 C17.4,51.5,16.3,51.4,15.6,52.1C15.6,52.1,15.6,52.1,15.6,52.1z"/> <path class="blankfill" d="M18.9,30.3c0.1,0,0.3,0,0.4-0.1c1.8-0.6,3.4-1.8,4.4-3.4c2,3.1,5.5,5,9.2,5c3.5,0,6.8-1.7,8.9-4.6 c1.1,1.5,2.7,2.6,4.6,3h0.3c0.6,0,1.2-0.5,1.4-1.1c0.1-0.7-0.3-1.4-1.1-1.6c0,0,0,0,0,0c-0.3-0.1-3.3-0.8-3.3-3.7 c1.7-5.8-1.7-11.9-7.6-13.6C30.1,8.6,24,12,22.3,17.8c-0.3,1-0.4,2-0.4,3c0,0.7,0.1,1.3,0.2,2C22,22.9,22,23,22,23.1 c-0.1,3.3-3.3,4.4-3.5,4.5c-0.7,0.2-1.1,0.9-0.9,1.5c0,0.1,0,0.1,0,0.2C17.7,29.9,18.3,30.3,18.9,30.3z M32.9,12.6 c4.6,0,8.3,3.7,8.3,8.3c0,4.6-3.7,8.3-8.3,8.3s-8.3-3.7-8.3-8.3c0,0,0,0,0-0.1C24.6,16.2,28.3,12.6,32.9,12.6L32.9,12.6z"/> <path class="blankfill" d="M32.8,35.1C25.4,35.3,19,40.1,16.7,47c-0.1,0.4-0.3,0.9-0.4,1.4c-0.2,0.7,0.2,1.5,0.9,1.7c0,0,0,0,0,0 c0.7,0.2,1.5-0.2,1.7-0.9c0,0,0,0,0,0c0.1-0.4,0.2-0.8,0.3-1.2c2.2-6.1,7.6-10.2,13.5-10.2c8,0,14.4,7.1,14.4,15.8 c0,0.8,0.6,1.4,1.4,1.4c0.8,0,1.4-0.6,1.4-1.4C49.9,43.4,42.2,35.1,32.8,35.1z"/> </g> </svg>