<?xml version="1.0" encoding="utf-8"?> <svg width="65" height="65" version="1.1" xmlns="http://www.w3.org/2000/svg" xmlns:xlink="http://www.w3.org/1999/xlink" x="0px" y="0px" viewBox="0 0 65 65" style="enable-background:new 0 0 65 65;" xml:space="preserve"> <g> <path class="blankfill" d="M13.2,30.6c1.2,0.4,2.4,0.6,3.6,0.6c0.7,0,1.3-0.1,2-0.2c0.7-0.1,1.2-0.8,1.1-1.6s-0.8-1.2-1.6-1.1 c-1.4,0.3-2.8,0.1-4.2-0.3c-2-0.7-3.6-2.1-4.5-4c-0.9-1.8-1-3.9-0.3-5.8c1.6-4,6.1-6.1,10.2-4.6c2,0.7,3.6,2.1,4.5,4 c0.9,1.8,1,3.9,0.3,5.8c-0.3,0.7,0.1,1.5,0.8,1.8c0.7,0.3,1.5-0.1,1.8-0.8c0.9-2.6,0.8-5.4-0.3-7.9c-1.2-2.6-3.4-4.5-6.1-5.5 C15,9,8.9,11.8,6.9,17.3C4.9,22.7,7.7,28.6,13.2,30.6C13.2,30.6,13.2,30.6,13.2,30.6L13.2,30.6z"/> <path class="blankfill" d="M21.3,28.1c-0.5,0.5-0.5,1.2,0,1.7c0.5,0.5,1.2,0.5,1.7,0c0.5-0.5,0.5-1.2,0-1.7 C22.5,27.6,21.7,27.6,21.3,28.1z"/> <path class="blankfill" d="M30.7,52.1c-0.7,0.7-0.7,1.8,0,2.5c0.7,0.7,1.8,0.7,2.5,0s0.7-1.8,0-2.5c0,0,0,0,0,0 C32.6,51.4,31.5,51.4,30.7,52.1C30.8,52.1,30.7,52.1,30.7,52.1z"/> <path class="blankfill" d="M34,30.3c0.1,0,0.3,0,0.4-0.1c1.8-0.6,3.4-1.8,4.4-3.4c2,3.1,5.5,5,9.2,5c3.5,0,6.8-1.7,8.9-4.6 c1.1,1.5,2.7,2.6,4.6,3h0.3c0.6,0,1.2-0.5,1.4-1.1c0.1-0.7-0.3-1.4-1.1-1.6c0,0,0,0,0,0c-0.1,0-3.3-0.7-3.3-3.7 c1.7-5.9-1.8-12-7.6-13.6c-5.9-1.7-12,1.8-13.6,7.6c-0.3,1-0.4,2-0.4,3c0,0.7,0.1,1.3,0.2,2c-0.1,0.1-0.1,0.2-0.1,0.3 c-0.1,3.3-3.3,4.4-3.5,4.5c-0.7,0.2-1.1,0.9-0.9,1.5c0,0.1,0,0.1,0,0.2C32.9,29.9,33.4,30.2,34,30.3z M48,12.6 c4.6,0,8.3,3.7,8.3,8.3s-3.7,8.3-8.3,8.3c-4.6,0-8.3-3.7-8.3-8.3c0,0,0,0,0,0C39.7,16.3,43.4,12.6,48,12.6L48,12.6z"/> <path class="blankfill" d="M48,35.1c-6.7,0.2-12.7,4.2-15.4,10.3c-2.7-6.1-8.7-10.1-15.4-10.3C7.7,35.1,0,43.4,0,53.6 C0,54.4,0.6,55,1.4,55c0.8,0,1.4-0.6,1.4-1.4c0-8.7,6.5-15.8,14.4-15.8c5.9,0,11.4,4.1,13.5,10.2c0.1,0.4,0.3,0.8,0.3,1.2 c0.2,0.7,0.8,1.1,1.5,1c0.7,0.2,1.3-0.3,1.5-0.9c0,0,0,0,0,0c0.1-0.4,0.2-0.7,0.3-1.2c2.1-6.1,7.6-10.2,13.5-10.2 c8,0,14.4,7.1,14.4,15.8c0,0.8,0.6,1.4,1.4,1.4c0.8,0,1.4-0.6,1.4-1.4C65.1,43.4,57.4,35.1,48,35.1z"/> </g> </svg>