<?xml version="1.0" encoding="utf-8"?> <svg width="65" height="65" version="1.1" xmlns="http://www.w3.org/2000/svg" xmlns:xlink="http://www.w3.org/1999/xlink" x="0px" y="0px" viewBox="0 0 65 65" style="enable-background:new 0 0 65 65;" xml:space="preserve"> <g transform="translate(0)"> <path class="blankfill" d="M32.5,36.1c-9.3,0-16.8,7.5-16.8,16.8c0,0.7,0.6,1.3,1.3,1.3c0.7,0,1.3-0.6,1.3-1.3c0,0,0,0,0,0 c0-7.9,6.4-14.2,14.2-14.2c7.9,0,14.2,6.4,14.2,14.2c0,0.7,0.6,1.3,1.3,1.3c0.7,0,1.3-0.6,1.3-1.3c0,0,0,0,0,0 c0-9.3-7.5-16.8-16.7-16.8C32.6,36.1,32.5,36.1,32.5,36.1z"/> <path class="blankfill" d="M29,31c1.2,0.4,2.4,0.6,3.6,0.6c0.7,0,1.3-0.1,2-0.2c0.7-0.1,1.2-0.8,1.1-1.6s-0.8-1.2-1.6-1.1 c-1.4,0.3-2.8,0.1-4.2-0.3c-2-0.7-3.6-2.1-4.5-4c-0.9-1.8-1-3.9-0.3-5.8c1.6-4,6.1-6.1,10.2-4.6c2,0.7,3.6,2.1,4.5,4 c0.9,1.8,1,3.9,0.3,5.8c-0.3,0.7,0.1,1.5,0.8,1.8c0.7,0.3,1.5-0.1,1.8-0.8c0.9-2.6,0.8-5.4-0.3-7.9c-1.2-2.6-3.4-4.5-6.1-5.5 c-5.5-2-11.6,0.8-13.6,6.3c-0.9,2.6-0.8,5.4,0.3,7.9C24.1,28.1,26.3,30.1,29,31z"/> <path class="blankfill" d="M37,28.5c-0.5,0.5-0.5,1.2,0,1.7s1.2,0.5,1.7,0c0.5-0.5,0.5-1.2,0-1.7C38.2,28.1,37.5,28.1,37,28.5z"/> </g> </svg>